<?xml version="1.0" encoding="UTF-8" standalone="no"?>
<!-- Generator: Adobe Illustrator 12.0.1, SVG Export Plug-In . SVG Version: 6.00 Build 51448)  -->

<svg
   xmlns:dc="http://purl.org/dc/elements/1.1/"
   xmlns:cc="http://creativecommons.org/ns#"
   xmlns:rdf="http://www.w3.org/1999/02/22-rdf-syntax-ns#"
   xmlns:svg="http://www.w3.org/2000/svg"
   xmlns="http://www.w3.org/2000/svg"
   xmlns:xlink="http://www.w3.org/1999/xlink"
   xmlns:sodipodi="http://sodipodi.sourceforge.net/DTD/sodipodi-0.dtd"
   xmlns:inkscape="http://www.inkscape.org/namespaces/inkscape"
   version="1.0"
   id="Layer_1"
   width="436.505"
   height="152.503"
   viewBox="0 0 436.505 152.503"
   overflow="visible"
   enable-background="new 0 0 436.505 152.503"
   xml:space="preserve"
   inkscape:version="0.91 r13725"
   sodipodi:docname="django-logo-positive.svg"><metadata
     id="metadata23"><rdf:RDF><cc:Work
         rdf:about=""><dc:format>image/svg+xml</dc:format><dc:type
           rdf:resource="http://purl.org/dc/dcmitype/StillImage" /></cc:Work></rdf:RDF></metadata><defs
     id="defs21"><linearGradient
       gradientUnits="userSpaceOnUse"
       y2="131.85291"
       x2="110.14919"
       y1="77.070274"
       x1="55.549179"
       id="linearGradient9521"
       xlink:href="#linearGradient9515"
       inkscape:collect="always" /><linearGradient
       id="linearGradient9515"
       inkscape:collect="always"><stop
         id="stop9517"
         offset="0"
         style="stop-color:#387eb8;stop-opacity:1" /><stop
         id="stop9519"
         offset="1"
         style="stop-color:#366994;stop-opacity:1" /></linearGradient><linearGradient
       gradientUnits="userSpaceOnUse"
       y2="168.1012"
       x2="147.77737"
       y1="111.92053"
       x1="89.136749"
       id="linearGradient11307"
       xlink:href="#linearGradient11301"
       inkscape:collect="always" /><linearGradient
       id="linearGradient11301"
       inkscape:collect="always"><stop
         id="stop11303"
         offset="0"
         style="stop-color:#ffe052;stop-opacity:1" /><stop
         id="stop11305"
         offset="1"
         style="stop-color:#ffc331;stop-opacity:1" /></linearGradient></defs><sodipodi:namedview
     pagecolor="#ffffff"
     bordercolor="#666666"
     borderopacity="1"
     objecttolerance="10"
     gridtolerance="10"
     guidetolerance="10"
     inkscape:pageopacity="0"
     inkscape:pageshadow="2"
     inkscape:window-width="1139"
     inkscape:window-height="851"
     id="namedview19"
     showgrid="false"
     inkscape:zoom="1.4524461"
     inkscape:cx="168.4444"
     inkscape:cy="94.59207"
     inkscape:window-x="1733"
     inkscape:window-y="829"
     inkscape:window-maximized="0"
     inkscape:current-layer="Layer_1" /><g
     id="g3"
     transform="matrix(0.59305993,0,0,0.53048219,151.46862,40.621129)"><g
       id="g5"><path
         d="m 51.464,0 23.872,0 0,110.496 C 63.09,112.821 54.099,113.751 44.334,113.751 15.191,113.75 0,100.576 0,75.308 0,50.971 16.122,35.161 41.078,35.161 c 3.875,0 6.82,0.309 10.386,1.239 l 0,-36.4 z m 0,55.62 c -2.79,-0.929 -5.115,-1.239 -8.06,-1.239 -12.091,0 -19.067,7.441 -19.067,20.461 0,12.712 6.666,19.687 18.912,19.687 2.634,0 4.805,-0.155 8.215,-0.619 l 0,-38.29 z"
         id="path7"
         inkscape:connector-curvature="0"
         style="fill:#092e20" /><path
         d="m 113.312,36.865 0,55.338 c 0,19.067 -1.395,28.212 -5.58,36.118 -3.876,7.597 -8.992,12.401 -19.532,17.672 L 66.033,135.452 c 10.541,-4.96 15.656,-9.299 18.911,-15.967 3.411,-6.82 4.497,-14.726 4.497,-35.497 l 0,-47.123 23.871,0 z M 89.441,0.127 l 23.871,0 0,24.492 -23.871,0 0,-24.492 z"
         id="path9"
         inkscape:connector-curvature="0"
         style="fill:#092e20" /><path
         d="m 127.731,42.29 c 10.542,-4.959 20.617,-7.129 31.623,-7.129 12.246,0 20.306,3.254 23.872,9.61 2.014,3.565 2.634,8.215 2.634,18.137 l 0,48.517 c -10.697,1.55 -24.182,2.636 -34.102,2.636 -19.996,0 -28.988,-6.978 -28.988,-22.478 0,-16.742 11.936,-24.492 41.234,-26.973 l 0,-5.27 c 0,-4.34 -2.17,-5.889 -8.216,-5.889 -8.835,0 -18.756,2.48 -28.058,7.286 l 0,-18.447 z m 37.358,37.978 c -15.812,1.55 -20.927,4.031 -20.927,10.231 0,4.65 2.946,6.82 9.456,6.82 3.566,0 6.82,-0.309 11.471,-1.084 l 0,-15.967 z"
         id="path11"
         inkscape:connector-curvature="0"
         style="fill:#092e20" /><path
         d="m 197.487,40.585 c 14.105,-3.72 25.731,-5.424 37.512,-5.424 12.246,0 21.082,2.789 26.354,8.215 4.96,5.114 6.509,10.694 6.509,22.632 l 0,46.812 -23.872,0 0,-45.882 c 0,-9.145 -3.1,-12.557 -11.625,-12.557 -3.255,0 -6.2,0.31 -11.007,1.705 l 0,56.734 -23.871,0 0,-72.235 z"
         id="path13"
         inkscape:connector-curvature="0"
         style="fill:#092e20" /><path
         d="m 277.142,125.842 c 8.372,4.34 16.742,6.354 25.577,6.354 15.655,0 22.321,-6.354 22.321,-21.546 0,-0.155 0,-0.31 0,-0.465 -4.65,2.324 -9.301,3.255 -15.5,3.255 -20.927,0 -34.26,-13.796 -34.26,-35.652 0,-27.129 19.688,-42.473 54.564,-42.473 10.232,0 19.688,1.084 31.159,3.409 l -8.174,17.219 c -6.356,-1.24 -0.509,-0.166 -5.312,-0.631 l 0,2.481 0.309,10.074 0.154,13.022 c 0.155,3.254 0.155,6.51 0.311,9.765 0,2.945 0,4.341 0,6.511 0,20.462 -1.705,30.072 -6.82,37.977 -7.441,11.627 -20.307,17.362 -38.598,17.362 -9.301,0 -17.36,-1.395 -25.732,-4.651 l 0,-22.011 z m 47.434,-71.306 c -0.31,0 -0.619,0 -0.774,0 l -1.706,0 c -4.649,-0.155 -10.074,1.084 -13.796,3.409 -5.734,3.256 -8.681,9.147 -8.681,17.517 0,11.937 5.892,18.757 16.432,18.757 3.255,0 5.891,-0.621 8.99,-1.55 l 0,-1.706 0,-6.509 c 0,-2.79 -0.154,-5.892 -0.154,-9.146 l -0.154,-11.005 -0.156,-7.906 0,-1.861 z"
         id="path15"
         inkscape:connector-curvature="0"
         style="fill:#092e20" /><path
         d="m 398.062,34.85 c 23.871,0 38.443,15.037 38.443,39.373 0,24.958 -15.19,40.614 -39.373,40.614 -23.873,0 -38.599,-15.037 -38.599,-39.218 10e-4,-25.114 15.193,-40.769 39.529,-40.769 z m -0.467,60.764 c 9.147,0 14.573,-7.596 14.573,-20.772 0,-13.02 -5.271,-20.771 -14.415,-20.771 -9.457,0 -14.884,7.597 -14.884,20.771 10e-4,13.177 5.427,20.772 14.726,20.772 z"
         id="path17"
         inkscape:connector-curvature="0"
         style="fill:#092e20" /></g></g><g
     id="g1894"
     transform="translate(-27.167743,-44.934605)"><path
       inkscape:connector-curvature="0"
       style="color:#000000;display:inline;overflow:visible;visibility:visible;opacity:1;fill:url(#linearGradient9521);fill-opacity:1;fill-rule:nonzero;stroke:none;stroke-width:1;stroke-linecap:butt;stroke-linejoin:miter;stroke-miterlimit:4;stroke-dasharray:none;stroke-dashoffset:0;stroke-opacity:1;marker:none;marker-start:none;marker-mid:none;marker-end:none"
       d="M 99.75,67.46875 C 71.718268,67.468752 73.46875,79.625 73.46875,79.625 L 73.5,92.21875 l 26.75,0 0,3.78125 -37.375,0 c 0,0 -17.9375,-2.034276 -17.9375,26.25 -2e-6,28.28427 15.65625,27.28125 15.65625,27.28125 l 9.34375,0 0,-13.125 c 0,0 -0.503652,-15.65625 15.40625,-15.65625 15.9099,0 26.53125,0 26.53125,0 0,0 14.90625,0.24096 14.90625,-14.40625 0,-14.647206 0,-24.21875 0,-24.21875 0,-2e-6 2.26318,-14.65625 -27.03125,-14.65625 z M 85,75.9375 c 2.661429,-2e-6 4.8125,2.151071 4.8125,4.8125 2e-6,2.661429 -2.151071,4.8125 -4.8125,4.8125 -2.661429,2e-6 -4.8125,-2.151071 -4.8125,-4.8125 -2e-6,-2.661429 2.151071,-4.8125 4.8125,-4.8125 z"
       id="path8615" /><path
       inkscape:connector-curvature="0"
       id="path8620"
       d="m 100.5461,177.31485 c 28.03174,0 26.28125,-12.15625 26.28125,-12.15625 l -0.0312,-12.59375 -26.75,0 0,-3.78125 37.375,0 c 0,0 17.9375,2.03427 17.9375,-26.25001 10e-6,-28.284267 -15.65625,-27.281247 -15.65625,-27.281247 l -9.34375,0 0,13.124997 c 0,0 0.50366,15.65625 -15.40625,15.65625 -15.909902,0 -26.531252,0 -26.531252,0 0,0 -14.90625,-0.24096 -14.90625,14.40626 0,14.6472 0,24.21875 0,24.21875 0,0 -2.26318,14.65625 27.031252,14.65625 z m 14.75,-8.46875 c -2.66143,0 -4.8125,-2.15107 -4.8125,-4.8125 0,-2.66143 2.15107,-4.8125 4.8125,-4.8125 2.66143,0 4.8125,2.15107 4.8125,4.8125 1e-5,2.66143 -2.15107,4.8125 -4.8125,4.8125 z"
       style="color:#000000;display:inline;overflow:visible;visibility:visible;opacity:1;fill:url(#linearGradient11307);fill-opacity:1;fill-rule:nonzero;stroke:none;stroke-width:1;stroke-linecap:butt;stroke-linejoin:miter;stroke-miterlimit:4;stroke-dasharray:none;stroke-dashoffset:0;stroke-opacity:1;marker:none;marker-start:none;marker-mid:none;marker-end:none" /></g></svg>