<?xml version="1.0" encoding="utf-8"?>
<!-- Generator: Adobe Illustrator 19.0.0, SVG Export Plug-In . SVG Version: 6.00 Build 0)  -->
<svg version="1.1" id="Layer_1" xmlns="http://www.w3.org/2000/svg" xmlns:xlink="http://www.w3.org/1999/xlink" x="0px" y="0px"
	 viewBox="-49 141 512 512" style="enable-background:new -49 141 512 512;" xml:space="preserve">
<style type="text/css">
	.st0{fill:#38454F;}
	.st1{fill:#E8EDEE;}
	.st2{fill:#B0B6BB;}
	.st3{fill:none;}
	.st4{fill:#FFFFFF;stroke:#FFFFFF;stroke-width:7;stroke-linecap:round;stroke-linejoin:round;stroke-miterlimit:10;}
</style>
<path class="st0" d="M463,458.8H-49V189.6c0-17.1,13.8-30.9,30.9-30.9h450.2c17.1,0,30.9,13.8,30.9,30.9L463,458.8L463,458.8z"/>
<path class="st1" d="M312.9,635.3H101.1c0-19.5,15.8-35.3,35.3-35.3h141.2C297.1,600,312.9,615.8,312.9,635.3"/>
<polygon class="st2" points="268.8,600 145.2,600 162.9,529.4 251.1,529.4 "/>
<path class="st1" d="M432.1,529.4H-18.1c-17.1,0-30.9-13.8-30.9-30.9v-39.7h512v39.7C463,515.6,449.2,529.4,432.1,529.4"/>
<polygon class="st0" points="48.1,423.5 101.1,423.5 101.1,282.2 48.1,282.2 "/>
<polygon class="st3" points="101.1,423.5 154,423.5 154,229.3 101.1,229.3 "/>
<polygon class="st0" points="154,423.5 207,423.5 207,308.7 154,308.7 "/>
<polygon class="st0" points="207,423.5 260,423.5 260,255.8 207,255.8 "/>
<polygon class="st0" points="260,423.5 312.9,423.5 312.9,194 260,194 "/>
<polygon class="st0" points="312.9,423.5 365.9,423.5 365.9,229.3 312.9,229.3 "/>
<path class="st0" d="M401.2,432.3H12.8c-4.9,0-8.8-4-8.8-8.8s4-8.8,8.8-8.8h388.4c4.9,0,8.8,4,8.8,8.8S406.1,432.3,401.2,432.3"/>
<g>
	<path class="st4" d="M191.5,359.4c-8.4-7.3-0.7-24.4,2.1-30.5c3.4-7.6,7.8-13,10.6-16c3.6-3.9,10-9.7,19.3-17.2
		c9.3-7.5,15.3-13.6,18.1-18c2.8-4.5,4.2-9.4,4.2-14.7c0-9.6-4.1-18-12.2-25.3c-8.2-7.3-18.2-10.9-30-10.9c-3.6,0-11.5,0.1-20.2,4.3
		c-2.1,1-5.4,2.6-8.5,5.6c-10.4,9.9-4.8,22.5-12.1,26.6c-5.3,3-14.7,0.3-19-4.7c-7.9-9.1,0.5-27.2,10.6-37.2
		c15.1-14.9,37.6-14.9,48.7-14.9c21.4,0,38.4,5.3,51.2,16c12.7,10.7,19.1,23.6,19.1,38.8c0,8.8-2.2,16.9-6.7,24.3
		c-4.5,7.4-13.2,16.4-26.3,27c-8.8,7.1-14.5,12.4-17.2,15.8c-4,5-5.6,10.6-6,11.7c-4.3,11.6-1.3,16.2-5.4,19.8
		C207.1,364.1,196.6,363.9,191.5,359.4z M200.3,410.9c-7.8-0.2-14.1-6.2-14.1-13.4c0-7.2,6.3-13.2,14.1-13.4c1,0,8.1,0.4,12.5,5.7
		c2.4,2.9,2.9,6,3,7.4c0.1,1.1,0.4,5.1-2.5,8.7C208.7,411.6,200.7,411,200.3,410.9z"/>
</g>
</svg>
