<?xml version="1.0" encoding="iso-8859-1"?>
<!-- Generator: Adobe Illustrator 19.0.0, SVG Export Plug-In . SVG Version: 6.00 Build 0)  -->
<svg version="1.1" id="Layer_1" xmlns="http://www.w3.org/2000/svg" xmlns:xlink="http://www.w3.org/1999/xlink" x="0px" y="0px"
	 viewBox="0 0 512 512" style="enable-background:new 0 0 512 512;" xml:space="preserve">
<path style="fill:#FF5200;" d="M390.737,374.568c-17.859,0-32.337-14.478-32.337-32.337V40.421
	c0-17.859,14.478-32.337,32.337-32.337s32.337,14.478,32.337,32.337v301.811C423.074,360.09,408.595,374.568,390.737,374.568z
	 M390.737,406.905c-17.86,0-32.337,14.477-32.337,32.337c0,17.86,14.477,32.337,32.337,32.337c17.86,0,32.337-14.477,32.337-32.337
	C423.074,421.382,408.596,406.905,390.737,406.905z"/>
<path style="fill:#CC0000;" d="M423.074,40.421v301.811c0,17.859-14.478,32.337-32.337,32.337c-5.892,0-11.411-1.583-16.168-4.337
	c9.662-5.592,16.168-16.033,16.168-27.999V40.421c0-11.967-6.506-22.408-16.168-27.999c4.758-2.753,10.277-4.337,16.168-4.337
	C408.595,8.084,423.074,22.562,423.074,40.421z M400.126,408.295c0.901,2.972,1.389,6.124,1.389,9.39
	c0,17.86-14.477,32.337-32.337,32.337c-3.266,0-6.418-0.489-9.39-1.389c4.024,13.279,16.355,22.947,30.947,22.947
	c17.86,0,32.337-14.477,32.337-32.337C423.074,424.65,413.405,412.318,400.126,408.295z"/>
<path style="fill:#28749E;" d="M162.34,374.568c-17.859,0-32.337-14.478-32.337-32.337c0,0,0.01,0.877,0.028,0
	c0.47-22.468,6.944-44.367,18.792-63.497c12.324-19.896,29.913-35.906,50.866-46.301c28.901-14.337,47.284-44.442,46.836-76.693
	c-0.628-45.124-37.85-82.347-82.975-82.974c-22.707-0.333-44.155,8.29-60.323,24.234c-16.172,15.949-25.078,37.239-25.078,59.949
	c0,17.859-14.478,32.337-32.337,32.337s-32.337-14.478-32.337-32.337c0-40.155,15.747-77.799,44.34-105.998
	c28.589-28.193,66.46-43.395,106.635-42.853c38.821,0.54,75.42,16.056,103.053,43.688c27.633,27.633,43.149,64.232,43.689,103.053
	c0.399,28.664-7.374,56.612-22.478,80.822c-14.66,23.498-35.505,42.415-60.282,54.707c-20.032,9.938-32.764,29.645-33.699,51.863
	c-0.037,0.875-0.055,0-0.055,0C194.676,360.09,180.198,374.568,162.34,374.568z M164.379,406.905
	c-17.86,0-32.337,14.477-32.337,32.337c0,17.86,14.477,32.337,32.337,32.337s32.337-14.477,32.337-32.337
	C196.716,421.382,182.239,406.905,164.379,406.905z"/>
<path style="fill:#2C4D67;" d="M176.313,295.764c-8.779,14.172-13.604,30.475-13.953,47.145
	c-0.268,12.782-7.01,22.279-15.891,27.494c-9.728-5.493-16.325-15.872-16.456-27.809c0.004,0.06,0.011,0.013,0.018-0.362
	c0.47-22.468,6.944-44.367,18.792-63.497c12.324-19.896,29.913-35.906,50.866-46.301c28.901-14.337,47.284-44.442,46.836-76.693
	c-0.628-45.124-37.85-82.347-82.975-82.974c-22.707-0.333-44.155,8.29-60.323,24.234c-16.172,15.949-25.078,37.239-25.078,59.949
	c0,17.859-14.478,32.337-32.337,32.337c-11.962,0-22.4-6.501-27.993-16.157c5.599-9.662,16.046-16.18,27.993-16.18
	c0-31.432,12.327-60.9,34.709-82.974c22.42-22.108,52.112-34.003,83.507-33.544c62.452,0.875,113.963,52.399,114.831,114.858
	c0.622,44.623-24.813,86.275-64.799,106.111C198.512,269.115,185.459,280.997,176.313,295.764z M130.011,342.594
	c-0.001-0.121-0.009-0.24-0.009-0.362C130.003,342.232,130.006,342.512,130.011,342.594z M173.768,408.295
	c0.901,2.972,1.389,6.124,1.389,9.39c0,17.86-14.477,32.337-32.337,32.337c-3.266,0-6.418-0.489-9.39-1.389
	c4.024,13.279,16.355,22.947,30.947,22.947c17.86,0,32.337-14.477,32.337-32.337C196.716,424.65,187.047,412.318,173.768,408.295z"
	/>
<path style="fill:#FFFFFF;" d="M291.032,158.989c0,4.465-3.62,8.084-8.084,8.084s-8.084-3.62-8.084-8.084
	c0-49.207-33.027-92.926-80.315-106.317c-4.295-1.216-6.792-5.685-5.576-9.981c1.217-4.295,5.687-6.791,9.981-5.576
	C253.168,52.468,291.032,102.584,291.032,158.989z M165.236,32.339l-0.857-0.002c-4.465,0-8.084,3.62-8.084,8.084
	s3.62,8.084,8.084,8.084l0.762,0.002c0.016,0,0.032,0,0.049,0c4.442,0,8.057-3.588,8.083-8.037
	C173.299,36.006,169.701,32.366,165.236,32.339z M396.126,32.337c-4.465,0-8.084,3.62-8.084,8.084v64.674
	c0,4.465,3.62,8.084,8.084,8.084c4.465,0,8.084-3.62,8.084-8.084V40.421C404.211,35.956,400.591,32.337,396.126,32.337z
	 M396.126,126.901c-4.465,0-8.084,3.62-8.084,8.084v1.078c0,4.465,3.62,8.084,8.084,8.084c4.465,0,8.084-3.62,8.084-8.084v-1.078
	C404.211,130.52,400.591,126.901,396.126,126.901z"/>
<path d="M319.275,154.727c-0.57-40.937-16.926-79.526-46.056-108.657C244.088,16.941,205.5,0.585,164.558,0.016
	c-0.733-0.011-1.458-0.015-2.188-0.015c-41.554,0-80.629,16.001-110.232,45.195C21.991,74.927,5.389,114.614,5.389,156.949
	c0,22.289,18.132,40.421,40.421,40.421s40.421-18.132,40.421-40.421c0-20.529,8.052-39.774,22.669-54.192
	c14.63-14.427,33.985-22.21,54.536-21.907c40.79,0.567,74.436,34.213,75.004,75.004c0.405,29.159-16.216,56.376-42.345,69.338
	c-22.304,11.067-41.028,28.108-54.145,49.287c-12.464,20.121-19.368,43.233-19.986,66.88c-0.03,0.287-0.046,0.578-0.046,0.874
	c0,22.289,18.132,40.421,40.421,40.421c21.908,0,39.802-17.521,40.405-39.286c0.031-0.258,0.053-0.523,0.065-0.794
	c0.808-19.194,12.003-36.421,29.215-44.96c26.117-12.957,48.092-32.898,63.548-57.671
	C311.498,214.413,319.695,184.947,319.275,154.727z M224.839,283.127c-22.17,10.999-36.703,33.027-38.133,57.742
	c-0.075,0.443-0.114,0.898-0.114,1.362c0,13.372-10.88,24.253-24.253,24.253c-13.169,0-23.918-10.548-24.245-23.639
	c0.01-0.147,0.016-0.294,0.019-0.445c0.439-21.004,6.519-41.547,17.584-59.408c11.528-18.613,27.984-33.59,47.585-43.316
	c31.672-15.71,51.818-48.701,51.326-84.048c-0.689-49.46-41.486-90.258-90.94-90.945c-24.861-0.41-48.379,9.067-66.119,26.561
	c-17.725,17.481-27.486,40.817-27.486,65.705c0,13.372-10.88,24.253-24.253,24.253s-24.253-10.879-24.253-24.253
	c0-37.973,14.892-73.574,41.933-100.242c26.555-26.187,61.602-40.537,98.881-40.537c0.653,0,1.31,0.004,1.963,0.013
	c36.706,0.511,71.314,15.185,97.449,41.321c26.136,26.137,40.811,60.745,41.323,97.449c0.376,27.11-6.974,53.54-21.254,76.43
	C267.986,253.61,248.27,271.503,224.839,283.127z M390.737,382.653c22.289,0,40.421-18.132,40.421-40.421V40.421
	C431.158,18.132,413.026,0,390.737,0c-22.289,0-40.421,18.132-40.421,40.421v301.811
	C350.316,364.52,368.448,382.653,390.737,382.653z M366.484,40.421c0-13.372,10.88-24.253,24.253-24.253
	c13.372,0,24.253,10.88,24.253,24.253v301.811c0,13.372-10.88,24.253-24.253,24.253c-13.372,0-24.253-10.88-24.253-24.253V40.421z
	 M390.737,479.663c22.289,0,40.421-18.132,40.421-40.421c0-22.289-18.132-40.421-40.421-40.421
	c-22.289,0-40.421,18.132-40.421,40.421C350.316,461.531,368.448,479.663,390.737,479.663z M390.737,414.989
	c13.372,0,24.253,10.88,24.253,24.253c0,13.372-10.88,24.253-24.253,24.253c-13.372,0-24.253-10.88-24.253-24.253
	C366.484,425.87,377.364,414.989,390.737,414.989z M204.8,439.242c0-22.289-18.132-40.421-40.421-40.421
	s-40.421,18.132-40.421,40.421c0,22.289,18.132,40.421,40.421,40.421S204.8,461.531,204.8,439.242z M140.126,439.242
	c0-13.372,10.88-24.253,24.253-24.253c13.372,0,24.253,10.88,24.253,24.253c0,13.372-10.88,24.253-24.253,24.253
	C151.007,463.495,140.126,452.614,140.126,439.242z M226.358,503.916c0,4.466-3.618,8.084-8.084,8.084H99.705
	c-4.466,0-8.084-3.618-8.084-8.084s3.618-8.084,8.084-8.084h118.568C222.739,495.832,226.358,499.45,226.358,503.916z
	 M463.495,503.916c0,4.466-3.618,8.084-8.084,8.084H326.063c-4.466,0-8.084-3.618-8.084-8.084s3.618-8.084,8.084-8.084H455.41
	C459.876,495.832,463.495,499.45,463.495,503.916z M75.453,503.916c0,4.466-3.618,8.084-8.084,8.084h-1.078
	c-4.466,0-8.084-3.618-8.084-8.084s3.618-8.084,8.084-8.084h1.078C71.834,495.832,75.453,499.45,75.453,503.916z M506.611,503.916
	c0,4.466-3.618,8.084-8.084,8.084h-1.078c-4.466,0-8.084-3.618-8.084-8.084s3.618-8.084,8.084-8.084h1.078
	C502.992,495.832,506.611,499.45,506.611,503.916z M32.337,503.916c0,4.466-3.618,8.084-8.084,8.084h-1.078
	c-4.466,0-8.084-3.618-8.084-8.084s3.618-8.084,8.084-8.084h1.078C28.718,495.832,32.337,499.45,32.337,503.916z M302.888,503.916
	c0,4.466-3.618,8.084-8.084,8.084h-1.078c-4.466,0-8.084-3.618-8.084-8.084s3.618-8.084,8.084-8.084h1.078
	C299.27,495.832,302.888,499.45,302.888,503.916z M259.773,503.916c0,4.466-3.618,8.084-8.084,8.084h-1.078
	c-4.466,0-8.084-3.618-8.084-8.084s3.618-8.084,8.084-8.084h1.078C256.154,495.832,259.773,499.45,259.773,503.916z"/>
<g>
</g>
<g>
</g>
<g>
</g>
<g>
</g>
<g>
</g>
<g>
</g>
<g>
</g>
<g>
</g>
<g>
</g>
<g>
</g>
<g>
</g>
<g>
</g>
<g>
</g>
<g>
</g>
<g>
</g>
</svg>
