<?xml version="1.0" encoding="utf-8"?>
<!-- Generator: Adobe Illustrator 19.2.1, SVG Export Plug-In . SVG Version: 6.00 Build 0)  -->
<svg version="1.1" id="Layer_1" xmlns="http://www.w3.org/2000/svg" xmlns:xlink="http://www.w3.org/1999/xlink" x="0px" y="0px"
	 viewBox="0 0 400 200" style="enable-background:new 0 0 400 200;" xml:space="preserve">
<style type="text/css">
	.st0{fill:none;stroke:#E0E0E0;stroke-width:3;stroke-miterlimit:10;}
	.st1{fill:none;stroke:#5A699D;stroke-width:3;stroke-linecap:round;stroke-miterlimit:10;}
	.st2{fill:none;stroke:#79609B;stroke-width:3;stroke-linecap:round;stroke-miterlimit:10;}
	.st3{fill:none;stroke:#605E99;stroke-width:3;stroke-linecap:round;stroke-miterlimit:10;}
	.st4{fill:none;stroke:#0168A8;stroke-width:3;stroke-linecap:round;stroke-miterlimit:10;}
	.st5{fill:none;stroke:#8F629E;stroke-width:3;stroke-linecap:round;stroke-miterlimit:10;}
	.st6{fill:none;stroke:#5474A1;stroke-width:3;stroke-linecap:round;stroke-miterlimit:10;}
	.st7{fill:#E0E0E0;}
	.st8{fill:#5A699D;}
	.st9{fill:#FFFFFF;}
	.st10{fill:#FFFFFF;stroke:#E0E0E0;stroke-width:3;stroke-miterlimit:10;}
	.st11{fill:#8F629E;}
	.st12{fill:#605E99;}
	.st13{fill:#8362A3;stroke:#FFFFFF;stroke-miterlimit:10;}
</style>
<path class="st0" d="M334.4,50.4l0,26.7c0,10.6-8.6,19.4-19.4,19.4"/>
<path class="st1" d="M257,158.3c19-18.9,26.7-46.6,20.9-72.7c-5.9-26.3-24.8-48.8-50.4-57.8c-17.1-6.1-36.4-6.3-53.6,0"/>
<path class="st2" d="M236,173.3c5.8-2.8,11.2-6.3,16-10.4"/>
<path class="st3" d="M182,179.5c15.1,3.5,31.1,2.4,45.7-2.7"/>
<path class="st1" d="M169.1,175.2c2,0.8,4,1.6,6.1,2.3"/>
<path class="st4" d="M157.6,169.1c1.5,0.9,3,1.9,4.4,2.7"/>
<path class="st5" d="M153.8,38.6c-31.2,23.3-41.5,67.9-22.5,102.1c5,9,11.7,17,19.8,23.6"/>
<path class="st3" d="M166.2,31c-2.2,1.1-4.2,2.2-6.2,3.4 M284.2,129.5c1.9-5.8,3.2-11.7,3.8-17.8"/>
<path class="st5" d="M249.5,175.4c13.7-9.3,24.8-22.4,31.5-37.4"/>
<path class="st4" d="M239.4,181.3c1.3-0.7,2.6-1.3,3.9-2"/>
<path class="st5" d="M117.2,77.2c-1.1,3.4-1.9,6.7-2.4,10.2"/>
<path class="st1" d="M131.3,50.3c-5,6.3-9,13.5-12,20.9"/>
<path class="st2" d="M140.6,39.9c-1.3,1.2-2.6,2.6-3.8,3.8"/>
<path class="st6" d="M196,15.2c-18.6,1.2-36.6,8.9-50.8,20.9"/>
<path class="st7" d="M316.7,89.4l-8.8,6.2c-0.5,0.4-0.5,1.1,0,1.5l8.7,6.2c0.5,0.4,1.3,0,1.3-0.7l0-12.4
	C318.1,89.4,317.3,89,316.7,89.4z"/>
<path class="st8" d="M261.3,58.7c-3.6,0-6.6-3-6.6-6.6c0-3.6,3-6.6,6.6-6.6c3.6,0,6.6,3,6.6,6.6C267.9,55.7,264.9,58.7,261.3,58.7z"
	/>
<path class="st9" d="M261.3,47.5c2.6,0,4.6,2,4.6,4.6s-2,4.6-4.6,4.6c-2.6,0-4.6-2-4.6-4.6S258.8,47.5,261.3,47.5 M261.3,43.4
	c-4.7,0-8.6,3.9-8.6,8.6s3.9,8.6,8.6,8.6c4.7,0,8.6-3.9,8.6-8.6S266,43.4,261.3,43.4z"/>
<ellipse transform="matrix(1.128043e-003 -1 1 1.128043e-003 283.6625 384.7678)" class="st10" cx="334.4" cy="50.4" rx="4.6" ry="4.6"/>
<ellipse transform="matrix(1.128043e-003 -1 1 1.128043e-003 247.9183 348.9025)" class="st10" cx="298.6" cy="50.4" rx="4.6" ry="4.6"/>
<ellipse transform="matrix(1.128043e-003 -1 1 1.128043e-003 201.8057 394.8593)" class="st10" cx="298.6" cy="96.4" rx="4.6" ry="4.6"/>
<ellipse transform="matrix(1.128043e-003 -1 1 1.128043e-003 152.5118 491.2875)" class="st10" cx="322.2" cy="169.3" rx="4.6" ry="4.6"/>
<path class="st0" d="M48.7,140.7l26.7,0.1c10.6,0,19.4-8.6,19.4-19.4"/>
<ellipse transform="matrix(1.895578e-003 -1 1 1.895578e-003 -93.2096 188.034)" class="st10" cx="47.6" cy="140.7" rx="4.6" ry="4.6"/>
<path class="st11" d="M139,158.5c-3.6,0-6.6-3-6.6-6.6c0-3.6,3-6.6,6.6-6.6s6.6,3,6.6,6.6C145.6,155.5,142.7,158.5,139,158.5z"/>
<path class="st9" d="M139,147.4c2.6,0,4.6,2,4.6,4.6c0,2.6-2,4.6-4.6,4.6c-2.6,0-4.6-2-4.6-4.6C134.6,149.4,136.6,147.4,139,147.4
	 M139,143.4c-4.7,0-8.6,3.9-8.6,8.6s3.9,8.6,8.6,8.6s8.6-3.9,8.6-8.6S143.9,143.4,139,143.4z"/>
<path class="st12" d="M125.9,191.6c7.2-7.8,7.1-20.1,0.7-27.7c-8.3-9.9-25.4-9.7-33.3,0.6c-6.1,8-5.4,20.3,2.1,27.7
	C103.6,200.4,117.9,200.3,125.9,191.6z"/>
<path class="st0" d="M298.6,54.8l0,37"/>
<path class="st10" d="M298.6,101l0,12.8c0,6.6,5.2,11.9,11.8,11.9s11.8,5.3,11.8,11.9l0,27.2"/>
<ellipse transform="matrix(1 -9.468741e-003 9.468741e-003 1 -0.6698 0.6723)" class="st10" cx="70.7" cy="71.1" rx="4.6" ry="4.6"/>
<ellipse transform="matrix(1 -9.468741e-003 9.468741e-003 1 -1.1015 0.9029)" class="st10" cx="94.8" cy="116.8" rx="4.6" ry="4.6"/>
<ellipse transform="matrix(1 -9.468741e-003 9.468741e-003 1 -0.381 0.8927)" class="st10" cx="94.1" cy="40.7" rx="4.6" ry="4.6"/>
<path class="st10" d="M70.7,75.7l0,4.6c0.1,6.6,5.4,11.8,12,11.7c6.6-0.1,11.9,5.1,12,11.7l0.1,8.3"/>
<path class="st0" d="M94.7,106.4l-0.6-61.1"/>
<g>
	<g>
		<path class="st13" d="M233.8,70.2h-66.2c-5.9,0-10.7,4.8-10.7,10.7v45.2c0,5.9,4.8,10.7,10.7,10.7h66.1c5.9,0,10.7-4.8,10.7-10.7
			V80.9C244.5,75,239.7,70.2,233.8,70.2z M239.6,126.1c0,3.2-2.6,5.8-5.8,5.8h-66.2c-3.2,0-5.8-2.6-5.8-5.8V80.9
			c0-3.2,2.6-5.8,5.8-5.8h66.1c3.2,0,5.8,2.6,5.8,5.8L239.6,126.1L239.6,126.1z"/>
		<path class="st13" d="M212.1,102.9l21.4-19.2c1-0.9,1.1-2.4,0.2-3.5c-0.9-1-2.4-1.1-3.5-0.2l-29.5,26.5l-5.8-5.1c0,0,0,0,0-0.1
			c-0.1-0.1-0.3-0.2-0.4-0.3l-23.4-21c-1-0.9-2.6-0.8-3.5,0.2c-0.9,1-0.8,2.6,0.2,3.5l21.7,19.4l-21.6,20.2c-1,0.9-1,2.5-0.1,3.5
			c0.5,0.5,1.1,0.8,1.8,0.8c0.6,0,1.2-0.2,1.7-0.7l21.9-20.5l5.9,5.3c0.5,0.4,1.1,0.6,1.6,0.6c0.6,0,1.2-0.2,1.6-0.6l6.1-5.5
			l21.8,20.7c0.5,0.5,1.1,0.7,1.7,0.7c0.7,0,1.3-0.3,1.8-0.8c0.9-1,0.9-2.5-0.1-3.5L212.1,102.9z"/>
	</g>
</g>
<path class="st13" d="M187.3,86.1"/>
<path class="st12" d="M128.6,167.6l5.1-7.9c0.8-1.2-0.3-2.8-1.7-2.6l-16,2.4l12.5,8.1L128.6,167.6z"/>
<path class="st12" d="M266.7,11.1c-5.9,8.8-3.8,21,3.7,27.5c9.8,8.5,26.6,5.6,32.8-5.8c4.8-8.8,2.2-20.9-6.4-27.1
	C287.3-1,273.2,1.3,266.7,11.1z"/>
<path class="st12" d="M267.8,35.3l-3.8,8.6c-0.6,1.4,0.7,2.7,2.1,2.3l15.5-4.9l-13.7-6.1L267.8,35.3z"/>
<g>
	<path class="st9" d="M107,188.1c-2.6,0-5.2-0.7-7.5-2.1l-1.6-1l1.9,0c0.1,0,0.2,0,0.3,0c0.7,0,3-0.1,5.4-1.5
		c-1.8-0.5-3.3-1.9-3.9-3.7l-0.3-0.9l0.8,0.2c-1.3-1-2.2-2.6-2.3-4.3l0-0.8l0.8,0.3c0.1,0.1,0.3,0.1,0.4,0.2
		c-1.1-1.5-1.7-3.8-0.4-6.3l0.4-0.7l0.5,0.6c2.3,3,5.7,4.7,9.4,5c0-0.2,0-0.4,0-0.5c0-2.7,2.1-5.6,5.6-5.6c1.5,0,2.9,0.6,3.9,1.6
		c1.4-0.3,2.7-1.1,2.7-1.1l1.2-0.7l-0.5,1.3c-0.2,0.6-0.6,1.2-1,1.8c0.2-0.1,0.5-0.2,0.7-0.3l1.4-0.7l-0.6,1.3
		c-0.5,1.1-1.3,2-2.4,2.5c0.2,3.6-1.2,7.6-3.9,10.5C116.1,185.4,112.6,188,107,188.1L107,188.1z M101.7,185.9
		c1.7,0.7,3.5,1.1,5.4,1.1l0.1,0c5.1,0,8.4-2.4,10.2-4.5c2.5-2.8,3.9-6.7,3.6-10.1l0-0.4c-0.1-0.1-0.1-0.2-0.2-0.3
		c0.2,0,0.7,0,1.2-0.3c0.3-0.2,0.5-0.4,0.6-0.6c-0.4,0.1-0.9,0.2-1.4,0.3l-0.4,0l-0.3-0.8l0.4-0.3c0.5-0.3,0.9-0.7,1.3-1.1
		c-0.6,0.2-1.2,0.5-1.9,0.6l-0.3,0.1l-0.2-0.2c-0.9-0.9-2.1-1.5-3.4-1.5c-0.9,0-1.7,0.2-2.3,0.6c-1.9,1.1-1.9,4-2.3,4
		c-0.1,0-0.2-0.5-0.2-1c0.1-1.6,1.3-3,2.7-3.6c1.8-0.8,4-0.3,5.6,1.2c1.5-0.8,2-0.5,2.1-0.3c0.1,0.1,0.1,0.1,0.6,1
		c0.2,0.4,0.3,0.6,0.3,0.6c0.2,0.8-1.4,1.3-1.9,2.6c-0.3,0.7-0.1,1.4,0,1.8c0.2,1.2-0.2,3.3-2.9,7c-0.6,0.9-2.3,3.1-5.3,4.4
		c-3.3,1.4-6.2,1.1-7.3,0.9c-3.2-0.4-4.1-0.9-4.1-1.4c-0.1-1.3,7.2-2.6,7-3.8c-0.1-0.6-1.8-0.9-2.5-1c-1.9-0.3-2.6,0.1-3-0.3
		c-1-1.1,2.8-5.5,1.7-6.7c-0.6-0.7-2.1,0.4-3.4-0.6c-0.7-0.5-1.3-1.6-1-2.7c0.2-0.7,0.6-1.1,0.8-1.3c-0.9,1-0.8,2.6,0.1,3.5
		c1,1,2.6,1,3.6,0c0.4,1.1,0.7,2.2,1.1,3.4c-0.4,0.7-0.8,1.4-1.3,2.1c-0.4-0.7-1.4-2.1-3.1-2.6c-0.2-0.1-0.5-0.1-0.7-0.1
		c1.3-0.2,2.6,0.4,3.3,1.4c0.6,0.9,0.4,2,0.4,2.2l2,0.4l-2,0.6c-0.3,0.1-0.7,0.1-1.2,0.1c-0.2,0-0.4,0-0.6,0
		c0.5,0.2,1.2,0.3,1.9,0.4c1,0.1,1.8,0.1,2.5,0c0.6,0.4,1.1,0.8,1.7,1.2c-0.6,0.6-1.3,1.2-1.9,1.7
		C105.2,185.2,103.1,185.7,101.7,185.9z"/>
</g>
<path class="st9" d="M118.2,181.9"/>
<g>
	<path class="st9" d="M289.8,37c0,0,2.5,0,2.5-2.5V11.9c0-2.5-2.5-2.5-2.5-2.5h-11.3c0,0-2.5,0-2.5,2.5v22.6c0,2.5,2.5,2.5,2.5,2.5
		H289.8z M284.2,35.9c-0.7,0-1.3-0.6-1.3-1.3c0-0.7,0.6-1.3,1.3-1.3c0.7,0,1.3,0.6,1.3,1.3C285.5,35.3,284.9,35.9,284.2,35.9z
		 M281.1,10.9c0-0.2,0.1-0.3,0.3-0.3h5.7c0.2,0,0.3,0.1,0.3,0.3V11c0,0.2-0.1,0.3-0.3,0.3h-5.7C281.2,11.3,281.1,11.1,281.1,10.9
		L281.1,10.9z M277.3,12.5h13.8v20h-13.8V12.5z"/>
</g>
</svg>
