<?xml version="1.0" encoding="utf-8"?>
<!-- Generator: Adobe Illustrator 19.2.1, SVG Export Plug-In . SVG Version: 6.00 Build 0)  -->
<svg version="1.1" id="Layer_1" xmlns="http://www.w3.org/2000/svg" xmlns:xlink="http://www.w3.org/1999/xlink" x="0px" y="0px"
	 viewBox="0 0 100 100" style="enable-background:new 0 0 100 100;" xml:space="preserve">
<style type="text/css">
	.st0{fill:#231F20;}
</style>
<path class="st0" d="M27.6,33.5c0-0.9,0.1-3.8,2.2-4.6c2-0.8,4.1,1.3,4.5,1.7c0.5,0.6,0.5,1.4-0.1,2c-0.6,0.5-1.4,0.5-2-0.1
	c-0.5-0.5-1.2-1-1.5-1c0,0-0.3,0.5-0.3,2.1c-0.2,5.2,3.8,6.6,4,6.7c0.4,0.1,0.8,0.5,0.9,0.9l0.1,0.2c0,0.1,0,0.2,0,0.3
	c1.1,13.6,11.9,18,17,18s15.8-4.4,17-18c0-0.1,0-0.2,0-0.2l0.1-0.2c0.1-0.4,0.5-0.8,0.9-0.9c0.2-0.1,4.1-1.5,4-6.7
	c-0.1-1.8-0.4-2.1-0.4-2.1c-0.2,0-1,0.6-1.4,1.1c-0.5,0.6-1.4,0.6-2,0.1c-0.6-0.5-0.6-1.4-0.1-2c0.4-0.4,2.5-2.5,4.5-1.7
	c2,0.8,2.1,3.7,2.2,4.6c0.2,5.1-2.9,8-5,9c-1.5,13.8-12.3,20-19.7,20s-18.2-6.2-19.7-20C30.4,41.5,27.4,38.7,27.6,33.5z M31.1,24.3
	C31.1,5.2,46.4,1,52.2,1c5.9,0,21.2,4.2,21.2,23.3c0,0.6-0.4,1.1-1,1.3l-2.2,0.7l-1.9,2.1c-0.3,0.3-0.6,0.5-1,0.5c0,0-0.1,0-0.1,0
	c-0.4,0-0.8-0.3-1-0.6c-0.1-0.1-2.9-3.9-13.9-3.9c-11.1,0-13.9,3.9-13.9,3.9c-0.2,0.4-0.6,0.6-1.1,0.6c-0.4,0-0.9-0.1-1.1-0.4
	l-1.9-2.1l-2.2-0.7C31.5,25.4,31.1,24.9,31.1,24.3z M33.9,23.2l1.5,0.5c0.2,0.1,0.5,0.2,0.6,0.4l1.2,1.3c1.8-1.6,6.1-3.9,15-3.9
	c9,0,13.2,2.3,15,3.9l1.2-1.3c0.2-0.2,0.4-0.3,0.6-0.4l1.5-0.5C70,4.3,52.4,3.8,52.2,3.8C52.1,3.8,34.5,4.3,33.9,23.2z M37.1,19.9
	c-0.3-0.7,0.1-1.5,0.8-1.8c2-0.7,4-1.2,6-1.6c-0.3-1.1-0.6-2.2-0.9-3.3c-0.1-0.4,0-0.7,0.1-1.1c0.2-0.3,0.5-0.5,0.9-0.6
	c5.5-1.4,11.1-1.4,16.6,0c0.4,0.1,0.7,0.3,0.9,0.6c0.2,0.3,0.2,0.7,0.1,1.1c-0.3,1.1-0.6,2.2-0.9,3.3c2,0.4,4,0.9,6,1.6
	c0.7,0.3,1.1,1.1,0.8,1.8c-0.2,0.6-0.7,0.9-1.3,0.9c-0.2,0-0.3,0-0.5-0.1c-8.6-3.1-18.2-3.1-26.8,0C38.1,21,37.3,20.6,37.1,19.9z
	 M46.6,16c3.7-0.5,7.5-0.5,11.2,0c0.2-0.7,0.4-1.5,0.6-2.2c-4.1-0.8-8.3-0.8-12.5,0C46.2,14.6,46.4,15.3,46.6,16z M97.9,45.6v7.1
	c0,0.7-0.4,1.4-1,1.8l-5.1,2.9v17.4c0,0,0,0.1,0,0.1c1.7,0.2,3,0.8,3.9,1.7c1.7,1.7,1.6,4,1.6,6.1l0,9.6c0,4.2-3.4,7.6-7.6,7.6
	c-4.2,0-7.6-3.4-7.6-7.6l0-9.6c0-2.1,0-4.4,1.6-6.1c0.9-0.9,2.2-1.5,3.9-1.7c0,0,0-0.1,0-0.1v-2.1c-1.4-4.8-4.3-9.3-8.2-12.8
	l-3.8,10.9V100H52.3H28.9V70.8l-4-11.3C19.5,64,15.9,70,15.2,76.4c0.1,0.1,0.3,0.2,0.4,0.3c1.7,1.7,1.6,4,1.6,6.1l0,9.6
	c0,4.2-3.4,7.6-7.6,7.6s-7.6-3.4-7.6-7.6l0-9.6c0-2.1,0-4.4,1.6-6.1c0.6-0.6,1.5-1.1,2.5-1.4v-7.3c0-0.8,0.6-1.4,1.4-1.4h1V53.2
	c0-0.6,0.5-1,1-1c0.6,0,1,0.5,1,1v13.4h1c0.8,0,1.4,0.6,1.4,1.4v4.8c1.6-6.1,5.5-11.7,11-15.9l-0.4-1.2c-0.3-0.7,0.1-1.5,0.8-1.8
	c0.7-0.3,1.5,0.1,1.8,0.8l0.1,0.4c1.9-1.2,3.9-2.3,6.1-3.2c0.4-0.1,0.8-0.1,1.1,0c0.3,0.2,0.6,0.5,0.7,0.8
	c2.4,7.2,9.4,11.8,17.9,11.8c8.4,0,15.4-4.6,17.9-11.8c0.1-0.4,0.4-0.7,0.7-0.8c0.3-0.2,0.7-0.2,1.1,0c2.2,0.9,4.3,2.1,6.3,3.5
	l0.2-0.7c0.3-0.7,1-1.1,1.8-0.8c0.7,0.3,1.1,1,0.8,1.8l-0.5,1.5c2.9,2.5,5.4,5.4,7.2,8.7v-8.3l-5.1-2.9c-0.6-0.4-1-1.1-1-1.8v-7.1
	c0-1.1,0.9-2.1,2.1-2.1c1.1,0,2.1,0.9,2.1,2.1v5.9l4.1,2.3l4.1-2.3v-5.9c0-1.1,0.9-2.1,2.1-2.1C97,43.6,97.9,44.5,97.9,45.6z
	 M9,73.9h1.3v-4.6H9V73.9z M14,94.3h-2.8c-0.8,0-1.4-0.6-1.4-1.4s0.6-1.4,1.4-1.4h3.2v-2.3h-3.2c-0.8,0-1.4-0.6-1.4-1.4
	c0-0.8,0.6-1.4,1.4-1.4h3.2v-2.5h-3.2c-0.8,0-1.4-0.6-1.4-1.4c0-0.8,0.6-1.4,1.4-1.4h3.2c-0.1-1-0.2-1.9-0.8-2.5c-0.7-0.7-2-1-4-1
	s-3.3,0.3-4,1c-0.8,0.8-0.8,2.4-0.8,4.1l0,9.6c0,2.6,2.1,4.8,4.8,4.8C11.6,97.1,13.2,96,14,94.3z M33.2,73.9c0-0.5-0.4-0.9-0.9-0.9
	c-0.5,0-0.9,0.4-0.9,0.9s0.4,0.9,0.9,0.9C32.8,74.8,33.2,74.4,33.2,73.9z M64.8,87.4c0-0.8-0.6-1.4-1.4-1.4H41.1
	c-0.8,0-1.4,0.6-1.4,1.4c0,0.8,0.6,1.4,1.4,1.4h22.2C64.2,88.7,64.8,88.1,64.8,87.4z M52.3,74.8c0.5,0,0.9-0.4,0.9-0.9
	S52.8,73,52.3,73s-0.9,0.4-0.9,0.9S51.8,74.8,52.3,74.8z M73.1,73.9c0-0.5-0.4-0.9-0.9-0.9s-0.9,0.4-0.9,0.9s0.4,0.9,0.9,0.9
	S73.1,74.4,73.1,73.9z M77.1,58.1c-1.6-1.2-3.3-2.2-5.1-3c-3.2,7.5-10.9,12.3-19.9,12.3S35.4,62.5,32.2,55c-1.7,0.8-3.3,1.7-4.9,2.8
	l4.5,12.7h20.5h20.5L77.1,58.1z M93.7,78.6c-0.7-0.7-2-1-4-1c-1.9,0-3.3,0.3-4,1c-0.6,0.6-0.7,1.5-0.8,2.5h3.2
	c0.8,0,1.4,0.6,1.4,1.4c0,0.8-0.6,1.4-1.4,1.4h-3.2v2.5h3.2c0.8,0,1.4,0.6,1.4,1.4c0,0.8-0.6,1.4-1.4,1.4h-3.2v2.3h3.2
	c0.8,0,1.4,0.6,1.4,1.4s-0.6,1.4-1.4,1.4h-2.8c0.7,1.7,2.4,2.8,4.4,2.8c2.6,0,4.8-2.1,4.8-4.8l0-9.6C94.5,81,94.5,79.5,93.7,78.6z
	 M53.1,35v6.9H50c-0.8,0-1.4,0.6-1.4,1.4c0,0.8,0.6,1.4,1.4,1.4h4.5c0.8,0,1.4-0.6,1.4-1.4V35c0-0.8-0.6-1.4-1.4-1.4
	C53.7,33.6,53.1,34.2,53.1,35z"/>
</svg>
