<?xml version="1.0" encoding="utf-8"?>
<!-- Generator: Adobe Illustrator 19.2.1, SVG Export Plug-In . SVG Version: 6.00 Build 0)  -->
<svg version="1.1" id="Layer_1" xmlns="http://www.w3.org/2000/svg" xmlns:xlink="http://www.w3.org/1999/xlink" x="0px" y="0px"
	 viewBox="0 0 100 100" style="enable-background:new 0 0 100 100;" xml:space="preserve">
<g transform="translate(0 -540.36)">
	<g>
		<g>
			<path d="M81.4,621.5c-2.4,0-4.7,0.9-6.5,2.7c-1.7,1.7-2.7,4-2.7,6.4s0.9,4.7,2.7,6.4c1.8,1.7,4,2.7,6.5,2.7c5,0,9-4.1,9-9.1
				S86.4,621.5,81.4,621.5z M81.4,635.6c-2.8,0-5.1-2.3-5.1-5c0-2.7,2.3-5,5.1-5c2.7,0,5,2.3,5,5S84.2,635.6,81.4,635.6z"/>
			<path d="M83.8,591.3c-0.4-0.3-0.8-0.5-1.4-0.5H72.1c-1.1,0-2,0.9-2,2v16.5c0,1.1,0.9,2,2,2h16.4c1.1,0,2-0.9,2-2v-11.1
				c0-0.6-0.2-1.1-0.7-1.5L83.8,591.3z M86.5,607.3H74.1v-12.5h7.5l4.8,4.4V607.3z"/>
			<path d="M32.2,621.5c-2.4,0-4.7,0.9-6.5,2.7c-1.7,1.7-2.7,4-2.7,6.4s0.9,4.7,2.7,6.4c1.8,1.7,4,2.7,6.5,2.7c5,0,9-4.1,9-9.1
				S37.2,621.5,32.2,621.5z M32.2,635.6c-2.8,0-5.1-2.3-5.1-5c0-2.7,2.3-5,5.1-5c2.7,0,5,2.3,5,5S35,635.6,32.2,635.6z"/>
			<path d="M18.8,624h-4.1v-5.4c0-1.1-0.9-2-2-2s-2,0.9-2,2v7.4c0,1.1,0.9,2,2,2h6.1c1.1,0,2-0.9,2-2C20.8,624.9,19.9,624,18.8,624z
				"/>
			<path d="M29,613c0-1.1-0.9-2-2-2H2.5c-1.1,0-2,0.9-2,2c0,1.1,0.9,2,2,2H27C28.1,615,29,614.1,29,613z"/>
			<path d="M6.6,605.7l24.5,0.1c1.1,0,2-0.9,2-2c0-1.1-0.9-2-2-2l-24.5-0.1c0,0,0,0,0,0c-1.1,0-2,0.9-2,2
				C4.6,604.8,5.5,605.7,6.6,605.7z"/>
			<path d="M10.7,596.6h24.5c1.1,0,2-0.9,2-2c0-1.1-0.9-2-2-2H10.7c-1.1,0-2,0.9-2,2C8.7,595.7,9.6,596.6,10.7,596.6z"/>
			<path d="M98.8,593.9L98.8,593.9l-14.4-12c-0.4-0.3-0.8-0.5-1.3-0.5h-17v-7.3c0-1.1-0.9-2-2-2H12.7c-1.1,0-2,0.9-2,2v14.8
				c0,1.1,0.9,2,2,2s2-0.9,2-2v-12.7H62V624H45.5c-1.1,0-2,0.9-2,2c0,1.1,0.9,2,2,2h24.6c1.1,0,2-0.9,2-2c0-1.1-0.9-2-2-2h-4.1
				v-38.5h16.2l13.1,10.9L95.3,624h-2.1c-1.1,0-2,0.9-2,2c0,1.1,0.9,2,2,2h4.1c1.1,0,2-0.9,2-2l0.2-30.6
				C99.5,594.8,99.2,594.3,98.8,593.9z"/>
		</g>
	</g>
</g>
</svg>
