<?xml version="1.0" encoding="utf-8"?>
<!-- Generator: Adobe Illustrator 19.2.1, SVG Export Plug-In . SVG Version: 6.00 Build 0)  -->
<svg version="1.1" id="Layer_1" xmlns="http://www.w3.org/2000/svg" xmlns:xlink="http://www.w3.org/1999/xlink" x="0px" y="0px"
	 viewBox="0 0 100 100" style="enable-background:new 0 0 100 100;" xml:space="preserve">
<style type="text/css">
	.st0{fill:none;stroke:#000000;stroke-miterlimit:10;}
</style>
<g>
	<path d="M5.3,82.5h42.9v12.4H29.6c-1,0-1.8,0.7-1.8,1.6c0,0.9,0.8,1.6,1.8,1.6h40.8c1,0,1.8-0.7,1.8-1.6c0-0.9-0.8-1.6-1.8-1.6
		H51.8V82.5h42.9c2.6,0,4.8-2,4.8-4.3V26.9c0-2.3-2.2-4.3-4.8-4.3H74.3c-16.7,1-33.4,2.1-50.2,3.3c23.5,0,47,0,70.6,0.1
		c0.7,0,1.2,0.5,1.2,1v51.2c0,0.6-0.5,1-1.2,1H5.3c-0.7,0-1.2-0.5-1.2-1V26.9c0-0.6,0.5-1,1.2-1h20.5c16-1,47.9-3.1,48.1-3.1
		c0.3,0-45.8-0.1-68.6-0.1c-2.6,0-4.8,2-4.8,4.3v51.2C0.5,80.6,2.6,82.5,5.3,82.5z"/>
	<path d="M47.2,17.3h8.5c0.8,0,1.3-0.6,1.3-1.3v-5.5c0-0.8-0.6-1.3-1.3-1.3h-0.2v-2c0-2.3-1.8-4.1-4.1-4.1s-4.1,1.8-4.1,4.1v2h-0.2
		c-0.8,0-1.3,0.6-1.3,1.3v5.5C45.9,16.7,46.5,17.3,47.2,17.3z M48.4,7.1c0-1.7,1.3-3,3-3s3,1.3,3,3v2h-6.1V7.1L48.4,7.1z M46.9,10.4
		c0-0.2,0.1-0.3,0.3-0.3h8.5c0.2,0,0.3,0.1,0.3,0.3v5.5c0,0.2-0.1,0.3-0.3,0.3h-8.5c-0.2,0-0.3-0.1-0.3-0.3L46.9,10.4L46.9,10.4z"/>
	<path d="M51,13.3c0.1,0,0.1,0.1,0.1,0.2c0,0.3,0,0.7,0,1l0,0c0,0.3,0.3,0.5,0.6,0.3c0.1-0.1,0.2-0.2,0.2-0.3l0,0c0-0.3,0-0.7,0-1
		c0-0.1,0-0.1,0.1-0.2c0.2-0.2,0.3-0.4,0.3-0.6c0-0.4-0.3-0.7-0.6-0.8c-0.3-0.1-0.7,0.1-0.9,0.5C50.6,12.7,50.7,13.1,51,13.3z"/>
	<g>
		<path d="M44,59c0.1,0.8,0.8,1.4,1.5,1.4h0.1c0.8-0.1,1.5-0.8,1.4-1.8l-0.7-7c-0.1-0.8-0.8-1.5-1.8-1.4c-0.8,0.1-1.5,0.8-1.4,1.8
			L44,59z"/>
		<path d="M53.9,60.4H54c0.8,0,1.5-0.6,1.5-1.4l0.7-7c0.1-0.8-0.6-1.6-1.4-1.8c-0.8-0.1-1.6,0.6-1.8,1.4l-0.7,7
			C52.4,59.6,53,60.3,53.9,60.4z"/>
		<path d="M41.6,67.3c-2.7,0-4.9,2.2-4.9,4.9c0,2.7,2.2,4.9,4.9,4.9c2.7,0,4.9-2.2,4.9-4.9C46.5,69.4,44.3,67.3,41.6,67.3z
			 M41.6,73.9c-0.9,0-1.8-0.8-1.8-1.8s0.8-1.8,1.8-1.8c0.9,0,1.8,0.8,1.8,1.8C43.4,73.2,42.6,73.9,41.6,73.9z"/>
		<path d="M57.9,67.3c-2.7,0-4.9,2.2-4.9,4.9c0,2.7,2.2,4.9,4.9,4.9c2.7,0,4.9-2.2,4.9-4.9C62.8,69.4,60.7,67.3,57.9,67.3z
			 M57.9,73.9c-0.9,0-1.8-0.8-1.8-1.8s0.8-1.8,1.8-1.8c0.9,0,1.8,0.8,1.8,1.8C59.6,73.2,58.9,73.9,57.9,73.9z"/>
		<path d="M67.3,45c-0.4-0.4-0.7-0.6-1.3-0.6H34.6l-1.3-5c-0.2-0.7-0.8-1.2-1.5-1.2h-6.4c-0.8,0-1.6,0.7-1.6,1.5
			c0,0.8,0.7,1.5,1.6,1.5h5.3l1.3,5v0.1l4.9,18.7c0.2,0.7,0.8,1.2,1.5,1.2h22.9c0.7,0,1.4-0.5,1.5-1.2l4.9-18.8
			C67.8,45.8,67.7,45.4,67.3,45z M60,63.1H39.5l-4.1-15.7h28.6L60,63.1z"/>
		<path d="M43.3,35.5h9.2L50,38c-0.6,0.6-0.6,1.6,0,2.2c0.4,0.4,0.7,0.5,1.2,0.5c0.4,0,0.8-0.1,1.2-0.5l5.1-5.1
			c0.6-0.6,0.6-1.6,0-2.2l-5.1-5.1c-0.6-0.6-1.6-0.6-2.2,0c-0.6,0.6-0.6,1.6,0,2.2l2.5,2.5h-9.2l0,0c-0.8,0-1.6,0.7-1.6,1.5
			C41.6,34.8,42.4,35.5,43.3,35.5z"/>
	</g>
	<circle class="st0" cx="51.4" cy="10.6" r="9.5"/>
	<line class="st0" x1="51.3" y1="19.9" x2="51.3" y2="24.7"/>
</g>
</svg>
