<?xml version="1.0" encoding="utf-8"?>
<!-- Generator: Adobe Illustrator 19.2.1, SVG Export Plug-In . SVG Version: 6.00 Build 0)  -->
<svg version="1.1" id="Layer_1" xmlns="http://www.w3.org/2000/svg" xmlns:xlink="http://www.w3.org/1999/xlink" x="0px" y="0px"
	 viewBox="0 0 100 100" enable-background="new 0 0 100 100" xml:space="preserve">
<g>
	<g>
		<g>
			<path fill="#010202" d="M9.3,14.8c-0.2-0.3-0.5-0.6-0.8-0.7l0,0C8.1,14,7.7,14,7.4,14.2l-0.4,0.2c-0.3,0.2-0.6,0.5-0.7,0.8
				c-0.1,0.4-0.1,0.8,0.1,1.1l1.5,3c0.2,0.3,0.5,0.6,0.8,0.7c0,0,0,0,0,0c0.4,0.1,0.8,0.1,1.1-0.1l0.4-0.2c0.7-0.4,1-1.2,0.6-1.9
				L9.3,14.8z M9.7,18.9l-0.4,0.2c-0.1,0.1-0.2,0.1-0.4,0l0,0c-0.1,0-0.2-0.1-0.3-0.2l-1.5-3l0,0c-0.1-0.1-0.1-0.2,0-0.4
				c0-0.1,0.1-0.2,0.2-0.3L7.8,15C7.9,15,8,15,8.2,15c0.1,0,0.2,0.1,0.3,0.2l1.5,3c0.1,0.1,0.1,0.2,0,0.4
				C9.9,18.7,9.8,18.8,9.7,18.9z"/>
			<path fill="#010202" d="M17,11c-0.4-0.7-1.2-1-1.9-0.6l-0.4,0.2c-0.7,0.4-1,1.2-0.6,1.9l1.5,3c0.2,0.4,0.5,0.6,0.8,0.7
				c0.4,0.1,0.7,0.1,1.1-0.1l0.4-0.2c0.3-0.2,0.6-0.5,0.7-0.8c0.1-0.4,0.1-0.8-0.1-1.1L17,11z M17.4,15L17,15.2
				c-0.2,0.1-0.5,0-0.6-0.2l-1.5-3c-0.1-0.2,0-0.5,0.2-0.6l0.4-0.2c0.1-0.1,0.3-0.1,0.4,0c0.1,0,0.2,0.1,0.3,0.2l1.5,3
				c0.1,0.1,0.1,0.2,0,0.4C17.6,14.9,17.5,15,17.4,15z"/>
			<path fill="#010202" d="M24.8,7.1c-0.2-0.3-0.5-0.6-0.8-0.7l0,0c-0.4-0.1-0.8-0.1-1.1,0.1l-0.4,0.2c-0.3,0.2-0.6,0.5-0.7,0.8
				c-0.1,0.4-0.1,0.8,0.1,1.1l1.5,3c0.2,0.3,0.5,0.6,0.8,0.7l0,0c0.4,0.1,0.8,0.1,1.1-0.1l0.4-0.2c0.7-0.4,1-1.2,0.6-1.9L24.8,7.1z
				 M25.2,11.2l-0.4,0.2c-0.1,0.1-0.2,0.1-0.4,0c-0.1,0-0.2-0.1-0.3-0.2l-1.5-3l0,0c-0.1-0.1-0.1-0.2,0-0.4c0-0.1,0.1-0.2,0.2-0.3
				l0.4-0.2c0.1-0.1,0.2-0.1,0.4,0c0.1,0,0.2,0.1,0.3,0.2l1.5,3c0.1,0.1,0.1,0.2,0,0.4S25.3,11.1,25.2,11.2z"/>
			<path fill="#010202" d="M13.2,12.9c-0.4-0.7-1.2-1-1.9-0.6l-0.4,0.2c-0.7,0.4-1,1.2-0.6,1.9l1.5,3c0.2,0.4,0.5,0.6,0.8,0.7
				c0.4,0.1,0.7,0.1,1.1-0.1l0.4-0.2c0.3-0.2,0.6-0.5,0.7-0.8c0.1-0.4,0.1-0.8-0.1-1.1L13.2,12.9z M13.6,16.9l-0.4,0.2
				c-0.2,0.1-0.5,0-0.6-0.2L11,14c-0.1-0.2,0-0.5,0.2-0.6l0.4-0.2c0.1-0.1,0.2-0.1,0.4,0c0.1,0,0.2,0.1,0.3,0.2l1.5,3
				c0.1,0.1,0.1,0.2,0,0.4C13.8,16.8,13.7,16.9,13.6,16.9z"/>
			<path fill="#010202" d="M20.9,9c-0.4-0.7-1.2-1-1.9-0.6l-0.4,0.2c-0.3,0.2-0.6,0.5-0.7,0.8c-0.1,0.4-0.1,0.8,0.1,1.1l1.5,3
				c0.2,0.4,0.5,0.6,0.8,0.7c0.4,0.1,0.7,0.1,1.1-0.1l0.4-0.2c0.3-0.2,0.6-0.5,0.7-0.8c0.1-0.4,0.1-0.8-0.1-1.1L20.9,9z M21.3,13.1
				l-0.4,0.2c-0.1,0.1-0.2,0.1-0.4,0l0,0c-0.1,0-0.2-0.1-0.3-0.2l-1.5-3c-0.1-0.1-0.1-0.2,0-0.4c0-0.1,0.1-0.2,0.2-0.3l0.4-0.2
				c0.1-0.1,0.2-0.1,0.4,0l0,0c0.1,0,0.2,0.1,0.3,0.2l1.5,3c0.1,0.1,0.1,0.2,0,0.4C21.5,12.9,21.4,13,21.3,13.1z"/>
			<path fill="#010202" d="M28.6,5.2c-0.2-0.3-0.5-0.6-0.8-0.7l0,0c-0.4-0.1-0.8-0.1-1.1,0.1l-0.4,0.2c-0.7,0.4-1,1.2-0.6,1.9l1.5,3
				c0.2,0.4,0.5,0.6,0.8,0.7c0.4,0.1,0.7,0.1,1.1-0.1l0.4-0.2c0.3-0.2,0.6-0.5,0.7-0.8c0.1-0.4,0.1-0.8-0.1-1.1L28.6,5.2z M29,9.2
				l-0.4,0.2c-0.2,0.1-0.5,0-0.6-0.2l-1.5-3c-0.1-0.2,0-0.5,0.2-0.6l0.4-0.2c0.1-0.1,0.2-0.1,0.4,0c0.1,0,0.2,0.1,0.3,0.2l1.5,3
				c0.1,0.1,0.1,0.2,0,0.4C29.2,9.1,29.2,9.2,29,9.2z"/>
			<path fill="#010202" d="M33.3,11.4l0.9-0.4l-0.6-1.3l0,0l-4.1-8.2L2.8,14.8l3.5,7.1l1.2,2.4l0.9-0.4l-0.6-1.3l0.9-0.4l0.6,1.3
				l0.9-0.4l-0.6-1.3l0.9-0.4l0.6,1.3l0.9-0.4l-0.6-1.3l0.9-0.4l0.6,1.3l0.9-0.4l-0.6-1.3l0.9-0.4l0.6,1.3l0.9-0.4l-0.6-1.3l0.9-0.4
				l0.6,1.3l0.9-0.4l-0.6-1.3l0.9-0.4l0.6,1.3l0.9-0.4l-0.6-1.3l0.9-0.4l0.6,1.3l2.6-1.3l-0.6-1.3l0.9-0.4l0.6,1.3l0.9-0.4l-0.6-1.3
				l0.9-0.4l0.6,1.3l0.9-0.4L25,14l0.9-0.4l0.6,1.3l0.9-0.4l-0.6-1.3l0.9-0.4l0.6,1.3l0.9-0.4l-0.6-1.3l0.9-0.4l0.6,1.3l0.9-0.4
				l-0.6-1.3L31,11l0.6,1.3l0.9-0.4l-0.6-1.3l0.9-0.4L33.3,11.4z M20,17l-0.2-0.4l0.9-0.4l0.2,0.4L20,17z M21.1,14.8l-2.6,1.3
				L7.3,21.7l-3.2-6.4L29,2.8L32.2,9l0,0l0.1,0.2L21.1,14.8z"/>
		</g>
	</g>
</g>
<g>
	<path fill="#010202" d="M37,54.9c0.4-0.1,0.6-0.4,0.5-0.8c-0.1-0.4-0.4-0.6-0.8-0.5l0,0c-0.4,0.1-0.6,0.4-0.5,0.8
		C36.3,54.7,36.6,54.9,37,54.9z"/>
	<path fill="#010202" d="M8.1,60.8c-0.1-0.4-0.4-0.6-0.8-0.5l0,0c-0.4,0.1-0.6,0.4-0.5,0.8s0.4,0.6,0.8,0.5S8.1,61.1,8.1,60.8z"/>
	<path fill="#010202" d="M37.1,49.5l-32,7.3c-1.6,0.4-2.8,2.3-2.5,3.9L9.3,90c0.1,0.4,0.4,0.6,0.8,0.5s0.6-0.4,0.5-0.8L3.9,60.4
		c-0.2-0.9,0.6-2.1,1.5-2.4l32-7.3c0.9-0.2,2.1,0.6,2.4,1.5l7.3,32c0.2,0.9-0.6,2.1-1.5,2.4l-32,7.3c-0.9,0.2-2.1-0.6-2.4-1.5
		c-0.1-0.4-0.4-0.6-0.8-0.5s-0.6,0.4-0.5,0.8c0.4,1.6,2.3,2.8,3.9,2.5l32-7.3c1.6-0.4,2.8-2.3,2.5-3.9l-7.3-32
		C40.6,50.3,38.7,49.1,37.1,49.5z"/>
	<path fill="#010202" d="M43.6,84.3c0.4-0.1,0.6-0.4,0.5-0.8c-0.1-0.4-0.4-0.6-0.8-0.5l0,0c-0.4,0.1-0.6,0.4-0.5,0.8
		C42.9,84.1,43.3,84.3,43.6,84.3z"/>
	<path fill="#010202" d="M13.9,89.7c-0.4,0.1-0.6,0.4-0.5,0.8c0.1,0.4,0.4,0.6,0.8,0.5s0.6-0.4,0.5-0.8
		C14.7,89.8,14.3,89.6,13.9,89.7L13.9,89.7z"/>
	<path fill="#010202" d="M21.9,74.8c0.4,0,0.7-0.2,0.8-0.5c0,0,0.9-2.3,3.7-3c1.7-0.4,2.7,0.2,3.2,0.6c-0.7,0.8-1.7,2.3-1.2,4.7
		c0.4,1.6,1.2,2.7,1.9,3.4c-2.7-0.1-5.3-1.5-6.7-3.9c-0.2-0.4-0.7-0.5-1.1-0.3c-0.4,0.2-0.5,0.7-0.3,1.1c2.2,3.6,6.5,5.3,10.7,4.4
		c0.4-0.1,0.6-0.4,0.6-0.7c0-0.4-0.2-0.7-0.5-0.8c0,0-2.4-0.9-3-3.6c-0.4-1.6,0.2-2.6,0.6-3.1c0.8,0.7,2.3,1.6,4.8,1.1
		c1.6-0.4,2.7-1.2,3.5-1.9c-0.1,2.7-1.6,5.2-4,6.6c-0.4,0.2-0.5,0.7-0.3,1.1c0.2,0.3,0.6,0.4,0.9,0.4c0.1,0,0.2-0.1,0.2-0.1
		c3.7-2.2,5.5-6.4,4.6-10.5c-0.1-0.3-0.4-0.6-0.7-0.6c-0.4,0-0.7,0.2-0.8,0.5c0,0-0.9,2.3-3.7,3C33.5,73,32.5,72.5,32,72
		c0.7-0.8,1.7-2.3,1.2-4.7c-0.4-1.6-1.2-2.7-1.9-3.4c2.7,0.1,5.3,1.5,6.7,3.9c0.2,0.4,0.7,0.5,1.1,0.3c0.4-0.2,0.5-0.7,0.3-1.1
		c-2.2-3.6-6.5-5.3-10.7-4.4c-0.4,0.1-0.6,0.4-0.6,0.7c0,0.4,0.2,0.7,0.5,0.8c0,0,2.4,0.9,3,3.6c0.4,1.6-0.2,2.6-0.6,3.1
		c-0.8-0.7-2.3-1.6-4.8-1.1c-1.6,0.4-2.7,1.2-3.5,1.9c0.1-2.7,1.6-5.2,4-6.6c0.4-0.2,0.5-0.7,0.3-1.1c-0.2-0.4-0.7-0.5-1.1-0.3
		c-3.7,2.2-5.5,6.4-4.6,10.5C21.2,74.5,21.5,74.8,21.9,74.8z"/>
</g>
<g>
	<g>
		
			<ellipse transform="matrix(0.2556 -0.9668 0.9668 0.2556 24.8188 64.534)" fill="#010202" cx="54.3" cy="16.2" rx="0.6" ry="0.6"/>
		
			<ellipse transform="matrix(0.2556 -0.9668 0.9668 0.2556 22.7939 65.3846)" fill="#010202" cx="53.9" cy="17.9" rx="0.6" ry="0.6"/>
		
			<ellipse transform="matrix(0.2556 -0.9668 0.9668 0.2556 20.769 66.2353)" fill="#010202" cx="53.4" cy="19.6" rx="0.6" ry="0.6"/>
		
			<ellipse transform="matrix(0.2556 -0.9668 0.9668 0.2556 30.8935 61.9821)" fill="#010202" cx="55.7" cy="10.9" rx="0.6" ry="0.6"/>
		
			<ellipse transform="matrix(0.2556 -0.9668 0.9668 0.2556 28.6929 60.5243)" fill="#010202" cx="53.6" cy="11.6" rx="0.6" ry="0.6"/>
		<ellipse transform="matrix(0.2556 -0.9668 0.9668 0.2556 25.993 61.6585)" fill="#010202" cx="53" cy="14" rx="0.6" ry="0.6"/>
		
			<ellipse transform="matrix(0.2556 -0.9668 0.9668 0.2556 37.4828 81.4481)" fill="#010202" cx="71.6" cy="16.4" rx="0.6" ry="0.6"/>
		
			<ellipse transform="matrix(0.2556 -0.9668 0.9668 0.2556 32.7581 83.4329)" fill="#010202" cx="70.6" cy="20.4" rx="0.6" ry="0.6"/>
		
			<ellipse transform="matrix(0.2556 -0.9668 0.9668 0.2556 12.8174 62.429)" fill="#010202" cx="46.9" cy="22.9" rx="0.6" ry="0.6"/>
		
			<ellipse transform="matrix(0.2556 -0.9668 0.9668 0.2556 11.9668 60.4041)" fill="#010202" cx="45.2" cy="22.4" rx="0.6" ry="0.6"/>
		<ellipse transform="matrix(0.2556 -0.9668 0.9668 0.2556 11.1161 58.3792)" fill="#010202" cx="43.5" cy="22" rx="0.6" ry="0.6"/>
		
			<ellipse transform="matrix(0.2556 -0.9668 0.9668 0.2556 16.6638 48.902)" fill="#010202" cx="40.1" cy="13.6" rx="0.6" ry="0.6"/>
		
			<ellipse transform="matrix(0.2556 -0.9668 0.9668 0.2556 14.6389 49.7526)" fill="#010202" cx="39.6" cy="15.4" rx="0.6" ry="0.6"/>
		
			<ellipse transform="matrix(0.2556 -0.9668 0.9668 0.2556 12.614 50.6033)" fill="#010202" cx="39.2" cy="17.1" rx="0.6" ry="0.6"/>
		
			<ellipse transform="matrix(0.2556 -0.9668 0.9668 0.2556 28.8686 62.8327)" fill="#010202" cx="55.2" cy="12.7" rx="0.6" ry="0.6"/>
		
			<ellipse transform="matrix(0.2556 -0.9668 0.9668 0.2556 26.8437 63.6834)" fill="#010202" cx="54.8" cy="14.4" rx="0.6" ry="0.6"/>
		<path fill="#010202" d="M74.1,9.6L74.2,9c0.1-0.3-0.1-0.6-0.4-0.7S73.1,8.4,73,8.7l-0.2,0.6l-0.6-0.2l0.5-1.7l-2.3-0.6l-1.2-0.3
			l-1.2-0.3L67,5.8l-1.2-0.3l-1.2-0.3l-1.2-0.3l-1.2-0.3L60,4l-0.5,1.7L59,5.6L59.1,5c0.1-0.3-0.1-0.6-0.4-0.7
			C58.4,4.2,58,4.4,58,4.7l-0.2,0.6l-0.6-0.2l0.2-0.6c0.1-0.3-0.1-0.6-0.4-0.7c-0.3-0.1-0.6,0.1-0.7,0.4l-0.2,0.6l-2.3-0.6l-3.5-0.9
			L49.1,3l-3.5-0.9L41,0.8l-7.7,29L68.1,39l7.7-29L74.1,9.6z M70.1,7.9l1.2,0.3l-0.2,0.6L70,8.5L70.1,7.9z M67.8,7.3L69,7.6
			l-0.2,0.6l-1.2-0.3L67.8,7.3z M65.5,6.7L66.7,7l-0.2,0.6l-1.2-0.3L65.5,6.7z M63.2,6.1l1.2,0.3L64.2,7L63,6.7L63.2,6.1z M60.9,5.5
			L62,5.8l-0.2,0.6L60.7,6L60.9,5.5z M52.3,5.1l-3.2,12.2l-1.2-0.3l3.2-12.2L52.3,5.1z M47.6,3.8l-2.3,8.7l-1.2-0.3l2.3-8.7
			L47.6,3.8z M67.3,37.6L34.8,29l0.2-0.6l1.2,0.3c0.3,0.1,0.6-0.1,0.7-0.4c0.1-0.3-0.1-0.6-0.4-0.7l-1.2-0.3l0.2-0.6l1.2,0.3
			c0.3,0.1,0.6-0.1,0.7-0.4c0.1-0.3-0.1-0.6-0.4-0.7l-1.2-0.3l0.2-0.6l1.2,0.3c0.3,0.1,0.6-0.1,0.7-0.4c0.1-0.3-0.1-0.6-0.4-0.7
			l-1.2-0.3l0.2-0.6l1.2,0.3c0.3,0.1,0.6-0.1,0.7-0.4c0.1-0.3-0.1-0.6-0.4-0.7L36.6,22l0.2-0.6l1.2,0.3c0.3,0.1,0.6-0.1,0.7-0.4
			c0.1-0.3-0.1-0.6-0.4-0.7l-1.2-0.3l3.1-11.6L41.3,9C41.6,9.1,42,8.9,42,8.6s-0.1-0.6-0.4-0.7l-1.2-0.3l0.2-0.6l1.2,0.3
			c0.3,0.1,0.6-0.1,0.7-0.4c0.1-0.3-0.1-0.6-0.4-0.7l-1.2-0.3l0.2-0.6l1.2,0.3c0.3,0.1,0.6-0.1,0.7-0.4c0.1-0.3-0.1-0.6-0.4-0.7
			L41.4,4l0.5-1.7l3.5,0.9l-2.6,9.9l1.2,0.3L43.7,14c-0.1,0.3,0.1,0.6,0.4,0.7s0.6-0.1,0.7-0.4l0.2-0.6l1.2,0.3l2.6-9.9L50,4.4
			l-3.5,13.3l1.2,0.3l-0.2,0.6c-0.1,0.3,0.1,0.6,0.4,0.7c0.3,0.1,0.6-0.1,0.7-0.4l0.2-0.6l1.2,0.3l3.5-13.3l5.8,1.5l2.3,0.6l1.2,0.3
			l1.2,0.3L65,8.4l1.2,0.3L67.4,9l1.2,0.3l1.2,0.3l2.3,0.6l2.3,0.6L67.3,37.6z"/>
		<path fill="#010202" d="M59.2,18.7l1.2,0.3l-0.3,1.2l1.2,0.3l0.3-1.2l0.6,0.2l-0.3,1.2l1.2,0.3l0.3-1.2l0.6,0.2l-0.3,1.2l1.2,0.3
			l0.3-1.2l1.2,0.3l0.3-1.2l1.2,0.3l0.3-1.2l-1.2-0.3l0.2-0.6l1.2,0.3l0.3-1.2l-1.2-0.3l0.2-0.6l1.2,0.3l0.3-1.2l-1.2-0.3l0.3-1.2
			l-1.2-0.3l0.3-1.2L66,11.8L65.7,13l-0.6-0.2l0.3-1.2l-1.2-0.3L64,12.5l-0.6-0.2l0.3-1.2l-1.2-0.3L62.2,12l-1.2-0.3l-0.3,1.2
			l-1.2-0.3l-0.3,1.2l1.2,0.3l-0.2,0.6l-1.2-0.3l-0.3,1.2l1.2,0.3l-0.2,0.6l-1.2-0.3l-0.3,1.2l1.2,0.3L59.2,18.7z M61.9,13.2
			l4.6,1.2l-1.2,4.6l-4.6-1.2L61.9,13.2z"/>
		<path fill="#010202" d="M57.1,21.2l9.6,2.5c0.9,0.2,1.8-0.3,2-1.2l2.5-9.6c0.2-0.9-0.3-1.8-1.2-2l-9.6-2.5c-0.9-0.2-1.8,0.3-2,1.2
			L56,19.3C55.7,20.1,56.3,21,57.1,21.2z M59.7,9.9c0.1-0.2,0.3-0.4,0.5-0.3l9.6,2.5c0.2,0.1,0.4,0.3,0.3,0.5l-2.5,9.6
			c-0.1,0.2-0.3,0.4-0.5,0.3l-9.6-2.5c-0.2-0.1-0.4-0.3-0.3-0.5L59.7,9.9z"/>
		<path fill="#010202" d="M68,27.8c0.3,0.1,0.6-0.1,0.7-0.4c0.1-0.3-0.1-0.6-0.4-0.7l-0.6-0.2l0.3-1.2l-16.2-4.3l-0.3,1.2l-0.6-0.2
			c-0.3-0.1-0.6,0.1-0.7,0.4c-0.1,0.3,0.1,0.6,0.4,0.7l0.6,0.2l-0.3,1.2l-0.6-0.2c-0.3-0.1-0.6,0.1-0.7,0.4
			c-0.1,0.3,0.1,0.6,0.4,0.7l0.6,0.2l-0.3,1.2l-0.6-0.2c-0.3-0.1-0.6,0.1-0.7,0.4c-0.1,0.3,0.1,0.6,0.4,0.7l0.6,0.2l-0.3,1.2L49,29
			c-0.3-0.1-0.6,0.1-0.7,0.4c-0.1,0.3,0.1,0.6,0.4,0.7l0.6,0.2L49,31.5l16.2,4.3l0.3-1.2l0.6,0.2c0.3,0.1,0.6-0.1,0.7-0.4
			c0.1-0.3-0.1-0.6-0.4-0.7l-0.6-0.2l0.3-1.2l0.6,0.2c0.3,0.1,0.6-0.1,0.7-0.4c0.1-0.3-0.1-0.6-0.4-0.7l-0.6-0.2l0.3-1.2l0.6,0.2
			c0.3,0.1,0.6-0.1,0.7-0.4S68,29.1,67.7,29l-0.6-0.2l0.3-1.2L68,27.8z M66.2,27.4l-0.6-0.2l0.3-1.2l0.6,0.2L66.2,27.4z M65.6,29.7
			l-0.6-0.2l0.3-1.2l0.6,0.2L65.6,29.7z M65,32l-0.6-0.2l0.3-1.2l0.6,0.2L65,32z M52.8,28.8l0.3-1.2l10.4,2.8l-0.3,1.2L52.8,28.8z
			 M63,32.7l-0.3,1.2l-10.4-2.8l0.3-1.2L63,32.7z M51.4,27.2l0.6,0.2l-0.3,1.2l-0.6-0.2L51.4,27.2z M52,24.9l0.6,0.2l-0.3,1.2
			L51.7,26L52,24.9z M64.2,28.1l-0.3,1.2l-10.4-2.8l0.3-1.2L64.2,28.1z M54.1,24.2l0.3-1.2l10.4,2.8l-0.3,1.2L54.1,24.2z M52.6,22.5
			l0.6,0.2l-0.3,1.2l-0.6-0.2L52.6,22.5z M50.8,29.5l0.6,0.2l-0.3,1.2l-0.6-0.2L50.8,29.5z M64.4,34.3l-0.6-0.2l0.3-1.2l0.6,0.2
			L64.4,34.3z"/>
		<path fill="#010202" d="M47,27.3c0.3,0.1,0.6-0.1,0.7-0.4c0.1-0.3-0.1-0.6-0.4-0.7l-0.6-0.2l0.3-1.2l-4.6-1.2l-0.3,1.2l-0.6-0.2
			c-0.3-0.1-0.6,0.1-0.7,0.4c-0.1,0.3,0.1,0.6,0.4,0.7l0.6,0.2l-0.2,0.6l-0.6-0.2c-0.3-0.1-0.6,0.1-0.7,0.4s0.1,0.6,0.4,0.7l0.6,0.2
			L41,28.8l4.6,1.2l0.3-1.2l0.6,0.2c0.3,0.1,0.6-0.1,0.7-0.4c0.1-0.3-0.1-0.6-0.4-0.7l-0.6-0.2l0.2-0.6L47,27.3z M44.8,28.5
			l-2.3-0.6l0.8-2.9l2.3,0.6L44.8,28.5z"/>
		<path fill="#010202" d="M45.6,16.3l-4.1-1.1l-1.1,4.1l4.1,1.1L45.6,16.3z M43.7,18.9l-1.7-0.5l0.5-1.7l1.7,0.5L43.7,18.9z"/>
	</g>
</g>
<g>
	<path fill="#010202" d="M90.3,32l-16,3.3c-0.8,0.2-1.3,0.9-1.1,1.7l4.7,23c0.2,0.8,0.9,1.3,1.7,1.1l16-3.3c0.8-0.2,1.3-0.9,1.1-1.7
		l-4.7-23C91.8,32.4,91.1,31.9,90.3,32z M95.8,56.4c0.1,0.3-0.1,0.5-0.4,0.6l-16,3.3c-0.3,0.1-0.5-0.1-0.6-0.4l-4.7-23
		c-0.1-0.3,0.1-0.5,0.4-0.6l16-3.3c0.3-0.1,0.5,0.1,0.6,0.4L95.8,56.4z"/>
	<path fill="#010202" d="M79.8,48.9l-0.5,0.7c-0.1,0-0.2,0-0.2,0c-0.5,0.1-0.8,0.6-0.7,1.1c0.1,0.5,0.6,0.8,1.1,0.7s0.8-0.6,0.7-1.1
		c0-0.1,0-0.1-0.1-0.2l0.5-0.7c1.5,0.8,3.2,1.2,5,0.8c3.9-0.8,6.4-4.6,5.6-8.5s-4.6-6.4-8.5-5.6s-6.4,4.6-5.6,8.5
		C77.5,46.3,78.5,47.8,79.8,48.9z M82.9,37c3.4-0.7,6.7,1.5,7.4,4.9c0.7,3.4-1.5,6.7-4.9,7.4c-1.5,0.3-3,0-4.3-0.7l1.2-1.8
		c0.1-0.2,0.1-0.5-0.1-0.7C82,46,81.7,46,81.6,46.2l-1.2,1.8c-1.1-0.9-2-2.2-2.3-3.7C77.4,41,79.6,37.7,82.9,37z"/>
	<path fill="#010202" d="M84.7,45.5c1.3-0.3,2.1-1.5,1.9-2.8c0-0.2-0.1-0.4-0.2-0.6c-0.1-0.2-0.4-0.3-0.6-0.2
		c-0.2,0.1-0.3,0.4-0.2,0.6c0.1,0.1,0.1,0.2,0.1,0.4c0.2,0.8-0.3,1.5-1.1,1.7c-0.8,0.2-1.5-0.3-1.7-1.1c-0.2-0.8,0.3-1.5,1.1-1.7
		c0.1,0,0.3,0,0.4,0c0.3,0,0.5-0.2,0.5-0.4s-0.2-0.5-0.4-0.5c-0.2,0-0.4,0-0.7,0c-1.3,0.3-2.1,1.5-1.9,2.8
		C82.1,44.9,83.4,45.7,84.7,45.5z"/>
	<path fill="#010202" d="M79.3,54.9L93.4,52c0.3-0.1,0.4-0.3,0.4-0.6c-0.1-0.3-0.3-0.4-0.6-0.4L79.1,54c-0.3,0.1-0.4,0.3-0.4,0.6
		S79,54.9,79.3,54.9z"/>
	<path fill="#010202" d="M76.1,38.4c0.4-0.1,0.6-0.5,0.6-0.9s-0.5-0.6-0.9-0.6c-0.4,0.1-0.6,0.5-0.6,0.9
		C75.4,38.2,75.7,38.5,76.1,38.4z"/>
	<path fill="#010202" d="M89.5,34.2c-0.4,0.1-0.6,0.5-0.6,0.9c0.1,0.4,0.5,0.6,0.9,0.6c0.4-0.1,0.6-0.5,0.6-0.9S89.9,34.1,89.5,34.2
		z"/>
	<path fill="#010202" d="M80.1,57.6c-0.4,0.1-0.6,0.5-0.6,0.9c0.1,0.4,0.5,0.6,0.9,0.6c0.4-0.1,0.6-0.5,0.6-0.9S80.5,57.6,80.1,57.6
		z"/>
	<path fill="#010202" d="M93.8,54.8c-0.4,0.1-0.6,0.5-0.6,0.9s0.5,0.6,0.9,0.6c0.4-0.1,0.6-0.5,0.6-0.9C94.5,55,94.1,54.8,93.8,54.8
		z"/>
</g>
<path fill="#010202" d="M56.3,58.3l6.3,1.6l-6.4,25.3l-2.7-0.7l0.6-2.3l-1.1-0.3l1.6-6.5l1.1,0.3l1.2-4.7l-1.1-0.3l1.6-6.5l1.1,0.3
	l0.6-2.6l-3.6-0.9L56.3,58.3z M94.8,77.2l-3.6,14.3c-0.3,1.2-1.5,1.9-2.7,1.6l0,0l-0.5,2.2l-14-3.5l0.5-2.2l-1.3-0.3l-0.5,2.2
	l-14-3.5l0.5-2.2l-1.2-0.3l4.7-18.7l30.6,7.7C94.4,74.7,95.1,75.9,94.8,77.2z M60.9,86.1l-0.7-0.2l-0.4,1.6l0.7,0.2L60.9,86.1z
	 M62.3,86.4l-0.7-0.2l-0.4,1.6l0.7,0.2L62.3,86.4z M63.7,86.8L63,86.6l-0.4,1.6l0.7,0.2L63.7,86.8z M65.1,87.1l-0.7-0.2L64,88.5
	l0.7,0.2L65.1,87.1z M66.5,87.5l-0.7-0.2l-0.4,1.6l0.7,0.2L66.5,87.5z M67.9,87.8l-0.7-0.2l-0.4,1.6l0.7,0.2L67.9,87.8z M69.3,88.2
	L68.6,88l-0.4,1.6l0.7,0.2L69.3,88.2z M70.7,88.5L70,88.3l-0.4,1.6l0.7,0.2L70.7,88.5z M72.1,88.9l-0.7-0.2L71,90.3l0.7,0.2
	L72.1,88.9z M76.2,89.9l-0.7-0.2l-0.4,1.6l0.7,0.2L76.2,89.9z M77.6,90.3l-0.7-0.2l-0.4,1.6l0.7,0.2L77.6,90.3z M79,90.6l-0.7-0.2
	L77.9,92l0.7,0.2L79,90.6z M80.4,91l-0.7-0.2l-0.4,1.6l0.7,0.2L80.4,91z M81.8,91.3l-0.7-0.2l-0.4,1.6l0.7,0.2L81.8,91.3z
	 M83.2,91.7l-0.7-0.2l-0.4,1.6l0.7,0.2L83.2,91.7z M84.6,92l-0.7-0.2l-0.4,1.6l0.7,0.2L84.6,92z M86,92.4l-0.7-0.2l-0.4,1.6l0.7,0.2
	L86,92.4z M87.4,92.7l-0.7-0.2l-0.4,1.6l0.7,0.2L87.4,92.7z M90.2,84c0.8-3.4-1.2-6.8-4.6-7.6s-6.8,1.2-7.6,4.6
	c-0.8,3.4,1.2,6.8,4.6,7.6C86,89.4,89.4,87.4,90.2,84z M87.4,83.4c0.2,0,0.3-0.1,0.5-0.1c0.2,0,0.3-0.1,0.5-0.1
	c0.2,0,0.3-0.1,0.5-0.1c0,0,0,0,0,0c0.1-1.2-0.2-2.4-0.9-3.3c0,0,0,0,0,0c-0.1,0.1-0.2,0.1-0.2,0.2c-0.1,0.1-0.2,0.2-0.3,0.2
	c-0.1,0.1-0.2,0.2-0.3,0.3c-0.1,0.1-0.2,0.2-0.4,0.3c-0.1,0.1-0.3,0.2-0.4,0.3c0,0,0,0,0,0c0-0.1,0.1-0.2,0.1-0.3
	c0.1-0.2,0.1-0.3,0.1-0.5c0-0.2,0.1-0.3,0.1-0.5c0-0.2,0.1-0.3,0.1-0.5c0-0.2,0.1-0.3,0.1-0.5c0,0,0,0,0,0c-0.5-0.4-1-0.6-1.7-0.8
	c-0.6-0.1-1.1-0.2-1.7-0.1c0,0,0,0,0,0.1c0,0.1,0,0.2,0.1,0.3c0,0.1,0,0.2,0.1,0.4c0,0.1,0,0.3,0.1,0.4c0,0.2,0,0.3,0.1,0.5
	c0,0.2,0,0.3,0,0.5c0,0,0,0,0,0c-0.1-0.1-0.2-0.2-0.2-0.3c-0.1-0.1-0.2-0.3-0.4-0.4c-0.1-0.1-0.2-0.3-0.4-0.4
	c-0.1-0.1-0.2-0.2-0.4-0.4c-0.1-0.1-0.2-0.2-0.3-0.3c0,0,0,0,0,0c-1.1,0.5-1.9,1.3-2.4,2.4c0,0,0,0,0.1,0c0.1,0,0.2,0.1,0.3,0.1
	c0.1,0,0.2,0.1,0.4,0.1c0.1,0,0.3,0.1,0.4,0.2c0.1,0.1,0.3,0.1,0.4,0.2c0.1,0.1,0.3,0.1,0.4,0.2c0,0,0,0,0,0c-0.1,0-0.2,0.1-0.4,0.1
	c-0.2,0-0.3,0.1-0.5,0.1c-0.2,0-0.3,0.1-0.5,0.1c-0.2,0-0.3,0.1-0.5,0.1c-0.2,0-0.3,0.1-0.5,0.1c0,0,0,0,0,0
	c-0.1,1.2,0.2,2.4,0.9,3.3c0,0,0,0,0,0c0.1-0.1,0.2-0.1,0.2-0.2c0.1-0.1,0.2-0.2,0.3-0.2c0.1-0.1,0.2-0.2,0.3-0.3
	c0.1-0.1,0.2-0.2,0.4-0.3c0.1-0.1,0.3-0.2,0.4-0.3c0,0,0,0,0,0c0,0.1-0.1,0.2-0.1,0.3c-0.1,0.2-0.1,0.3-0.1,0.5
	c0,0.2-0.1,0.3-0.1,0.5c0,0.2-0.1,0.3-0.1,0.5c0,0.2-0.1,0.3-0.1,0.5c0,0,0,0,0,0c0.5,0.4,1,0.6,1.7,0.8c0.6,0.1,1.1,0.2,1.7,0.1
	c0,0,0,0,0-0.1c0-0.1,0-0.2-0.1-0.3c0-0.1,0-0.2-0.1-0.4c0-0.1,0-0.3-0.1-0.4c0-0.1,0-0.3-0.1-0.5c0-0.2,0-0.3,0-0.5c0,0,0,0,0,0
	c0.1,0.1,0.2,0.2,0.2,0.3c0.1,0.1,0.2,0.3,0.4,0.4c0.1,0.1,0.2,0.3,0.4,0.4c0.1,0.1,0.2,0.2,0.4,0.4c0.1,0.1,0.2,0.2,0.3,0.3
	c0,0,0,0,0,0c1.1-0.5,1.9-1.3,2.4-2.4c0,0,0,0-0.1,0c-0.1,0-0.2-0.1-0.3-0.1c-0.1,0-0.2-0.1-0.4-0.1c-0.1,0-0.3-0.1-0.4-0.2
	c-0.1-0.1-0.3-0.1-0.4-0.2c-0.1-0.1-0.3-0.1-0.4-0.2c0,0,0,0,0,0c0.1,0,0.2-0.1,0.4-0.1C87.1,83.5,87.2,83.4,87.4,83.4z"/>
<g>
	<path fill="#010202" d="M26.3,30.8c0.2-0.1,0.3-0.3,0.2-0.5S26.2,30,26,30.1l-1.1,0.4l-0.6-1.4l1.1-0.4c0.2-0.1,0.3-0.3,0.2-0.5
		c-0.1-0.2-0.3-0.3-0.5-0.2l-1.1,0.4l-0.3-0.7c-0.4-1-1.5-1.5-2.5-1.1l-0.7,0.3l-0.4-1.1c-0.1-0.2-0.3-0.3-0.5-0.2s-0.3,0.3-0.2,0.5
		l0.4,1.1l-1.4,0.6L18,26.7c-0.1-0.2-0.3-0.3-0.5-0.2c-0.2,0.1-0.3,0.3-0.2,0.5l0.4,1.1l-1.4,0.6l-0.4-1.1c-0.1-0.2-0.3-0.3-0.5-0.2
		c-0.2,0.1-0.3,0.3-0.2,0.5l0.4,1.1l-1.4,0.6l-0.4-1.1c-0.1-0.2-0.3-0.3-0.5-0.2c-0.2,0.1-0.3,0.3-0.2,0.5l0.4,1.1L12,30.3l-0.4-1.1
		c-0.1-0.2-0.3-0.3-0.5-0.2c-0.2,0.1-0.3,0.3-0.2,0.5l0.4,1.1l-1.4,0.6l-0.4-1.1c-0.1-0.2-0.3-0.3-0.5-0.2c-0.2,0.1-0.3,0.3-0.2,0.5
		l0.4,1.1l-0.7,0.3c-1,0.4-1.5,1.5-1.1,2.5L7.7,35l-1.1,0.4c-0.2,0.1-0.3,0.3-0.2,0.5s0.3,0.3,0.5,0.2L8,35.7l0.6,1.4l-1.1,0.4
		c-0.2,0.1-0.3,0.3-0.2,0.5c0.1,0.2,0.3,0.3,0.5,0.2l1.1-0.4l0.6,1.4l-1.1,0.4c-0.2,0.1-0.3,0.3-0.2,0.5c0.1,0.2,0.3,0.3,0.5,0.2
		L9.7,40l0.6,1.4l-1.1,0.4C9,41.9,8.9,42.1,9,42.3c0.1,0.2,0.3,0.3,0.5,0.2l1.1-0.4l0.6,1.4L10.1,44c-0.2,0.1-0.3,0.3-0.2,0.5
		c0.1,0.2,0.3,0.3,0.5,0.2l1.1-0.4l0.6,1.4L11,46.1c-0.2,0.1-0.3,0.3-0.2,0.5c0.1,0.2,0.3,0.3,0.5,0.2l1.1-0.4l0.3,0.7
		c0.4,1,1.5,1.5,2.5,1.1l0.7-0.3l0.4,1.1c0.1,0.2,0.3,0.3,0.5,0.2c0.2-0.1,0.3-0.3,0.2-0.5l-0.4-1.1L18,47l0.4,1.1
		c0.1,0.2,0.3,0.3,0.5,0.2s0.3-0.3,0.2-0.5l-0.4-1.1l1.4-0.6l0.4,1.1c0.1,0.2,0.3,0.3,0.5,0.2c0.2-0.1,0.3-0.3,0.2-0.5l-0.4-1.1
		l1.4-0.6l0.4,1.1c0.1,0.2,0.3,0.3,0.5,0.2s0.3-0.3,0.2-0.5L22.9,45l1.4-0.6l0.4,1.1c0.1,0.2,0.3,0.3,0.5,0.2
		c0.2-0.1,0.3-0.3,0.2-0.5l-0.4-1.1l1.4-0.6l0.4,1.1c0.1,0.2,0.3,0.3,0.5,0.2s0.3-0.3,0.2-0.5l-0.4-1.1l0.7-0.3
		c1-0.4,1.5-1.5,1.1-2.5l-0.3-0.7l1.1-0.4c0.2-0.1,0.3-0.3,0.2-0.5c-0.1-0.2-0.3-0.3-0.5-0.2L28.4,39l-0.6-1.4l1.1-0.4
		c0.2-0.1,0.3-0.3,0.2-0.5s-0.3-0.3-0.5-0.2l-1.1,0.4L27,35.5L28,35c0.2-0.1,0.3-0.3,0.2-0.5c-0.1-0.2-0.3-0.3-0.5-0.2l-1.1,0.4
		l-0.6-1.4l1.1-0.4c0.2-0.1,0.3-0.3,0.2-0.5c-0.1-0.2-0.3-0.3-0.5-0.2l-1.1,0.4l-0.6-1.4L26.3,30.8z M28.3,40.7
		c0.2,0.6,0,1.3-0.6,1.5l-12.8,5.2c-0.6,0.2-1.3,0-1.5-0.6L8.1,34c-0.2-0.6,0-1.3,0.6-1.5l12.8-5.2c0.6-0.2,1.3,0,1.5,0.6L28.3,40.7
		L28.3,40.7z"/>
	<path fill="#010202" d="M21.3,28.7L9.9,33.3c-0.4,0.2-0.6,0.6-0.4,1l4.6,11.4c0.2,0.4,0.6,0.6,1,0.4l11.4-4.6
		c0.4-0.2,0.6-0.6,0.4-1l-4.6-11.4C22.1,28.7,21.7,28.5,21.3,28.7z M14.8,45.4L10.2,34l11.4-4.6l4.6,11.4L14.8,45.4L14.8,45.4z"/>
</g>
<g>
	<g>
		<g>
			<path fill="#010202" d="M54.2,43.6c-0.2-0.1-0.5,0.1-0.5,0.3l-0.2,0.8c-0.1,0.2,0.1,0.5,0.3,0.5l1.7,0.4c0.2,0.1,0.5-0.1,0.5-0.3
				l0.2-0.8c0.1-0.2-0.1-0.5-0.3-0.5c-0.2-0.1-0.5,0.1-0.5,0.3l-0.1,0.4l-0.8-0.2l0.1-0.4C54.5,43.9,54.4,43.6,54.2,43.6z"/>
			<path fill="#010202" d="M45.7,49.4c-0.2-0.1-0.5,0.1-0.5,0.3L45,50.5C44.9,50.7,45,51,45.3,51l1.7,0.4c0.2,0.1,0.5-0.1,0.5-0.3
				l0.2-0.8c0.1-0.2-0.1-0.5-0.3-0.5c-0.2-0.1-0.5,0.1-0.5,0.3l-0.1,0.4l-0.8-0.2l0.1-0.4C46,49.7,45.9,49.4,45.7,49.4z"/>
			<path fill="#010202" d="M52.2,49.7c-0.1,0.2,0.1,0.5,0.3,0.5l1.7,0.4c0.2,0.1,0.5-0.1,0.5-0.3l0.2-0.8c0.1-0.2-0.1-0.5-0.3-0.5
				c-0.2-0.1-0.5,0.1-0.5,0.3L54,49.7l-0.8-0.2l0.1-0.4c0.1-0.2-0.1-0.5-0.3-0.5s-0.5,0.1-0.5,0.3L52.2,49.7L52.2,49.7z"/>
			<path fill="#010202" d="M56.1,48c-0.1,0.2,0.1,0.5,0.3,0.5l1.7,0.4c0.2,0.1,0.5-0.1,0.5-0.3l0.2-0.8c0.1-0.2-0.1-0.5-0.3-0.5
				c-0.2-0.1-0.5,0.1-0.5,0.3L57.9,48l-0.8-0.2l0.1-0.4c0.1-0.2-0.1-0.5-0.3-0.5c-0.2-0.1-0.5,0.1-0.5,0.3L56.1,48L56.1,48z"/>
			<path fill="#010202" d="M57.5,44.4c-0.2-0.1-0.5,0.1-0.5,0.3l-0.2,0.8c-0.1,0.2,0.1,0.5,0.3,0.5l1.7,0.4c0.2,0.1,0.5-0.1,0.5-0.3
				l0.2-0.8c0.1-0.2-0.1-0.5-0.3-0.5c-0.2-0.1-0.5,0.1-0.5,0.3l-0.1,0.4l-0.8-0.2l0.1-0.4C57.8,44.7,57.7,44.5,57.5,44.4z"/>
			<path fill="#010202" d="M52.8,47.2c-0.1,0.2,0.1,0.5,0.3,0.5l1.7,0.4c0.2,0.1,0.5-0.1,0.5-0.3l0.2-0.8c0.1-0.2-0.1-0.5-0.3-0.5
				c-0.2-0.1-0.5,0.1-0.5,0.3l-0.1,0.4L53.8,47l0.1-0.4c0.1-0.2-0.1-0.5-0.3-0.5c-0.2-0.1-0.5,0.1-0.5,0.3L52.8,47.2L52.8,47.2z"/>
			<path fill="#010202" d="M68,44.4l-6.2-1.6c0.2-0.9,0.5-1.8,0.7-2.7c0.1-0.3,0-0.6-0.2-0.7c-0.2-0.1-0.5,0.1-0.6,0.5
				c-0.3,1-0.5,2.1-0.8,3.1c-0.1,0.2,0.1,0.5,0.3,0.5l6.6,1.7c0.7,0.2,1.1,0.9,0.9,1.6l-2.5,9.9c-0.2,0.7-0.9,1.1-1.6,0.9L44,52.5
				c-0.7-0.2-1.1-0.9-0.9-1.6l2.5-9.9c0.2-0.7,0.9-1.1,1.6-0.9l12.4,3.1c0.2,0.1,0.5-0.1,0.5-0.3c0.1-0.2-0.1-0.5-0.3-0.5l-12.4-3.1
				c-1.1-0.3-2.3,0.4-2.6,1.6l-2.5,9.9c-0.3,1.1,0.4,2.3,1.6,2.6l20.7,5.2c1.1,0.3,2.3-0.4,2.6-1.6l2.5-9.9
				C69.9,45.8,69.2,44.7,68,44.4z"/>
			<path fill="#010202" d="M50.9,42.7c-0.2-0.1-0.5,0.1-0.5,0.3l-0.2,0.8c-0.1,0.2,0.1,0.5,0.3,0.5l1.7,0.4c0.2,0.1,0.5-0.1,0.5-0.3
				l0.2-0.8c0.1-0.2-0.1-0.5-0.3-0.5c-0.2-0.1-0.5,0.1-0.5,0.3l-0.1,0.4l-0.8-0.2l0.1-0.4C51.2,43,51.1,42.8,50.9,42.7z"/>
			<path fill="#010202" d="M48.3,51.3c-0.1,0.2,0.1,0.5,0.3,0.5l9.1,2.3c0.2,0.1,0.5-0.1,0.5-0.3l0.2-0.8c0.1-0.2-0.1-0.5-0.3-0.5
				c-0.2-0.1-0.5,0.1-0.5,0.3l-0.1,0.4l-8.3-2.1l0.1-0.4c0.1-0.2-0.1-0.5-0.3-0.5c-0.2-0.1-0.5,0.1-0.5,0.3L48.3,51.3z"/>
			<path fill="#010202" d="M48.9,48.8c-0.1,0.2,0.1,0.5,0.3,0.5l1.7,0.4c0.2,0.1,0.5-0.1,0.5-0.3l0.2-0.8c0.1-0.2-0.1-0.5-0.3-0.5
				c-0.2-0.1-0.5,0.1-0.5,0.3l-0.1,0.4l-0.8-0.2l0.1-0.4c0.1-0.2-0.1-0.5-0.3-0.5c-0.2-0.1-0.5,0.1-0.5,0.3
				C49.1,48,48.9,48.8,48.9,48.8z"/>
			<path fill="#010202" d="M49.5,46.4c-0.1,0.2,0.1,0.5,0.3,0.5l1.7,0.4c0.2,0.1,0.5-0.1,0.5-0.3l0.2-0.8c0.1-0.2-0.1-0.5-0.3-0.5
				c-0.2-0.1-0.5,0.1-0.5,0.3l-0.1,0.4l-0.8-0.2l0.1-0.4c0.1-0.2-0.1-0.5-0.3-0.5c-0.2-0.1-0.5,0.1-0.5,0.3
				C49.7,45.5,49.5,46.4,49.5,46.4z"/>
			<path fill="#010202" d="M55.5,50.5c-0.1,0.2,0.1,0.5,0.3,0.5l1.7,0.4c0.2,0.1,0.5-0.1,0.5-0.3l0.2-0.8c0.1-0.2-0.1-0.5-0.3-0.5
				c-0.2-0.1-0.5,0.1-0.5,0.3l-0.1,0.4l-0.8-0.2l0.1-0.4c0.1-0.2-0.1-0.5-0.3-0.5c-0.2-0.1-0.5,0.1-0.5,0.3L55.5,50.5L55.5,50.5z"/>
			<path fill="#010202" d="M58.8,51.3c-0.1,0.2,0.1,0.5,0.3,0.5l1.7,0.4c0.2,0.1,0.5-0.1,0.5-0.3l0.2-0.8c0.1-0.2-0.1-0.5-0.3-0.5
				c-0.2-0.1-0.5,0.1-0.5,0.3l-0.1,0.4l-0.8-0.2l0.1-0.4c0.1-0.2-0.1-0.5-0.3-0.5c-0.2-0.1-0.5,0.1-0.5,0.3L58.8,51.3L58.8,51.3z"/>
			<path fill="#010202" d="M64.1,46.1c-0.2-0.1-0.5,0.1-0.5,0.3l-0.2,0.8c-0.1,0.2,0.1,0.5,0.3,0.5l2.5,0.6c0.2,0.1,0.5-0.1,0.5-0.3
				l0.2-0.8c0.1-0.2-0.1-0.5-0.3-0.5c-0.2-0.1-0.5,0.1-0.5,0.3L66,47.4L64.3,47l0.1-0.4C64.5,46.3,64.3,46.1,64.1,46.1z"/>
			<path fill="#010202" d="M62.8,49.7c-0.1,0.2,0.1,0.5,0.3,0.5l2.5,0.6c0.2,0.1,0.5-0.1,0.5-0.3l0.2-0.8c0.1-0.2-0.1-0.5-0.3-0.5
				c-0.2-0.1-0.5,0.1-0.5,0.3l-0.1,0.4l-1.7-0.4l0.1-0.4c0.1-0.2-0.1-0.5-0.3-0.5c-0.2-0.1-0.5,0.1-0.5,0.3L62.8,49.7L62.8,49.7z"/>
			<path fill="#010202" d="M48.3,47.8c0.1-0.2-0.1-0.5-0.3-0.5c-0.2-0.1-0.5,0.1-0.5,0.3L47.3,48l-0.8-0.2l0.1-0.4
				c0.1-0.2-0.1-0.5-0.3-0.5c-0.2-0.1-0.5,0.1-0.5,0.3L45.6,48c-0.1,0.2,0.1,0.5,0.3,0.5l1.7,0.4c0.2,0.1,0.5-0.1,0.5-0.3L48.3,47.8
				L48.3,47.8z"/>
			<path fill="#010202" d="M63.1,53.7c-0.2-0.1-0.5,0.1-0.5,0.3l-0.2,0.8c-0.1,0.2,0.1,0.5,0.3,0.5l1.7,0.4c0.2,0.1,0.5-0.1,0.5-0.3
				l0.2-0.8c0.1-0.2-0.1-0.5-0.3-0.5c-0.2-0.1-0.5,0.1-0.5,0.3l-0.1,0.4l-0.8-0.2l0.1-0.4C63.4,54,63.3,53.8,63.1,53.7z"/>
			<path fill="#010202" d="M62.1,52.2c-0.1,0.2,0.1,0.5,0.3,0.5l2.5,0.6c0.2,0.1,0.5-0.1,0.5-0.3l0.2-0.8c0.1-0.2-0.1-0.5-0.3-0.5
				c-0.2-0.1-0.5,0.1-0.5,0.3l-0.1,0.4L63.1,52l0.1-0.4c0.1-0.2-0.1-0.5-0.3-0.5c-0.2-0.1-0.5,0.1-0.5,0.3L62.1,52.2L62.1,52.2z"/>
			<path fill="#010202" d="M49.5,42.8c0.1-0.2-0.1-0.5-0.3-0.5c-0.2-0.1-0.5,0.1-0.5,0.3l-0.1,0.4l-0.8-0.2l0.1-0.4
				c0.1-0.2-0.1-0.5-0.3-0.5c-0.2-0.1-0.5,0.1-0.5,0.3l-0.2,0.8c-0.1,0.2,0.1,0.5,0.3,0.5l1.7,0.4c0.2,0.1,0.5-0.1,0.5-0.3
				L49.5,42.8L49.5,42.8z"/>
			<path fill="#010202" d="M59.4,48.8c-0.1,0.2,0.1,0.5,0.3,0.5l1.7,0.4c0.2,0.1,0.5-0.1,0.5-0.3l0.2-0.8c0.1-0.2-0.1-0.5-0.3-0.5
				c-0.2-0.1-0.5,0.1-0.5,0.3l-0.1,0.4l-0.8-0.2l0.1-0.4c0.1-0.2-0.1-0.5-0.3-0.5c-0.2-0.1-0.5,0.1-0.5,0.3L59.4,48.8L59.4,48.8z"/>
			<path fill="#010202" d="M48.9,45.3c0.1-0.2-0.1-0.5-0.3-0.5c-0.2-0.1-0.5,0.1-0.5,0.3L48,45.5l-0.8-0.2l0.1-0.4
				c0.1-0.2-0.1-0.5-0.3-0.5c-0.2-0.1-0.5,0.1-0.5,0.3l-0.2,0.8c-0.1,0.2,0.1,0.5,0.3,0.5l1.7,0.4c0.2,0.1,0.5-0.1,0.5-0.3
				L48.9,45.3L48.9,45.3z"/>
			<path fill="#010202" d="M59.8,52.9c-0.2-0.1-0.5,0.1-0.5,0.3L59,54c-0.1,0.2,0.1,0.5,0.3,0.5L61,55c0.2,0.1,0.5-0.1,0.5-0.3
				l0.2-0.8c0.1-0.2-0.1-0.5-0.3-0.5c-0.2-0.1-0.5,0.1-0.5,0.3L60.8,54L60,53.8l0.1-0.4C60.1,53.2,60,52.9,59.8,52.9z"/>
			<path fill="#010202" d="M60.8,45.2c-0.2-0.1-0.5,0.1-0.5,0.3l-0.2,0.8c-0.1,0.2,0.1,0.5,0.3,0.5l1.7,0.4c0.2,0.1,0.5-0.1,0.5-0.3
				l0.2-0.8c0.1-0.2-0.1-0.5-0.3-0.5c-0.2-0.1-0.5,0.1-0.5,0.3l-0.1,0.4L61,46.2l0.1-0.4C61.2,45.5,61,45.3,60.8,45.2z"/>
		</g>
	</g>
</g>
<g>
	<g>
		<path fill="#010202" d="M81.3,4.2c-0.2,0.1-0.3,0.3-0.2,0.4l1.5,4c0,0.1,0.1,0.1,0.1,0.2C82.8,9,83,9,83.1,8.9
			c2.8-1,5.9,0.5,6.9,3.3l0.6,1.5l-5,1.8L85.4,15c0.2-0.1,0.3-0.3,0.3-0.4c0.2-0.4,0-0.8,0-0.8l-1.2-3.2c-0.1-0.4-0.6-0.9-1.4-0.6
			c-0.4,0.1-0.5,0.4-0.6,0.5c-0.2,0.4,0,0.8,0,0.8l1.2,3.2c0.1,0.3,0.5,0.7,1,0.7l0.2,0.5l-4.6,1.7L79.8,16c-0.9-2.4,0-5,2.1-6.4
			C82.1,9.4,82.1,9.2,82,9c-0.1-0.2-0.3-0.2-0.5-0.1c-2.4,1.6-3.4,4.6-2.4,7.3l3.3,9.1c1.2,3.2,4.6,4.8,7.9,3.6
			c1.6-0.6,2.8-1.8,3.5-3.2c0.7-1.4,0.8-3.1,0.2-4.7l-2.7-7.2c0,0,0,0,0,0c0,0,0,0,0,0L90.7,12c-1.1-3.1-4.5-4.7-7.5-3.7l-1.4-3.8
			C81.7,4.3,81.5,4.2,81.3,4.2z M84.4,14.3l-1.2-3.2c0,0-0.1-0.2,0-0.3c0,0,0.1-0.1,0.2-0.2c0.3-0.1,0.4,0.1,0.5,0.2l1.2,3.2
			c0,0,0.1,0.2,0,0.3c0,0-0.1,0.1-0.2,0.2C84.5,14.6,84.4,14.4,84.4,14.3z M93.4,21.2c0.5,1.4,0.5,2.9-0.1,4.2
			c-0.6,1.3-1.7,2.3-3.1,2.8c-2.9,1.1-5.9-0.4-7-3.2l-2.5-6.9l4.9-1.8l0,0l0,0l5.3-2L93.4,21.2z"/>
	</g>
</g>
</svg>
