<svg version="1.1" id="Layer_1" xmlns="http://www.w3.org/2000/svg" xmlns:xlink="http://www.w3.org/1999/xlink" x="0px" y="0px"
	 viewBox="-55 272 500 250" enable-background="new -55 272 500 250" xml:space="preserve">
		 <style>
		 /*title animation start*/

		 .draw {
		 	stroke-dasharray: 1000;
		 	stroke-dashoffset: 1000;
		 	-webkit-animation: draw 4s linear alternate forwards;
		 	-o- animation: draw 4s linear alternate forwards;
		 	-moz- animation: draw 4s linear alternate forwards;
		 	animation: draw 4s linear alternate forwards;

		 	-webkit-animation-fill-mode: forwards;
		 	-o- animation-fill-mode: forwards;
		 	-moz- animation-fill-mode: forwards;
		 	animation-fill-mode: forwards;
		 }

		 @-webkit-keyframes draw {
		 	from {
		 			stroke-dashoffset: 1000;
		 		}
		 		to {
		 			stroke-dashoffset: 0;
		 		}
		 }

		 @-moz-keyframes draw {
		 	from {
		 			stroke-dashoffset: 1000;
		 		}
		 		to {
		 			stroke-dashoffset: 0;
		 		}
		 }

		 @-o-keyframes draw {
		 	from {
		 			stroke-dashoffset: 1000;
		 		}
		 		to {
		 			stroke-dashoffset: 0;
		 		}
		 }
		 @keyframes draw {
		 	from {
		 			stroke-dashoffset: 1000;
		 		}
		 		to {
		 			stroke-dashoffset: 0;
		 		}
		 }

		 .fill   {
		 -webkit-animation: fill 4s forwards;
		 	-o- animation: fill 4s forwards;
		 	-moz- animation: fill 4s forwards;
		 	animation: fill 4s forwards;
		 }

		 @-webkit-keyframes fill {
		 	0%   { opacity:0; }
		 	50%  { opacity:1; }
		 	100% { opacity:1; }
		 }

		 @-moz-keyframes fill {
		 	0%   { opacity:0; }
		 	50%  { opacity:1; }
		 	100% { opacity:1; }
		 }

		 @-o-keyframes fill {
		 	0%   { opacity:0; }
		 	50%  { opacity:1; }
		 	100% { opacity:1; }
		 }
		 @keyframes fill {
		 	0%   { opacity:0; }
		 	50%  { opacity:1; }
		 	100% { opacity:1; }
		 /*title animation end*/
		 </style>

			 		 <g class="draw">
		<path fill="none" stroke="#333333" stroke-width="4" stroke-linecap="round" stroke-linejoin="round" stroke-miterlimit="10" d="
	M7.1,404.5c0,7.1-1.9,12.5-5.7,16.3c-3.8,3.8-9.2,5.7-16,5.7c-3.6,0-6.7-0.6-9.4-1.7c-2.7-1.1-5-2.7-6.8-4.7c-1.8-2-3.2-4.3-4.1-7
	c-0.9-2.7-1.4-5.6-1.4-8.7h13.8c0,2.9,0.7,5.4,2,7.3c1.3,1.9,3.3,2.9,5.9,2.9c2.7,0,4.7-0.9,6-2.7c1.4-1.8,2-4.3,2-7.4v-39H7.1
	V404.5z"/>
<path fill="none" stroke="#333333" stroke-width="4" stroke-linecap="round" stroke-linejoin="round" stroke-miterlimit="10" d="
	M40.3,376.5v13.5h22.5v10.8H40.3V414h22.5v11H26.5v-59.5h36.3v11H40.3z"/>
<path fill="none" stroke="#333333" stroke-width="4" stroke-linecap="round" stroke-linejoin="round" stroke-miterlimit="10" d="
	M91.3,377.4H77.8v-11.9h40.7v11.9H105V425H91.3V377.4z"/>
<path fill="none" stroke="#333333" stroke-width="4" stroke-linecap="round" stroke-linejoin="round" stroke-miterlimit="10" d="
	M145.4,405.3c0,3.2,0.9,5.8,2.6,7.6c1.8,1.8,4.1,2.7,6.9,2.7c2.2,0,4.1-0.6,5.6-1.9c1.5-1.3,2.3-3,2.3-5.1c0-1.2-0.2-2.2-0.7-3
	s-1.1-1.5-2-2.2c-0.8-0.6-1.8-1.2-2.9-1.7c-1.1-0.5-2.4-1-3.7-1.5c-2.7-1-5.3-2-7.8-3.1c-2.5-1-4.6-2.3-6.4-3.7
	c-1.8-1.4-3.3-3.2-4.3-5.2c-1.1-2-1.6-4.6-1.6-7.6c0-2.7,0.6-5.1,1.7-7.2c1.2-2.1,2.7-3.9,4.6-5.3c1.9-1.4,4.2-2.5,6.7-3.2
	c2.5-0.7,5.1-1.1,7.9-1.1c3.5,0,6.6,0.5,9.3,1.5c2.7,1,4.9,2.4,6.6,4.2c1.8,1.8,3.1,3.8,4,6c0.9,2.3,1.3,4.7,1.3,7.2h-13.8
	c0-2.7-0.6-4.8-1.9-6.3c-1.3-1.5-3.1-2.3-5.5-2.3c-2,0-3.7,0.5-5.1,1.5c-1.4,1-2.1,2.5-2.1,4.6c0,2,0.8,3.6,2.3,4.7
	c1.6,1.2,3.6,2.2,6.2,3.1c2.4,0.9,4.9,1.8,7.4,2.8c2.5,1,4.7,2.2,6.7,3.7c2,1.4,3.6,3.2,4.9,5.3c1.3,2.1,1.9,4.6,1.9,7.5
	c0,3.1-0.6,5.8-1.7,8.2c-1.1,2.4-2.6,4.4-4.6,6c-2,1.6-4.3,2.8-7.1,3.7c-2.7,0.8-5.7,1.2-9,1.2c-3.2,0-6.1-0.5-8.9-1.4
	c-2.7-0.9-5.1-2.3-7.1-4.1c-2-1.8-3.6-4-4.7-6.7c-1.1-2.6-1.7-5.7-1.7-9.1H145.4z"/>
<path fill="none" stroke="#333333" stroke-width="4" stroke-linecap="round" stroke-linejoin="round" stroke-miterlimit="10" d="
	M194.2,365.5h24.9c3.3,0,6.3,0.6,8.9,1.7c2.7,1.2,4.9,2.7,6.8,4.7s3.4,4.2,4.4,6.8c1,2.6,1.5,5.4,1.5,8.2c0,2.9-0.5,5.6-1.5,8.2
	c-1,2.6-2.5,4.9-4.4,6.8c-1.9,2-4.2,3.5-6.8,4.7c-2.7,1.2-5.6,1.7-8.9,1.7H208V425h-13.8V365.5z M217.4,397.3c1.4,0,2.7-0.3,3.9-0.9
	c1.2-0.6,2.2-1.3,3-2.3s1.5-2,1.9-3.3c0.5-1.2,0.7-2.5,0.7-3.9c0-1.4-0.2-2.7-0.7-3.9c-0.5-1.2-1.1-2.3-1.9-3.3
	c-0.8-0.9-1.8-1.7-3-2.3c-1.2-0.6-2.5-0.8-3.9-0.8H208v20.6H217.4z"/>
<path fill="none" stroke="#333333" stroke-width="4" stroke-linecap="round" stroke-linejoin="round" stroke-miterlimit="10" d="
	M286.3,425l-2.3-7.2h-21.2l-2.3,7.2h-14.7l21.3-59.5h12.7l21.5,59.5H286.3z M273.5,382.5l-7.3,24.5h14.5L273.5,382.5z"/>
<path fill="none" stroke="#333333" stroke-width="4" stroke-linecap="round" stroke-linejoin="round" stroke-miterlimit="10" d="
	M371.4,403.7c-0.6,3.2-1.7,6.1-3.3,8.9c-1.6,2.8-3.7,5.2-6.2,7.3c-2.5,2.1-5.5,3.7-8.9,4.9c-3.4,1.2-7.1,1.8-11.2,1.8
	c-5,0-9.5-0.8-13.5-2.5c-3.9-1.7-7.3-4-10-6.8c-2.7-2.9-4.8-6.2-6.3-10c-1.4-3.8-2.2-7.8-2.2-12c0-4.1,0.7-8,2.1-11.7
	c1.4-3.7,3.5-7.1,6.2-9.9c2.7-2.9,6-5.2,9.8-6.9c3.9-1.7,8.2-2.6,13.1-2.6c4.6,0,8.7,0.7,12.3,2c3.6,1.3,6.7,3.1,9.2,5.3
	c2.5,2.2,4.5,4.8,6,7.8c1.5,3,2.4,6.2,2.9,9.6H357c-0.3-1.8-0.9-3.4-1.7-4.8c-0.8-1.5-1.9-2.8-3.1-3.9c-1.3-1.1-2.8-2-4.5-2.6
	c-1.7-0.6-3.6-0.9-5.7-0.9c-2.9,0-5.5,0.5-7.7,1.6c-2.2,1-4.1,2.4-5.7,4.2c-1.5,1.7-2.7,3.7-3.5,6c-0.8,2.3-1.2,4.6-1.2,7.1
	c0,2.6,0.4,5.1,1.2,7.4c0.8,2.3,2,4.3,3.7,6c1.6,1.7,3.6,3.1,5.9,4.1c2.3,1,4.9,1.5,7.9,1.5c1.7,0,3.3-0.3,4.8-0.8
	c1.5-0.5,2.9-1.3,4.2-2.2c1.3-0.9,2.4-2,3.3-3.3c0.9-1.3,1.6-2.6,2-4.1H371.4z"/>
<path fill="none" stroke="#333333" stroke-width="4" stroke-linecap="round" stroke-linejoin="round" stroke-miterlimit="10" d="
	M402.1,376.5v13.5h22.5v10.8h-22.5V414h22.5v11h-36.3v-59.5h36.3v11H402.1z"/>
	</g>

		 <g class="fill">
		<path fill="#333333" stroke="none" stroke-width="4" stroke-linecap="round" stroke-linejoin="round" stroke-miterlimit="10" d="
	M7.1,404.5c0,7.1-1.9,12.5-5.7,16.3c-3.8,3.8-9.2,5.7-16,5.7c-3.6,0-6.7-0.6-9.4-1.7c-2.7-1.1-5-2.7-6.8-4.7c-1.8-2-3.2-4.3-4.1-7
	c-0.9-2.7-1.4-5.6-1.4-8.7h13.8c0,2.9,0.7,5.4,2,7.3c1.3,1.9,3.3,2.9,5.9,2.9c2.7,0,4.7-0.9,6-2.7c1.4-1.8,2-4.3,2-7.4v-39H7.1
	V404.5z"/>
<path fill="#333333" stroke="none" stroke-width="4" stroke-linecap="round" stroke-linejoin="round" stroke-miterlimit="10" d="
	M40.3,376.5v13.5h22.5v10.8H40.3V414h22.5v11H26.5v-59.5h36.3v11H40.3z"/>
<path fill="#333333" stroke="none" stroke-width="4" stroke-linecap="round" stroke-linejoin="round" stroke-miterlimit="10" d="
	M91.3,377.4H77.8v-11.9h40.7v11.9H105V425H91.3V377.4z"/>
<path fill="#333333" stroke="none" stroke-width="4" stroke-linecap="round" stroke-linejoin="round" stroke-miterlimit="10" d="
	M145.4,405.3c0,3.2,0.9,5.8,2.6,7.6c1.8,1.8,4.1,2.7,6.9,2.7c2.2,0,4.1-0.6,5.6-1.9c1.5-1.3,2.3-3,2.3-5.1c0-1.2-0.2-2.2-0.7-3
	s-1.1-1.5-2-2.2c-0.8-0.6-1.8-1.2-2.9-1.7c-1.1-0.5-2.4-1-3.7-1.5c-2.7-1-5.3-2-7.8-3.1c-2.5-1-4.6-2.3-6.4-3.7
	c-1.8-1.4-3.3-3.2-4.3-5.2c-1.1-2-1.6-4.6-1.6-7.6c0-2.7,0.6-5.1,1.7-7.2c1.2-2.1,2.7-3.9,4.6-5.3c1.9-1.4,4.2-2.5,6.7-3.2
	c2.5-0.7,5.1-1.1,7.9-1.1c3.5,0,6.6,0.5,9.3,1.5c2.7,1,4.9,2.4,6.6,4.2c1.8,1.8,3.1,3.8,4,6c0.9,2.3,1.3,4.7,1.3,7.2h-13.8
	c0-2.7-0.6-4.8-1.9-6.3c-1.3-1.5-3.1-2.3-5.5-2.3c-2,0-3.7,0.5-5.1,1.5c-1.4,1-2.1,2.5-2.1,4.6c0,2,0.8,3.6,2.3,4.7
	c1.6,1.2,3.6,2.2,6.2,3.1c2.4,0.9,4.9,1.8,7.4,2.8c2.5,1,4.7,2.2,6.7,3.7c2,1.4,3.6,3.2,4.9,5.3c1.3,2.1,1.9,4.6,1.9,7.5
	c0,3.1-0.6,5.8-1.7,8.2c-1.1,2.4-2.6,4.4-4.6,6c-2,1.6-4.3,2.8-7.1,3.7c-2.7,0.8-5.7,1.2-9,1.2c-3.2,0-6.1-0.5-8.9-1.4
	c-2.7-0.9-5.1-2.3-7.1-4.1c-2-1.8-3.6-4-4.7-6.7c-1.1-2.6-1.7-5.7-1.7-9.1H145.4z"/>
<path fill="#333333" stroke="none" stroke-width="4" stroke-linecap="round" stroke-linejoin="round" stroke-miterlimit="10" d="
	M194.2,365.5h24.9c3.3,0,6.3,0.6,8.9,1.7c2.7,1.2,4.9,2.7,6.8,4.7s3.4,4.2,4.4,6.8c1,2.6,1.5,5.4,1.5,8.2c0,2.9-0.5,5.6-1.5,8.2
	c-1,2.6-2.5,4.9-4.4,6.8c-1.9,2-4.2,3.5-6.8,4.7c-2.7,1.2-5.6,1.7-8.9,1.7H208V425h-13.8V365.5z M217.4,397.3c1.4,0,2.7-0.3,3.9-0.9
	c1.2-0.6,2.2-1.3,3-2.3s1.5-2,1.9-3.3c0.5-1.2,0.7-2.5,0.7-3.9c0-1.4-0.2-2.7-0.7-3.9c-0.5-1.2-1.1-2.3-1.9-3.3
	c-0.8-0.9-1.8-1.7-3-2.3c-1.2-0.6-2.5-0.8-3.9-0.8H208v20.6H217.4z"/>
<path fill="#333333" stroke="none" stroke-width="4" stroke-linecap="round" stroke-linejoin="round" stroke-miterlimit="10" d="
	M286.3,425l-2.3-7.2h-21.2l-2.3,7.2h-14.7l21.3-59.5h12.7l21.5,59.5H286.3z M273.5,382.5l-7.3,24.5h14.5L273.5,382.5z"/>
<path fill="#333333" stroke="none" stroke-width="4" stroke-linecap="round" stroke-linejoin="round" stroke-miterlimit="10" d="
	M371.4,403.7c-0.6,3.2-1.7,6.1-3.3,8.9c-1.6,2.8-3.7,5.2-6.2,7.3c-2.5,2.1-5.5,3.7-8.9,4.9c-3.4,1.2-7.1,1.8-11.2,1.8
	c-5,0-9.5-0.8-13.5-2.5c-3.9-1.7-7.3-4-10-6.8c-2.7-2.9-4.8-6.2-6.3-10c-1.4-3.8-2.2-7.8-2.2-12c0-4.1,0.7-8,2.1-11.7
	c1.4-3.7,3.5-7.1,6.2-9.9c2.7-2.9,6-5.2,9.8-6.9c3.9-1.7,8.2-2.6,13.1-2.6c4.6,0,8.7,0.7,12.3,2c3.6,1.3,6.7,3.1,9.2,5.3
	c2.5,2.2,4.5,4.8,6,7.8c1.5,3,2.4,6.2,2.9,9.6H357c-0.3-1.8-0.9-3.4-1.7-4.8c-0.8-1.5-1.9-2.8-3.1-3.9c-1.3-1.1-2.8-2-4.5-2.6
	c-1.7-0.6-3.6-0.9-5.7-0.9c-2.9,0-5.5,0.5-7.7,1.6c-2.2,1-4.1,2.4-5.7,4.2c-1.5,1.7-2.7,3.7-3.5,6c-0.8,2.3-1.2,4.6-1.2,7.1
	c0,2.6,0.4,5.1,1.2,7.4c0.8,2.3,2,4.3,3.7,6c1.6,1.7,3.6,3.1,5.9,4.1c2.3,1,4.9,1.5,7.9,1.5c1.7,0,3.3-0.3,4.8-0.8
	c1.5-0.5,2.9-1.3,4.2-2.2c1.3-0.9,2.4-2,3.3-3.3c0.9-1.3,1.6-2.6,2-4.1H371.4z"/>
<path fill="#333333" stroke="none" stroke-width="4" stroke-linecap="round" stroke-linejoin="round" stroke-miterlimit="10" d="
	M402.1,376.5v13.5h22.5v10.8h-22.5V414h22.5v11h-36.3v-59.5h36.3v11H402.1z"/>
	</g>
	</svg>
