<?xml version="1.0" encoding="utf-8"?>
<!-- Generator: Adobe Illustrator 19.2.1, SVG Export Plug-In . SVG Version: 6.00 Build 0)  -->
<svg version="1.1" id="Layer_1" xmlns="http://www.w3.org/2000/svg" xmlns:xlink="http://www.w3.org/1999/xlink" x="0px" y="0px"
	 viewBox="0 0 500 500" style="enable-background:new 0 0 500 500;" xml:space="preserve">
<style type="text/css">
	.st0{fill:#262626;}
	.st1{fill:#848484;}
	.st2{fill:#5F5F5E;}
	.st3{fill:#3C3B3D;}
</style>
<g id="Layer_1_1_">
	<path class="st0" d="M485.2,488.5c-30.3,19.2-100.8-114.9-232.8-115.6C119,372.2,46.8,508.3,15.4,488.5
		C-37.6,455,78.8,10.3,248.3,9.5C418.1,8.9,537,455.8,485.2,488.5z"/>
</g>
<g id="Layer_4">
	<path class="st1" d="M111.2,282.9c-7.8-23.9-35.7-119.2,17-195.7c7.7-11.1,17-21.6,17-21.6c6.6-7.3,12.3-12.9,16.2-16.5
		c4.7-4.3,11.9-10.8,22.4-17.8c6.2-4.1,13.5-8.9,24-13.3c6.5-2.7,18.1-6.8,22.4-6.6c37.9,1.7,36.6,359.6,17.7,361.4
		c-0.8,0.1-6.7,0-15.8,0.9c-1.1,0.1-4.3,0.4-8.4,1c-9.1,1.3-16.5,3-21.5,4.3c-8.9,2.3-13.6,4.2-15.4,4.6
		C171.5,387.8,131.5,345.7,111.2,282.9z"/>
</g>
<g id="Layer_3">
	<path class="st2" d="M315.9,382.8c-0.1,0-2.5-0.5-6.8-1.7c-1.4-0.4-3.1-0.8-5.2-1.4c0,0-3.6-0.9-7.8-1.8
		c-10.6-2.3-21.4-3.6-21.4-3.6c-10.2-1.2-17.9-1.4-19.9-1.4c-7.7-0.1-13.7,0.2-16.1,0.4c-1.7,0.1-3,0.2-3,0.2
		c-7,0.6-52.3-38.8-71.6-127.8C136.2,117.8,192,25,208.4,18c8.7-3.7,18.2-5.8,18.2-5.8c8.8-2,15.7-2.4,18.2-2.5
		c3.6-0.1,13.5-0.4,25.9,2.5c10,2.2,17.2,5.4,21.9,7.6c11.3,5.1,19.3,10.7,23.9,13.9c0,0,4.6,3.2,8.7,6.6
		C349.7,59.8,332.6,384.6,315.9,382.8z"/>
</g>
<g id="Layer_5">
	<path class="st3" d="M371.3,410.1c-0.3,0-5.7-3-16.5-8.8c-6.4-3.5-10.1-5.5-15.4-7.7c-1.4-0.6-3.1-1.3-6.3-2.6c-4.6-2-6.8-3-8.9-4
		c-5.3-2.3-9.5-3.6-15.2-5.4c-7.1-2.2-12.6-3.5-14.5-3.9c-3-0.7-5.8-1.2-6.4-1.3c-2.4-0.5-4.5-0.8-6.3-1.1
		c-44.5-77.4-52.8-143.8-54.2-181.5c-3.4-96.2,32.7-180.9,49.3-180c4,0.2,15.8,5.9,19,7.4c1.9,0.9,7.5,3.7,14.4,8.1
		c4.8,3.1,10.8,7.2,17.1,12.6c3.8,3.2,8.6,7.4,13.9,12.5c0,0,5,4.8,9.8,10c8.6,9.3,17.8,21.3,32.7,43.1c4.9,7.2,11.2,16.5,18.3,27.7
		c3.7,6.5,10.6,19.3,16.6,36.4C458.7,286.7,391.1,412.8,371.3,410.1z"/>
</g>
<g id="Layer_2">
	<path class="st0" d="M445.9,226.8c16,38.5,21.9,56.6,25.6,68.5c1.2,4.2,7.3,24.2,13.3,51.2c0.5,2.6,6.6,30.6,10.4,62.5
		c0,0,1.6,13.5,2.2,33.3c0,1.6,0.2,7.7-0.5,15.5c-0.4,5.1-1.1,10-2.6,15c-0.5,1.7-1.4,4.6-3.1,8.1c-0.9,1.7-1.2,2.6-2,3.6
		c-2.7,3.6-7.4,5.3-7.8,5.4c-4.9,1.5-9.7-0.6-13.8-2.8c-11.4-6-18.8-12.8-31.8-24.2c0,0-4.6-4-13.7-11.9
		c-10.5-9-18.6-15.6-21.7-18.2c-0.5-0.4-0.6-0.5-0.9-0.7c-7.7-6.2-14.7-11.2-20.4-15.1c-8.6-5.9-15.5-10-20.6-13.1
		c-2.4-1.4-3.6-2.2-5.5-3.2c-2.9-1.6-6-3.2-18.3-8.8c-9.2-4.2-11.9-5.3-14-6.1c-4.2-1.7-7.3-2.7-7.5-2.8
		c-17.5-6.3,27.5-319.4,38.7-317.4c0.2,0,1.1,1,3,3c4.5,4.8,7.5,8.8,8.8,10.4c7.3,9.6,6.6,8.2,11.1,14.3c5.8,7.9,4.2,6.5,16,23.7
		c0,0,6.8,10,12.1,18.8c0.6,1,1.2,2,1.2,2c0,0,0.9,1.5,1.7,3c5.2,9.5,10.3,20,10.3,20c3.8,7.8,7.6,15.5,11.6,23.8
		C433.9,197.9,438,207.7,445.9,226.8z"/>
</g>
</svg>
