<?xml version="1.0" encoding="utf-8"?>
<!-- Generator: Adobe Illustrator 19.2.0, SVG Export Plug-In . SVG Version: 6.00 Build 0)  -->
<svg version="1.1" id="Layer_1" xmlns="http://www.w3.org/2000/svg" xmlns:xlink="http://www.w3.org/1999/xlink" x="0px" y="0px"
	 viewBox="0 0 2486 1860" style="enable-background:new 0 0 2486 1860;" xml:space="preserve">
<style type="text/css">
	.st0{opacity:0.6;fill:#0D0F21;stroke:#000000;stroke-miterlimit:10;enable-background:new    ;}
	.st1{fill:#FFFFFF;}
</style>
<rect class="st0" width="2486" height="1860"/>
<g>
	<path class="st1" d="M282.1,972.8V724h85.3c28.1,0,49.6,5.6,64.3,16.9s22,28.1,22,50.4c0,11.4-3.1,21.6-9.2,30.8
		c-6.2,9.1-15.2,16.2-27,21.2c13.4,3.6,23.8,10.5,31.2,20.6s11,22.2,11,36.3c0,23.4-7.5,41.3-22.5,53.8
		c-15,12.5-36.4,18.8-64.3,18.8H282.1z M325.3,828.7h42.4c13.4,0,24-3,31.5-9.1c7.6-6.1,11.4-14.7,11.4-25.9
		c0-12.3-3.5-21.2-10.5-26.7s-17.9-8.2-32.7-8.2h-42V828.7z M325.3,860.5v77.4h48c13.6,0,24.2-3.3,31.8-10
		c7.6-6.7,11.5-16,11.5-27.9c0-25.7-13.2-38.9-39.6-39.5H325.3z"/>
	<path class="st1" d="M594.3,877.1h-48.2v95.7h-43.2V724h87.5c28.7,0,50.9,6.4,66.5,19.3c15.6,12.9,23.4,31.5,23.4,55.9
		c0,16.6-4,30.6-12,41.8c-8,11.2-19.2,19.9-33.6,25.9l55.9,103.6v2.2h-46.3L594.3,877.1z M546.1,842.2h44.4c14.6,0,26-3.7,34.2-11
		s12.3-17.4,12.3-30.2c0-13.3-3.8-23.6-11.4-30.9c-7.6-7.3-18.9-11-33.9-11.3h-45.6V842.2z"/>
	<path class="st1" d="M919.9,854.9c0,24.4-4.2,45.8-12.6,64.2c-8.4,18.4-20.5,32.5-36.1,42.4c-15.7,9.9-33.7,14.8-54.1,14.8
		c-20.2,0-38.1-4.9-53.9-14.8c-15.8-9.9-28-23.9-36.6-42.1c-8.6-18.2-13-39.2-13.1-63.1v-14c0-24.3,4.3-45.7,12.9-64.3
		c8.6-18.6,20.7-32.8,36.4-42.6c15.7-9.9,33.6-14.8,53.9-14.8c20.3,0,38.3,4.9,53.9,14.6c15.7,9.7,27.8,23.8,36.3,42
		s12.9,39.6,13,63.8V854.9z M876.7,841.9c0-27.6-5.2-48.7-15.6-63.4s-25.2-22-44.3-22c-18.7,0-33.3,7.3-43.8,22
		c-10.5,14.6-15.9,35.3-16.1,62.1v14.4c0,27.3,5.3,48.5,16,63.4c10.7,14.9,25.4,22.4,44.3,22.4c19.1,0,33.9-7.3,44.2-21.9
		c10.3-14.6,15.5-35.9,15.5-63.9V841.9z"/>
	<path class="st1" d="M1098.6,914.9h-96.4l-20.2,57.9h-44.9l94-248.8h38.8l94.2,248.8H1119L1098.6,914.9z M1014.4,880h72.1
		l-36.1-103.2L1014.4,880z"/>
	<path class="st1" d="M1192.3,972.8V724h73.5c22,0,41.5,4.9,58.5,14.7c17,9.8,30.2,23.7,39.6,41.7c9.3,18,14,38.6,14,61.9v12.5
		c0,23.6-4.7,44.3-14.1,62.2c-9.4,17.9-22.8,31.7-40.2,41.4c-17.4,9.7-37.3,14.5-59.7,14.5H1192.3z M1235.5,758.8v179.1h28.2
		c22.7,0,40.1-7.1,52.2-21.2c12.1-14.2,18.3-34.5,18.5-61v-13.8c0-26.9-5.9-47.5-17.6-61.7c-11.7-14.2-28.8-21.3-51.1-21.3H1235.5z"
		/>
	<path class="st1" d="M1610.8,891.8c-2.5,26.5-12.3,47.3-29.4,62.1s-39.8,22.3-68.2,22.3c-19.8,0-37.3-4.7-52.4-14.1
		c-15.1-9.4-26.7-22.8-34.9-40.1c-8.2-17.3-12.5-37.4-12.8-60.3v-23.2c0-23.5,4.2-44.1,12.5-62c8.3-17.9,20.3-31.7,35.8-41.4
		c15.6-9.7,33.5-14.5,53.9-14.5c27.5,0,49.6,7.4,66.3,22.3s26.5,35.9,29.2,63.1h-43.1c-2.1-17.9-7.3-30.8-15.6-38.7
		c-8.4-7.9-20.7-11.9-36.8-11.9c-18.8,0-33.2,6.9-43.3,20.6s-15.2,33.9-15.5,60.5v22.1c0,26.9,4.8,47.4,14.4,61.6
		c9.6,14.1,23.7,21.2,42.3,21.2c17,0,29.7-3.8,38.3-11.4c8.5-7.6,14-20.3,16.2-38.1H1610.8z"/>
	<path class="st1" d="M1788.7,914.9h-96.4l-20.2,57.9h-44.9l94-248.8h38.8l94.2,248.8h-45.1L1788.7,914.9z M1704.5,880h72.1
		l-36.1-103.2L1704.5,880z"/>
	<path class="st1" d="M2012.4,908.7c0-10.9-3.8-19.4-11.5-25.3c-7.7-5.9-21.6-11.9-41.6-17.9c-20.1-6-36-12.8-47.9-20.2
		c-22.7-14.2-34-32.8-34-55.7c0-20.1,8.2-36.6,24.5-49.6c16.3-13,37.6-19.5,63.7-19.5c17.3,0,32.8,3.2,46.3,9.6
		c13.6,6.4,24.2,15.5,32,27.3c7.7,11.8,11.6,24.9,11.6,39.2h-43.1c0-12.9-4.1-23-12.2-30.3c-8.1-7.3-19.8-10.9-34.9-10.9
		c-14.1,0-25.1,3-32.9,9c-7.8,6-11.7,14.4-11.7,25.2c0,9.1,4.2,16.7,12.6,22.7c8.4,6.1,22.3,12,41.7,17.7
		c19.4,5.7,34.9,12.3,46.7,19.6c11.7,7.3,20.3,15.8,25.8,25.3c5.5,9.5,8.2,20.7,8.2,33.4c0,20.7-7.9,37.2-23.8,49.5
		c-15.9,12.2-37.5,18.4-64.7,18.4c-18,0-34.6-3.3-49.6-10c-15.1-6.7-26.8-15.9-35.2-27.6c-8.4-11.7-12.6-25.4-12.6-41h43.2
		c0,14.1,4.7,25.1,14,32.8c9.3,7.7,22.7,11.6,40.2,11.6c15,0,26.3-3,33.9-9.1C2008.7,926.8,2012.4,918.7,2012.4,908.7z"/>
	<path class="st1" d="M2273.4,758.8h-77.6v214h-42.9v-214H2076V724h197.4V758.8z"/>
</g>
</svg>
