<?xml version="1.0" encoding="utf-8"?>
<!-- Generator: Adobe Illustrator 19.2.0, SVG Export Plug-In . SVG Version: 6.00 Build 0)  -->
<svg version="1.1" id="Layer_1" xmlns="http://www.w3.org/2000/svg" xmlns:xlink="http://www.w3.org/1999/xlink" x="0px" y="0px"
	 viewBox="0 0 2486 1860" style="enable-background:new 0 0 2486 1860;" xml:space="preserve">
<style type="text/css">
	.st0{opacity:0.6;fill:#0D0F21;stroke:#000000;stroke-miterlimit:10;enable-background:new    ;}
	.st1{fill:#FFFFFF;}
</style>
<rect class="st0" width="2486" height="1860"/>
<g>
	<path class="st1" d="M712.5,809H668L553.9,627.4V809h-44.5V553.1h44.5l114.4,182.3V553.1h44.1V809z"/>
	<path class="st1" d="M914.6,694.7H809.5v78.4h122.9V809H765.1V553.1h166.1v35.9H809.5v70.7h105.1V694.7z"/>
	<path class="st1" d="M1169.3,745.7l39.4-192.7h44.1L1193.8,809h-42.5l-48.7-186.9L1052.8,809h-42.7L951,553.1h44.1l39.7,192.3
		l48.9-192.3h37.3L1169.3,745.7z"/>
	<path class="st1" d="M1549.4,588.9h-79.8V809h-44.1V588.9h-79.1v-35.9h203V588.9z"/>
	<path class="st1" d="M1705.1,749.4H1606l-20.7,59.6H1539l96.7-255.9h39.9l96.9,255.9H1726L1705.1,749.4z M1618.5,713.6h74.2
		l-37.1-106.2L1618.5,713.6z"/>
	<path class="st1" d="M1801.5,809V553.1h87.7c28.9,0,51,5.8,66.1,17.4s22.7,28.9,22.7,51.9c0,11.7-3.2,22.3-9.5,31.6
		c-6.3,9.4-15.6,16.6-27.8,21.8c13.8,3.8,24.5,10.8,32.1,21.2s11.3,22.8,11.3,37.4c0,24-7.7,42.5-23.1,55.4
		c-15.4,12.9-37.5,19.3-66.2,19.3H1801.5z M1845.9,660.8h43.6c13.8,0,24.6-3.1,32.4-9.4c7.8-6.3,11.7-15.1,11.7-26.6
		c0-12.7-3.6-21.8-10.8-27.4s-18.4-8.4-33.7-8.4h-43.2V660.8z M1845.9,693.5v79.6h49.4c13.9,0,24.8-3.4,32.7-10.3
		c7.8-6.9,11.8-16.5,11.8-28.7c0-26.5-13.6-40-40.8-40.6H1845.9z"/>
	<path class="st1" d="M871.8,1146.1v94.9h-44.5V985.1h97.9c28.6,0,51.3,7.5,68.1,22.3c16.8,14.9,25.2,34.6,25.2,59.1
		c0,25.1-8.2,44.6-24.7,58.6c-16.5,14-39.5,20.9-69.2,20.9H871.8z M871.8,1110.2h53.4c15.8,0,27.9-3.7,36.2-11.2
		c8.3-7.4,12.5-18.2,12.5-32.3c0-13.8-4.2-24.9-12.7-33.1s-20-12.5-34.8-12.7h-54.7V1110.2z"/>
	<path class="st1" d="M1169.4,1181.4h-99.1l-20.7,59.6h-46.2l96.7-255.9h39.9l96.9,255.9h-46.4L1169.4,1181.4z M1082.8,1145.6h74.2
		l-37.1-106.2L1082.8,1145.6z"/>
	<path class="st1" d="M1458.2,1207.8c-9.3,12.1-22.1,21.2-38.5,27.4c-16.4,6.2-35,9.3-55.9,9.3c-21.4,0-40.4-4.9-57-14.6
		c-16.5-9.7-29.3-23.6-38.2-41.7s-13.6-39.2-14-63.4v-20c0-38.7,9.3-68.9,27.8-90.6c18.5-21.7,44.4-32.6,77.5-32.6
		c28.5,0,51.1,7.1,67.9,21.2c16.8,14.1,26.8,34.4,30.2,60.9h-43.6c-4.9-30.8-22.8-46.2-53.6-46.2c-19.9,0-35.1,7.2-45.4,21.5
		s-15.7,35.3-16.1,63v19.6c0,27.6,5.8,49,17.5,64.2c11.7,15.3,27.9,22.9,48.6,22.9c22.7,0,38.9-5.1,48.5-15.4v-49.8h-52.7v-33.8h97
		V1207.8z"/>
	<path class="st1" d="M1656.7,1126.7h-105.1v78.4h122.9v35.9h-167.3V985.1h166.1v35.9h-121.6v70.7h105.1V1126.7z"/>
</g>
</svg>
