<?xml version="1.0" encoding="utf-8"?>
<!-- Generator: Adobe Illustrator 19.2.0, SVG Export Plug-In . SVG Version: 6.00 Build 0)  -->
<svg version="1.1" id="Layer_1" xmlns="http://www.w3.org/2000/svg" xmlns:xlink="http://www.w3.org/1999/xlink" x="0px" y="0px"
	 viewBox="0 0 2486 1860" style="enable-background:new 0 0 2486 1860;" xml:space="preserve">
<style type="text/css">
	.st0{opacity:0.6;fill:#0D0F21;stroke:#000000;stroke-miterlimit:10;enable-background:new    ;}
	.st1{fill:#FFFFFF;}
</style>
<rect class="st0" width="2486" height="1860"/>
<g>
	<path class="st1" d="M535,916.7v87.7h-51.3V755.5h97.1c18.7,0,35.1,3.4,49.3,10.3s25.1,16.5,32.7,29.1c7.6,12.6,11.5,26.9,11.5,43
		c0,24.4-8.3,43.6-25,57.7c-16.7,14.1-39.8,21.1-69.3,21.1H535z M535,875.1h45.8c13.6,0,23.9-3.2,31-9.6
		c7.1-6.4,10.7-15.5,10.7-27.3c0-12.2-3.6-22-10.8-29.6S594.6,797.3,582,797h-47V875.1z"/>
	<path class="st1" d="M760.8,963.2h108.9v41.2H709.5V755.5h51.3V963.2z"/>
	<path class="st1" d="M1083.2,755.5v163.9c0,27.2-8.5,48.8-25.5,64.6c-17,15.8-40.3,23.8-69.8,23.8c-29.1,0-52.1-7.7-69.2-23.1
		s-25.8-36.5-26.1-63.4V755.5h51.3v164.2c0,16.3,3.9,28.2,11.7,35.6c7.8,7.5,18.6,11.2,32.4,11.2c28.8,0,43.5-15.2,43.9-45.5V755.5
		H1083.2z"/>
	<path class="st1" d="M1192.3,755.5l63.9,180.5l63.6-180.5h67.3v248.8h-51.4v-68l5.1-117.4l-67.2,185.4h-35.2l-67-185.3l5.1,117.2
		v68h-51.3V755.5H1192.3z"/>
	<path class="st1" d="M1431.9,1004.3V755.5h87.2c30.2,0,53.1,5.8,68.7,17.3c15.6,11.6,23.4,28.5,23.4,50.8c0,12.2-3.1,22.9-9.4,32.2
		c-6.3,9.3-15,16.1-26.1,20.4c12.8,3.2,22.8,9.6,30.2,19.3c7.3,9.7,11,21.5,11,35.5c0,23.9-7.6,42-22.9,54.3
		c-15.3,12.3-37,18.6-65.3,18.8H1431.9z M1483.2,859.8h37.9c25.9-0.5,38.8-10.8,38.8-30.9c0-11.3-3.3-19.4-9.8-24.4
		c-6.6-5-16.9-7.4-31-7.4h-35.9V859.8z M1483.2,896v67.2h43.9c12.1,0,21.5-2.9,28.3-8.6c6.8-5.8,10.2-13.7,10.2-23.8
		c0-22.8-11.8-34.4-35.4-34.7H1483.2z"/>
	<path class="st1" d="M1805,896.2h-98.4v67H1822v41.2h-166.8V755.5h166.5V797h-115.2v59.3h98.4V896.2z"/>
	<path class="st1" d="M1944.2,913.3h-40.8v91.1h-51.3V755.5h92.5c29.4,0,52.1,6.6,68,19.7c15.9,13.1,23.9,31.6,23.9,55.5
		c0,17-3.7,31.1-11,42.5c-7.3,11.3-18.5,20.4-33.4,27.1l53.8,101.7v2.4h-55L1944.2,913.3z M1903.4,871.7h41.4
		c12.9,0,22.8-3.3,29.9-9.8c7.1-6.5,10.6-15.6,10.6-27.1c0-11.7-3.3-21-10-27.7c-6.7-6.7-16.9-10.1-30.7-10.1h-41.2V871.7z"/>
</g>
</svg>
