<?xml version="1.0" encoding="utf-8"?>
<!-- Generator: Adobe Illustrator 19.2.0, SVG Export Plug-In . SVG Version: 6.00 Build 0)  -->
<svg version="1.1" id="Layer_1" xmlns="http://www.w3.org/2000/svg" xmlns:xlink="http://www.w3.org/1999/xlink" x="0px" y="0px"
	 viewBox="0 0 2486 1860" style="enable-background:new 0 0 2486 1860;" xml:space="preserve">
<style type="text/css">
	.st0{opacity:0.6;fill:#0D0F21;stroke:#000000;stroke-miterlimit:10;enable-background:new    ;}
	.st1{fill:#FFFFFF;}
</style>
<rect class="st0" width="2486" height="1860"/>
<g>
	<path class="st1" d="M467.8,737.5v92.3h-43.2V581h95.2c27.8,0,49.9,7.2,66.2,21.7c16.3,14.5,24.5,33.6,24.5,57.5
		c0,24.4-8,43.4-24,57c-16,13.6-38.4,20.4-67.2,20.4H467.8z M467.8,702.7h52c15.4,0,27.1-3.6,35.2-10.9c8.1-7.2,12.1-17.7,12.1-31.4
		c0-13.4-4.1-24.2-12.3-32.2s-19.5-12.2-33.8-12.4h-53.1V702.7z"/>
	<path class="st1" d="M793.7,718.7H691.5v76.2H811v34.9H648.3V581h161.5v34.9H691.5v68.7h102.2V718.7z"/>
	<path class="st1" d="M937.6,734.1h-48.2v95.7h-43.2V581h87.5c28.7,0,50.9,6.4,66.5,19.3c15.6,12.9,23.4,31.5,23.4,55.9
		c0,16.6-4,30.6-12,41.8c-8,11.2-19.2,19.9-33.6,25.9l55.9,103.6v2.2h-46.3L937.6,734.1z M889.4,699.2h44.4c14.6,0,26-3.7,34.2-11
		s12.3-17.4,12.3-30.2c0-13.3-3.8-23.6-11.4-30.9c-7.6-7.3-18.9-11-33.9-11.3h-45.6V699.2z"/>
	<path class="st1" d="M1194.6,765.7c0-10.9-3.8-19.4-11.5-25.3c-7.7-5.9-21.6-11.9-41.6-17.9c-20.1-6-36-12.8-47.9-20.2
		c-22.7-14.2-34-32.8-34-55.7c0-20.1,8.2-36.6,24.5-49.6c16.3-13,37.6-19.5,63.7-19.5c17.3,0,32.8,3.2,46.3,9.6
		c13.6,6.4,24.2,15.5,32,27.3c7.7,11.8,11.6,24.9,11.6,39.2h-43.1c0-12.9-4.1-23-12.2-30.3c-8.1-7.3-19.8-10.9-34.9-10.9
		c-14.1,0-25.1,3-32.9,9c-7.8,6-11.7,14.4-11.7,25.2c0,9.1,4.2,16.7,12.6,22.7c8.4,6.1,22.3,12,41.7,17.7
		c19.4,5.7,34.9,12.3,46.7,19.6c11.7,7.3,20.3,15.8,25.8,25.3c5.5,9.5,8.2,20.7,8.2,33.4c0,20.7-7.9,37.2-23.8,49.5
		c-15.9,12.2-37.5,18.4-64.7,18.4c-18,0-34.6-3.3-49.6-10c-15.1-6.7-26.8-15.9-35.2-27.6c-8.4-11.7-12.6-25.4-12.6-41h43.2
		c0,14.1,4.7,25.1,14,32.8c9.3,7.7,22.7,11.6,40.2,11.6c15,0,26.3-3,33.9-9.1C1190.8,783.8,1194.6,775.7,1194.6,765.7z"/>
	<path class="st1" d="M1474.4,711.9c0,24.4-4.2,45.8-12.6,64.2c-8.4,18.4-20.5,32.5-36.1,42.4c-15.7,9.9-33.7,14.8-54.1,14.8
		c-20.2,0-38.1-4.9-53.9-14.8c-15.8-9.9-28-23.9-36.6-42.1c-8.6-18.2-13-39.2-13.1-63.1v-14c0-24.3,4.3-45.7,12.9-64.3
		c8.6-18.6,20.7-32.8,36.4-42.6c15.7-9.9,33.6-14.8,53.9-14.8c20.3,0,38.3,4.9,53.9,14.6c15.7,9.7,27.8,23.8,36.3,42
		s12.9,39.6,13,63.8V711.9z M1431.2,698.9c0-27.6-5.2-48.7-15.6-63.4s-25.2-22-44.3-22c-18.7,0-33.3,7.3-43.8,22
		c-10.5,14.6-15.9,35.3-16.1,62.1v14.4c0,27.3,5.3,48.5,16,63.4c10.7,14.9,25.4,22.4,44.3,22.4c19.1,0,33.9-7.3,44.2-21.9
		c10.3-14.6,15.5-35.9,15.5-63.9V698.9z"/>
	<path class="st1" d="M1714.9,829.8h-43.2l-110.9-176.5v176.5h-43.2V581h43.2L1672,758.2V581h42.9V829.8z"/>
	<path class="st1" d="M1908.3,771.9h-96.4l-20.2,57.9h-44.9l94-248.8h38.8l94.2,248.8h-45.1L1908.3,771.9z M1824.1,737h72.1
		l-36.1-103.2L1824.1,737z"/>
	<path class="st1" d="M2045.2,794.9h113v34.9H2002V581h43.2V794.9z"/>
	<path class="st1" d="M921.8,1157.5v92.3h-43.2V1001h95.2c27.8,0,49.9,7.2,66.2,21.7c16.3,14.5,24.5,33.6,24.5,57.5
		c0,24.4-8,43.4-24,57c-16,13.6-38.4,20.4-67.2,20.4H921.8z M921.8,1122.7h52c15.4,0,27.1-3.6,35.2-10.9
		c8.1-7.2,12.1-17.7,12.1-31.4c0-13.4-4.1-24.2-12.3-32.2s-19.5-12.2-33.8-12.4h-53.1V1122.7z"/>
	<path class="st1" d="M1211.1,1191.9h-96.4l-20.2,57.9h-44.9l94-248.8h38.8l94.2,248.8h-45.1L1211.1,1191.9z M1126.9,1157h72.1
		l-36.1-103.2L1126.9,1157z"/>
	<path class="st1" d="M1491.9,1217.5c-9,11.7-21.5,20.6-37.4,26.7c-16,6-34.1,9.1-54.3,9.1c-20.8,0-39.3-4.7-55.4-14.2
		c-16.1-9.5-28.5-23-37.2-40.6s-13.2-38.1-13.6-61.6v-19.5c0-37.6,9-67,27-88.1c18-21.1,43.1-31.7,75.4-31.7
		c27.7,0,49.7,6.9,66,20.6c16.3,13.7,26.1,33.5,29.4,59.2h-42.4c-4.8-30-22.2-44.9-52.1-44.9c-19.4,0-34.1,7-44.2,20.9
		c-10.1,13.9-15.3,34.3-15.6,61.3v19.1c0,26.8,5.7,47.6,17,62.5c11.3,14.8,27.1,22.2,47.3,22.2c22.1,0,37.8-5,47.2-15V1155h-51.3
		v-32.8h94.3V1217.5z"/>
	<path class="st1" d="M1684.9,1138.7h-102.2v76.2h119.5v34.9h-162.7V1001h161.5v34.9h-118.3v68.7h102.2V1138.7z"/>
</g>
</svg>
