<?xml version="1.0" encoding="utf-8"?>
<!-- Generator: Adobe Illustrator 19.2.0, SVG Export Plug-In . SVG Version: 6.00 Build 0)  -->
<svg version="1.1" id="Layer_1" xmlns="http://www.w3.org/2000/svg" xmlns:xlink="http://www.w3.org/1999/xlink" x="0px" y="0px"
	 viewBox="0 0 2486 1860" style="enable-background:new 0 0 2486 1860;" xml:space="preserve">
<style type="text/css">
	.st0{opacity:0.6;fill:#0D0F21;stroke:#000000;stroke-miterlimit:10;enable-background:new    ;}
	.st1{enable-background:new    ;}
	.st2{fill:#FFFFFF;}
</style>
<rect class="st0" width="2486" height="1860"/>
<g class="st1">
	<path class="st2" d="M253.1,877.5h-48.2v95.7h-43.2V724.4h87.5c28.7,0,50.9,6.4,66.5,19.3c15.6,12.9,23.4,31.5,23.4,55.9
		c0,16.6-4,30.6-12,41.8c-8,11.2-19.2,19.9-33.6,25.9L349.3,971v2.2H303L253.1,877.5z M204.9,842.6h44.4c14.6,0,26-3.7,34.2-11
		c8.2-7.3,12.3-17.4,12.3-30.2c0-13.3-3.8-23.6-11.4-30.9c-7.6-7.3-18.9-11-33.9-11.3h-45.6V842.6z"/>
	<path class="st2" d="M525.5,862.1H423.3v76.2h119.5v34.9H380V724.4h161.5v34.9H423.3v68.7h102.2V862.1z"/>
	<path class="st2" d="M708,909.1c0-10.9-3.8-19.4-11.5-25.3c-7.7-5.9-21.6-11.9-41.6-17.9c-20.1-6-36-12.8-47.9-20.2
		c-22.7-14.2-34-32.8-34-55.7c0-20.1,8.2-36.6,24.5-49.6c16.3-13,37.6-19.5,63.7-19.5c17.3,0,32.8,3.2,46.3,9.6
		c13.6,6.4,24.2,15.5,32,27.3c7.7,11.8,11.6,24.9,11.6,39.2H708c0-12.9-4.1-23-12.2-30.3c-8.1-7.3-19.8-10.9-34.9-10.9
		c-14.1,0-25.1,3-32.9,9c-7.8,6-11.7,14.4-11.7,25.2c0,9.1,4.2,16.7,12.6,22.7c8.4,6.1,22.3,12,41.7,17.7
		c19.4,5.7,34.9,12.3,46.7,19.6c11.7,7.3,20.3,15.8,25.8,25.3c5.5,9.5,8.2,20.7,8.2,33.4c0,20.7-7.9,37.2-23.8,49.5
		c-15.9,12.2-37.5,18.4-64.7,18.4c-18,0-34.6-3.3-49.6-10c-15.1-6.7-26.8-15.9-35.2-27.6c-8.4-11.7-12.6-25.4-12.6-41h43.2
		c0,14.1,4.7,25.1,14,32.8c9.3,7.7,22.7,11.6,40.2,11.6c15,0,26.3-3,33.9-9.1C704.2,927.2,708,919.1,708,909.1z"/>
	<path class="st2" d="M969,759.2h-77.6v214h-42.9v-214h-76.9v-34.9H969V759.2z"/>
	<path class="st2" d="M1120.4,915.2H1024l-20.2,57.9h-44.9l94-248.8h38.8l94.2,248.8h-45.1L1120.4,915.2z M1036.1,880.4h72.1
		l-36.1-103.2L1036.1,880.4z"/>
	<path class="st2" d="M1393.1,724.4v166.3c0,26.4-8.5,47.4-25.4,62.8c-16.9,15.4-39.5,23.2-67.6,23.2c-28.5,0-51.1-7.6-67.8-22.8
		c-16.7-15.2-25.1-36.3-25.1-63.3V724.4h43.1v166.2c0,16.6,4.2,29.3,12.6,38.1c8.4,8.8,20.8,13.1,37.3,13.1
		c33.3,0,49.9-17.5,49.9-52.6V724.4H1393.1z"/>
	<path class="st2" d="M1530.7,877.5h-48.2v95.7h-43.2V724.4h87.5c28.7,0,50.9,6.4,66.5,19.3c15.6,12.9,23.4,31.5,23.4,55.9
		c0,16.6-4,30.6-12,41.8c-8,11.2-19.2,19.9-33.6,25.9l55.9,103.6v2.2h-46.3L1530.7,877.5z M1482.5,842.6h44.4c14.6,0,26-3.7,34.2-11
		c8.2-7.3,12.3-17.4,12.3-30.2c0-13.3-3.8-23.6-11.4-30.9c-7.6-7.3-18.9-11-33.9-11.3h-45.6V842.6z"/>
	<path class="st2" d="M1797,915.2h-96.4l-20.2,57.9h-44.9l94-248.8h38.8l94.2,248.8h-45.1L1797,915.2z M1712.7,880.4h72.1
		l-36.1-103.2L1712.7,880.4z"/>
	<path class="st2" d="M2088,973.2h-43.2l-110.9-176.5v176.5h-43.2V724.4h43.2l111.3,177.2V724.4h42.9V973.2z"/>
	<path class="st2" d="M2313.9,759.2h-77.6v214h-42.9v-214h-76.9v-34.9h197.4V759.2z"/>
</g>
</svg>
