<?xml version="1.0" encoding="utf-8"?>
<!-- Generator: Adobe Illustrator 19.2.0, SVG Export Plug-In . SVG Version: 6.00 Build 0)  -->
<svg version="1.1" id="Layer_1" xmlns="http://www.w3.org/2000/svg" xmlns:xlink="http://www.w3.org/1999/xlink" x="0px" y="0px"
	 viewBox="0 0 2486 1860" style="enable-background:new 0 0 2486 1860;" xml:space="preserve">
<style type="text/css">
	.st0{opacity:0.6;fill:#0D0F21;stroke:#000000;stroke-miterlimit:10;enable-background:new    ;}
	.st1{enable-background:new    ;}
	.st2{fill:#FFFFFF;}
</style>
<rect class="st0" width="2486" height="1860"/>
<g class="st1">
	<path class="st2" d="M1080.3,643.3h-48.2V739h-43.2V490.2h87.5c28.7,0,50.9,6.4,66.5,19.3c15.6,12.9,23.4,31.5,23.4,55.9
		c0,16.6-4,30.6-12,41.8c-8,11.2-19.2,19.9-33.6,25.9l55.9,103.6v2.2h-46.3L1080.3,643.3z M1032.1,608.4h44.4c14.6,0,26-3.7,34.2-11
		c8.2-7.3,12.3-17.4,12.3-30.2c0-13.3-3.8-23.6-11.4-30.9c-7.6-7.3-18.9-11-33.9-11.3h-45.6V608.4z"/>
	<path class="st2" d="M1252.9,739h-43.1V490.2h43.1V739z"/>
	<path class="st2" d="M1504.6,621.1c0,24.4-4.2,45.8-12.6,64.2c-8.4,18.4-20.5,32.5-36.1,42.4c-15.7,9.9-33.7,14.8-54.1,14.8
		c-20.2,0-38.1-4.9-53.9-14.8c-15.8-9.9-28-23.9-36.6-42.1c-8.6-18.2-13-39.2-13.1-63.1v-14c0-24.3,4.3-45.7,12.9-64.3
		c8.6-18.6,20.7-32.8,36.4-42.6c15.7-9.9,33.6-14.8,53.9-14.8c20.3,0,38.3,4.9,53.9,14.6c15.7,9.7,27.8,23.8,36.3,42
		c8.5,18.3,12.9,39.6,13,63.8V621.1z M1461.4,608.1c0-27.6-5.2-48.7-15.6-63.4c-10.4-14.7-25.2-22-44.3-22c-18.7,0-33.3,7.3-43.8,22
		c-10.5,14.6-15.9,35.3-16.1,62.1v14.4c0,27.3,5.3,48.5,16,63.4c10.7,14.9,25.4,22.4,44.3,22.4c19.1,0,33.9-7.3,44.2-21.9
		c10.3-14.6,15.5-35.9,15.5-63.9V608.1z"/>
</g>
<g class="st1">
	<path class="st2" d="M610.5,1041.1c0,24.4-4.2,45.8-12.6,64.2c-8.4,18.4-20.5,32.5-36.1,42.4c-15.7,9.9-33.7,14.8-54.1,14.8
		c-20.2,0-38.1-4.9-53.9-14.8c-15.8-9.9-28-23.9-36.6-42.1c-8.6-18.2-13-39.2-13.1-63.1v-14c0-24.3,4.3-45.7,12.9-64.3
		c8.6-18.6,20.7-32.8,36.4-42.6c15.7-9.9,33.6-14.8,53.9-14.8c20.3,0,38.3,4.9,53.9,14.6c15.7,9.7,27.8,23.8,36.3,42
		c8.5,18.3,12.9,39.6,13,63.8V1041.1z M567.2,1028.1c0-27.6-5.2-48.7-15.6-63.4s-25.2-22-44.3-22c-18.7,0-33.3,7.3-43.8,22
		c-10.5,14.6-15.9,35.3-16.1,62.1v14.4c0,27.3,5.3,48.5,16,63.4c10.7,14.9,25.4,22.4,44.3,22.4c19.1,0,33.9-7.3,44.2-21.9
		c10.3-14.6,15.5-35.9,15.5-63.9V1028.1z"/>
	<path class="st2" d="M696.8,1124.1h113v34.9H653.5V910.2h43.2V1124.1z"/>
	<path class="st2" d="M876.4,1028.1l57.3-117.9h47.9l-83.4,157.2v91.6h-43.4v-91.6l-83.6-157.2h48L876.4,1028.1z"/>
	<path class="st2" d="M1064.5,910.2l71.8,190.7l71.6-190.7h55.9V1159h-43.1v-82l4.3-109.7l-73.5,191.7h-30.9l-73.3-191.6l4.3,109.5
		v82h-43.1V910.2H1064.5z"/>
	<path class="st2" d="M1358.1,1066.7v92.3h-43.2V910.2h95.2c27.8,0,49.9,7.2,66.2,21.7c16.3,14.5,24.5,33.6,24.5,57.5
		c0,24.4-8,43.4-24,57c-16,13.6-38.4,20.4-67.2,20.4H1358.1z M1358.1,1031.9h52c15.4,0,27.1-3.6,35.2-10.9
		c8.1-7.2,12.1-17.7,12.1-31.4c0-13.4-4.1-24.2-12.3-32.2c-8.2-8-19.5-12.2-33.8-12.4h-53.1V1031.9z"/>
	<path class="st2" d="M1584.2,1159h-43.1V910.2h43.1V1159z"/>
	<path class="st2" d="M1827.3,1078c-2.5,26.5-12.3,47.3-29.4,62.1c-17.1,14.9-39.8,22.3-68.2,22.3c-19.8,0-37.3-4.7-52.4-14.1
		c-15.1-9.4-26.7-22.8-34.9-40.1c-8.2-17.3-12.5-37.4-12.8-60.3v-23.2c0-23.5,4.2-44.1,12.5-62c8.3-17.9,20.3-31.7,35.8-41.4
		c15.6-9.7,33.5-14.5,53.9-14.5c27.5,0,49.6,7.4,66.3,22.3c16.7,14.9,26.5,35.9,29.2,63.1h-43.1c-2.1-17.9-7.3-30.8-15.6-38.7
		c-8.4-7.9-20.7-11.9-36.8-11.9c-18.8,0-33.2,6.9-43.3,20.6c-10.1,13.7-15.2,33.9-15.5,60.5v22.1c0,26.9,4.8,47.4,14.4,61.6
		c9.6,14.1,23.7,21.2,42.3,21.2c17,0,29.7-3.8,38.3-11.5c8.5-7.6,14-20.3,16.2-38.1H1827.3z"/>
	<path class="st2" d="M1995.9,1094.9c0-10.9-3.8-19.4-11.5-25.3c-7.7-5.9-21.6-11.9-41.6-17.9c-20.1-6-36-12.8-47.9-20.2
		c-22.7-14.2-34-32.8-34-55.7c0-20.1,8.2-36.6,24.5-49.6c16.3-13,37.6-19.5,63.7-19.5c17.3,0,32.8,3.2,46.3,9.6
		c13.6,6.4,24.2,15.5,32,27.3c7.7,11.8,11.6,24.9,11.6,39.2h-43.1c0-12.9-4.1-23-12.2-30.3c-8.1-7.3-19.8-10.9-34.9-10.9
		c-14.1,0-25.1,3-32.9,9c-7.8,6-11.7,14.4-11.7,25.2c0,9.1,4.2,16.7,12.6,22.7c8.4,6.1,22.3,12,41.7,17.7
		c19.4,5.7,34.9,12.3,46.7,19.6c11.7,7.3,20.3,15.8,25.8,25.3c5.5,9.5,8.2,20.7,8.2,33.4c0,20.7-7.9,37.2-23.8,49.5
		c-15.9,12.2-37.5,18.4-64.7,18.4c-18,0-34.6-3.3-49.6-10c-15.1-6.7-26.8-15.9-35.2-27.6c-8.4-11.7-12.6-25.4-12.6-41h43.2
		c0,14.1,4.7,25.1,14,32.8c9.3,7.7,22.7,11.6,40.2,11.6c15,0,26.3-3,33.9-9.1C1992.1,1113,1995.9,1104.9,1995.9,1094.9z"/>
</g>
</svg>
