<?xml version="1.0" encoding="utf-8"?>
<!-- Generator: Adobe Illustrator 19.2.0, SVG Export Plug-In . SVG Version: 6.00 Build 0)  -->
<svg version="1.1" id="Layer_1" xmlns="http://www.w3.org/2000/svg" xmlns:xlink="http://www.w3.org/1999/xlink" x="0px" y="0px"
	 viewBox="0 0 2486 1860" style="enable-background:new 0 0 2486 1860;" xml:space="preserve">
<style type="text/css">
	.st0{opacity:0.6;fill:#0D0F21;stroke:#000000;stroke-miterlimit:10;enable-background:new    ;}
	.st1{enable-background:new    ;}
	.st2{fill:#FFFFFF;}
</style>
<rect class="st0" width="2486" height="1860"/>
<g class="st1">
	<path class="st2" d="M809.3,759.2h-77.6v214h-42.9v-214H612v-34.9h197.4V759.2z"/>
	<path class="st2" d="M933.4,877.5h-48.2v95.7H842V724.4h87.5c28.7,0,50.9,6.4,66.5,19.3c15.6,12.9,23.4,31.5,23.4,55.9
		c0,16.6-4,30.6-12,41.8c-8,11.2-19.2,19.9-33.6,25.9l55.9,103.6v2.2h-46.3L933.4,877.5z M885.2,842.6h44.4c14.6,0,26-3.7,34.2-11
		c8.2-7.3,12.3-17.4,12.3-30.2c0-13.3-3.8-23.6-11.4-30.9c-7.6-7.3-18.9-11-33.9-11.3h-45.6V842.6z"/>
	<path class="st2" d="M1199.7,915.2h-96.4l-20.2,57.9h-44.9l94-248.8h38.8l94.2,248.8H1220L1199.7,915.2z M1115.4,880.4h72.1
		l-36.1-103.2L1115.4,880.4z"/>
	<path class="st2" d="M1367.8,919l63.2-194.7h47.5L1389,973.2h-41.9L1258,724.4h47.3L1367.8,919z"/>
	<path class="st2" d="M1652,862.1h-102.2v76.2h119.5v34.9h-162.7V724.4h161.5v34.9h-118.3v68.7H1652V862.1z"/>
	<path class="st2" d="M1747.7,938.3h113v34.9h-156.2V724.4h43.2V938.3z"/>
</g>
</svg>
