<?xml version="1.0" encoding="utf-8"?>
<!-- Generator: Adobe Illustrator 19.2.0, SVG Export Plug-In . SVG Version: 6.00 Build 0)  -->
<svg version="1.1" id="Layer_1" xmlns="http://www.w3.org/2000/svg" xmlns:xlink="http://www.w3.org/1999/xlink" x="0px" y="0px"
	 viewBox="0 0 2486 1860" style="enable-background:new 0 0 2486 1860;" xml:space="preserve">
<style type="text/css">
	.st0{opacity:0.6;fill:#0D0F21;stroke:#000000;stroke-miterlimit:10;enable-background:new    ;}
	.st1{fill:#FFFFFF;}
</style>
<rect class="st0" width="2486" height="1860"/>
<g>
	<path class="st1" d="M491.1,726v166.3c0,26.4-8.5,47.4-25.4,62.8c-16.9,15.4-39.5,23.2-67.6,23.2c-28.5,0-51.1-7.6-67.8-22.8
		s-25.1-36.3-25.1-63.3V726h43.1v166.2c0,16.6,4.2,29.3,12.6,38.1c8.4,8.8,20.8,13.1,37.3,13.1c33.3,0,49.9-17.5,49.9-52.6V726
		H491.1z"/>
	<path class="st1" d="M734.7,974.8h-43.2L580.5,798.3v176.5h-43.2V726h43.2l111.3,177.2V726h42.9V974.8z"/>
	<path class="st1" d="M831.4,974.8h-43.1V726h43.1V974.8z"/>
	<path class="st1" d="M972.2,920.6l63.2-194.7h47.5l-89.6,248.8h-41.9L862.3,726h47.3L972.2,920.6z"/>
	<path class="st1" d="M1256.4,863.7h-102.2v76.2h119.5v34.9H1111V726h161.5v34.9h-118.3v68.7h102.2V863.7z"/>
	<path class="st1" d="M1400.3,879.1h-48.2v95.7h-43.2V726h87.5c28.7,0,50.9,6.4,66.5,19.3c15.6,12.9,23.4,31.5,23.4,55.9
		c0,16.6-4,30.6-12,41.8c-8,11.2-19.2,19.9-33.6,25.9l55.9,103.6v2.2h-46.3L1400.3,879.1z M1352.1,844.2h44.4c14.6,0,26-3.7,34.2-11
		s12.3-17.4,12.3-30.2c0-13.3-3.8-23.6-11.4-30.9c-7.6-7.3-18.9-11-33.9-11.3h-45.6V844.2z"/>
	<path class="st1" d="M1657.3,910.7c0-10.9-3.8-19.4-11.5-25.3c-7.7-5.9-21.6-11.9-41.6-17.9c-20.1-6-36-12.8-47.9-20.2
		c-22.7-14.2-34-32.8-34-55.7c0-20.1,8.2-36.6,24.5-49.6c16.3-13,37.6-19.5,63.7-19.5c17.3,0,32.8,3.2,46.3,9.6
		c13.6,6.4,24.2,15.5,32,27.3c7.7,11.8,11.6,24.9,11.6,39.2h-43.1c0-12.9-4.1-23-12.2-30.3c-8.1-7.3-19.8-10.9-34.9-10.9
		c-14.1,0-25.1,3-32.9,9c-7.8,6-11.7,14.4-11.7,25.2c0,9.1,4.2,16.7,12.6,22.7c8.4,6.1,22.3,12,41.7,17.7
		c19.4,5.7,34.9,12.3,46.7,19.6c11.7,7.3,20.3,15.8,25.8,25.3c5.5,9.5,8.2,20.7,8.2,33.4c0,20.7-7.9,37.2-23.8,49.5
		c-15.9,12.2-37.5,18.4-64.7,18.4c-18,0-34.6-3.3-49.6-10c-15.1-6.7-26.8-15.9-35.2-27.6c-8.4-11.7-12.6-25.4-12.6-41h43.2
		c0,14.1,4.7,25.1,14,32.8c9.3,7.7,22.7,11.6,40.2,11.6c15,0,26.3-3,33.9-9.1C1653.5,928.8,1657.3,920.7,1657.3,910.7z"/>
	<path class="st1" d="M1784.1,974.8h-43.1V726h43.1V974.8z"/>
	<path class="st1" d="M2012.1,760.8h-77.6v214h-42.9v-214h-76.9V726h197.4V760.8z"/>
	<path class="st1" d="M2128.7,843.9l57.3-117.9h47.9l-83.4,157.2v91.6H2107v-91.6L2023.4,726h48L2128.7,843.9z"/>
</g>
</svg>
