<?xml version="1.0" encoding="utf-8"?>
<!-- Generator: Adobe Illustrator 19.2.0, SVG Export Plug-In . SVG Version: 6.00 Build 0)  -->
<svg version="1.1" id="Layer_1" xmlns="http://www.w3.org/2000/svg" xmlns:xlink="http://www.w3.org/1999/xlink" x="0px" y="0px"
	 viewBox="0 0 2486 1860" style="enable-background:new 0 0 2486 1860;" xml:space="preserve">
<style type="text/css">
	.st0{opacity:0.6;fill:#0D0F21;stroke:#000000;stroke-miterlimit:10;enable-background:new    ;}
	.st1{fill:#FFFFFF;}
</style>
<rect class="st0" width="2486" height="1860"/>
<path class="st1" d="M1791.2,701.5c-105.6,0-191.2,85.6-191.2,191.2s85.6,191.2,191.2,191.2c105.6,0,191.2-85.6,191.2-191.2
	S1896.8,701.5,1791.2,701.5z M1791.2,982c-47.8,0-82.9-38.2-82.9-89.2c0-51,35.1-89.2,82.9-89.2c47.8,0,82.9,38.3,82.9,89.2
	C1874,943.7,1839,982,1791.2,982z M1230.3,892.7c0-105.6-82.8-191.2-184.8-191.2s-184.8,85.6-184.8,191.2s82.9,191.2,188,191.2
	c84,0,149.9-50.8,171.8-121.1h-111.3c-15.4,22.8-38.1,28.7-60.6,28.7c-43,0-70.4-29.6-79-70.1h258.6
	C1229.5,912.1,1230.3,902.5,1230.3,892.7z M1045.4,790.7c36.9,0,65.5,25.4,74.2,63.7H971C980.9,814.6,1007.4,790.7,1045.4,790.7z
	 M675.7,1080.8L464.4,712.7h124.4L675.7,880l86.9-167.3H887L675.7,1080.8z M1415.1,1080.8l-211.3-368.1h124.4l86.9,167.3l86.9-167.3
	h124.4L1415.1,1080.8z"/>
</svg>
