<?xml version="1.0" encoding="utf-8"?>
<!-- Generator: Adobe Illustrator 19.2.0, SVG Export Plug-In . SVG Version: 6.00 Build 0)  -->
<svg version="1.1" id="Layer_1" xmlns="http://www.w3.org/2000/svg" xmlns:xlink="http://www.w3.org/1999/xlink" x="0px" y="0px"
	 viewBox="0 0 2486 1860" style="enable-background:new 0 0 2486 1860;" xml:space="preserve">
<style type="text/css">
	.st0{opacity:0.6;fill:#0D0F21;stroke:#000000;stroke-miterlimit:10;enable-background:new    ;}
	.st1{fill:#FFFFFF;}
</style>
<rect class="st0" width="2486" height="1860"/>
<g>
	<path class="st1" d="M404.9,715.7l32.2-106.9h32.6L420.2,751h-30.6l-49.3-142.2h32.5L404.9,715.7z"/>
	<path class="st1" d="M514.3,751H485V608.8h29.3V751z"/>
	<path class="st1" d="M653.1,703.6c-1.1,15.3-6.8,27.3-16.9,36.1c-10.2,8.8-23.6,13.2-40.3,13.2c-18.2,0-32.6-6.1-43-18.4
		c-10.4-12.3-15.7-29.1-15.7-50.5v-8.7c0-13.7,2.4-25.7,7.2-36.1c4.8-10.4,11.7-18.4,20.7-24c9-5.6,19.4-8.3,31.2-8.3
		c16.4,0,29.6,4.4,39.6,13.2c10,8.8,15.8,21.1,17.4,37H624c-0.7-9.2-3.3-15.8-7.7-20c-4.4-4.1-11.1-6.2-20.1-6.2
		c-9.8,0-17.1,3.5-21.9,10.5c-4.9,7-7.3,17.9-7.5,32.6v10.7c0,15.4,2.3,26.6,7,33.7c4.7,7.1,12,10.6,22,10.6c9,0,15.8-2.1,20.3-6.2
		c4.5-4.1,7-10.5,7.7-19.2H653.1z"/>
	<path class="st1" d="M776.5,632.5h-43.6V751h-29.3V632.5h-43v-23.7h115.8V632.5z"/>
	<path class="st1" d="M907.3,683.1c0,14-2.5,26.3-7.4,36.8c-4.9,10.5-12,18.7-21.2,24.4c-9.2,5.7-19.8,8.6-31.7,8.6
		c-11.8,0-22.3-2.8-31.5-8.5c-9.2-5.7-16.4-13.8-21.5-24.3c-5.1-10.5-7.7-22.6-7.7-36.3v-7c0-14,2.5-26.3,7.6-37
		c5-10.6,12.2-18.8,21.4-24.5c9.2-5.7,19.7-8.5,31.6-8.5c11.8,0,22.4,2.8,31.6,8.5c9.2,5.7,16.3,13.9,21.4,24.5
		c5,10.6,7.6,22.9,7.6,36.9V683.1z M877.6,676.7c0-14.9-2.7-26.2-8-34c-5.3-7.7-13-11.6-22.9-11.6c-9.8,0-17.4,3.8-22.8,11.5
		c-5.3,7.7-8,18.9-8.1,33.6v6.9c0,14.5,2.7,25.8,8,33.8c5.3,8,13,12,23,12c9.8,0,17.4-3.9,22.7-11.6s7.9-19,8-33.7V676.7z"/>
	<path class="st1" d="M981.2,698.9h-23.3V751h-29.3V608.8h52.8c16.8,0,29.8,3.7,38.9,11.2c9.1,7.5,13.7,18.1,13.7,31.7
		c0,9.7-2.1,17.8-6.3,24.3c-4.2,6.5-10.6,11.6-19.1,15.5l30.8,58.1v1.4h-31.4L981.2,698.9z M957.8,675.2h23.6
		c7.4,0,13.1-1.9,17.1-5.6c4-3.7,6.1-8.9,6.1-15.5c0-6.7-1.9-12-5.7-15.8c-3.8-3.8-9.7-5.8-17.5-5.8h-23.5V675.2z"/>
	<path class="st1" d="M1100.5,672.9l29.6-64.1h32l-46.7,90.6V751h-29.8v-51.6l-46.7-90.6h32.1L1100.5,672.9z"/>
	<path class="st1" d="M1326.1,632.5h-43.6V751h-29.3V632.5h-43v-23.7h115.8V632.5z"/>
	<path class="st1" d="M1458.5,751h-29.3v-60.9h-57.1V751h-29.3V608.8h29.3v57.6h57.1v-57.6h29.3V751z"/>
	<path class="st1" d="M1536.8,698.9h-23.3V751h-29.3V608.8h52.8c16.8,0,29.8,3.7,38.9,11.2c9.1,7.5,13.7,18.1,13.7,31.7
		c0,9.7-2.1,17.8-6.3,24.3c-4.2,6.5-10.6,11.6-19.1,15.5l30.8,58.1v1.4h-31.4L1536.8,698.9z M1513.4,675.2h23.6
		c7.4,0,13.1-1.9,17.1-5.6c4-3.7,6.1-8.9,6.1-15.5c0-6.7-1.9-12-5.7-15.8c-3.8-3.8-9.7-5.8-17.5-5.8h-23.5V675.2z"/>
	<path class="st1" d="M1728.5,683.1c0,14-2.5,26.3-7.4,36.8c-4.9,10.5-12,18.7-21.2,24.4c-9.2,5.7-19.8,8.6-31.7,8.6
		c-11.8,0-22.3-2.8-31.5-8.5c-9.2-5.7-16.4-13.8-21.5-24.3c-5.1-10.5-7.7-22.6-7.7-36.3v-7c0-14,2.5-26.3,7.6-37
		c5-10.6,12.2-18.8,21.4-24.5c9.2-5.7,19.7-8.5,31.6-8.5c11.8,0,22.4,2.8,31.6,8.5c9.2,5.7,16.3,13.9,21.4,24.5
		c5,10.6,7.6,22.9,7.6,36.9V683.1z M1698.9,676.7c0-14.9-2.7-26.2-8-34c-5.3-7.7-13-11.6-22.9-11.6c-9.8,0-17.4,3.8-22.8,11.5
		c-5.3,7.7-8,18.9-8.1,33.6v6.9c0,14.5,2.7,25.8,8,33.8c5.3,8,13,12,23,12c9.8,0,17.4-3.9,22.7-11.6s7.9-19,8-33.7V676.7z"/>
	<path class="st1" d="M1857.5,608.8v93.7c0,15.6-4.9,27.9-14.6,36.9c-9.7,9-23,13.6-39.9,13.6c-16.6,0-29.8-4.4-39.6-13.2
		s-14.7-20.9-14.9-36.2v-94.7h29.3v93.8c0,9.3,2.2,16.1,6.7,20.4c4.5,4.3,10.6,6.4,18.5,6.4c16.5,0,24.8-8.7,25.1-26v-94.6H1857.5z"
		/>
	<path class="st1" d="M1994,733c-5.3,6.3-12.7,11.2-22.4,14.7c-9.6,3.5-20.3,5.2-32,5.2c-12.3,0-23.1-2.7-32.4-8.1
		s-16.4-13.2-21.5-23.4c-5-10.2-7.6-22.2-7.8-36v-9.7c0-14.2,2.4-26.5,7.2-36.9c4.8-10.4,11.7-18.3,20.7-23.8
		c9-5.5,19.6-8.3,31.7-8.3c16.9,0,30,4,39.6,12.1c9.5,8,15.1,19.7,16.9,35.1h-28.5c-1.3-8.1-4.2-14.1-8.6-17.9
		c-4.5-3.8-10.6-5.7-18.4-5.7c-10,0-17.5,3.7-22.8,11.2c-5.2,7.5-7.8,18.6-7.9,33.4v9.1c0,14.9,2.8,26.2,8.5,33.8s14,11.4,24.9,11.4
		c11,0,18.8-2.3,23.5-7v-24.5H1938v-21.6h56V733z"/>
	<path class="st1" d="M2133.4,751h-29.3v-60.9H2047V751h-29.3V608.8h29.3v57.6h57.1v-57.6h29.3V751z"/>
	<path class="st1" d="M513.8,938.9h-23.3V991h-29.3V848.8h52.8c16.8,0,29.8,3.7,38.9,11.2c9.1,7.5,13.7,18.1,13.7,31.7
		c0,9.7-2.1,17.8-6.3,24.3c-4.2,6.5-10.6,11.6-19.1,15.5l30.8,58.1v1.4h-31.4L513.8,938.9z M490.4,915.2H514
		c7.4,0,13.1-1.9,17.1-5.6c4-3.7,6.1-8.9,6.1-15.5c0-6.7-1.9-12-5.7-15.8c-3.8-3.8-9.7-5.8-17.5-5.8h-23.5V915.2z"/>
	<path class="st1" d="M619.9,991h-29.3V848.8h29.3V991z"/>
	<path class="st1" d="M759.6,973c-5.3,6.3-12.7,11.2-22.4,14.7c-9.6,3.5-20.3,5.2-32,5.2c-12.3,0-23.1-2.7-32.4-8.1
		s-16.4-13.2-21.5-23.4c-5-10.2-7.6-22.2-7.8-36v-9.7c0-14.2,2.4-26.5,7.2-36.9c4.8-10.4,11.7-18.3,20.7-23.8
		c9-5.5,19.6-8.3,31.7-8.3c16.9,0,30,4,39.6,12.1c9.5,8,15.1,19.7,16.9,35.1H731c-1.3-8.1-4.2-14.1-8.6-17.9
		c-4.5-3.8-10.6-5.7-18.4-5.7c-10,0-17.5,3.7-22.8,11.2c-5.2,7.5-7.8,18.6-7.9,33.4v9.1c0,14.9,2.8,26.2,8.5,33.8s14,11.4,24.9,11.4
		c11,0,18.8-2.3,23.5-7v-24.5h-26.7v-21.6h56V973z"/>
	<path class="st1" d="M899,991h-29.3v-60.9h-57.1V991h-29.3V848.8h29.3v57.6h57.1v-57.6H899V991z"/>
	<path class="st1" d="M1028.8,872.5h-43.6V991h-29.3V872.5h-43v-23.7h115.8V872.5z"/>
	<path class="st1" d="M1131,929.2h-56.2v38.3h66V991h-95.3V848.8h95.1v23.7h-65.8v33.9h56.2V929.2z"/>
	<path class="st1" d="M1274.8,923.1c0,14-2.5,26.3-7.4,36.8c-4.9,10.5-12,18.7-21.2,24.4c-9.2,5.7-19.8,8.6-31.7,8.6
		c-11.8,0-22.3-2.8-31.5-8.5c-9.2-5.7-16.4-13.8-21.5-24.3c-5.1-10.5-7.7-22.6-7.7-36.3v-7c0-14,2.5-26.3,7.6-37
		c5-10.6,12.2-18.8,21.4-24.5c9.2-5.7,19.7-8.5,31.6-8.5c11.8,0,22.4,2.8,31.6,8.5c9.2,5.7,16.3,13.9,21.4,24.5
		c5,10.6,7.6,22.9,7.6,36.9V923.1z M1245.1,916.7c0-14.9-2.7-26.2-8-34c-5.3-7.7-13-11.6-22.9-11.6c-9.8,0-17.4,3.8-22.8,11.5
		c-5.3,7.7-8,18.9-8.1,33.6v6.9c0,14.5,2.7,25.8,8,33.8c5.3,8,13,12,23,12c9.8,0,17.4-3.9,22.7-11.6s7.9-19,8-33.7V916.7z"/>
	<path class="st1" d="M1403.7,848.8v93.7c0,15.6-4.9,27.9-14.6,36.9c-9.7,9-23,13.6-39.9,13.6c-16.6,0-29.8-4.4-39.6-13.2
		s-14.7-20.9-14.9-36.2v-94.7h29.3v93.8c0,9.3,2.2,16.1,6.7,20.4c4.5,4.3,10.6,6.4,18.5,6.4c16.5,0,24.8-8.7,25.1-26v-94.6H1403.7z"
		/>
	<path class="st1" d="M1501.4,953.7c0-5.5-2-9.8-5.9-12.7c-3.9-3-10.9-6.1-21.1-9.4c-10.2-3.3-18.2-6.5-24.1-9.7
		c-16.1-8.7-24.2-20.5-24.2-35.3c0-7.7,2.2-14.5,6.5-20.6c4.3-6,10.5-10.7,18.7-14.1c8.1-3.4,17.2-5.1,27.3-5.1
		c10.2,0,19.2,1.8,27.1,5.5c7.9,3.7,14.1,8.9,18.5,15.6c4.4,6.7,6.6,14.3,6.6,22.9h-29.3c0-6.5-2.1-11.6-6.2-15.2s-9.9-5.4-17.3-5.4
		c-7.2,0-12.7,1.5-16.7,4.5c-4,3-6,7-6,12c0,4.6,2.3,8.5,7,11.6c4.7,3.1,11.5,6.1,20.6,8.8c16.7,5,28.8,11.2,36.4,18.7
		s11.4,16.7,11.4,27.7c0,12.3-4.7,22-14,29c-9.3,7-21.8,10.5-37.6,10.5c-10.9,0-20.9-2-29.9-6s-15.8-9.5-20.6-16.5
		c-4.7-7-7.1-15-7.1-24.2h29.4c0,15.7,9.4,23.5,28.1,23.5c7,0,12.4-1.4,16.3-4.2S1501.4,958.8,1501.4,953.7z"/>
	<path class="st1" d="M1666.3,991H1637l-57-93.6V991h-29.3V848.8h29.3l57.1,93.8v-93.8h29.2V991z"/>
	<path class="st1" d="M1777.4,929.2h-56.2v38.3h66V991h-95.3V848.8h95.1v23.7h-65.8v33.9h56.2V929.2z"/>
	<path class="st1" d="M1878.1,953.7c0-5.5-2-9.8-5.9-12.7c-3.9-3-10.9-6.1-21.1-9.4c-10.2-3.3-18.2-6.5-24.1-9.7
		c-16.1-8.7-24.2-20.5-24.2-35.3c0-7.7,2.2-14.5,6.5-20.6c4.3-6,10.5-10.7,18.7-14.1c8.1-3.4,17.2-5.1,27.3-5.1
		c10.2,0,19.2,1.8,27.1,5.5c7.9,3.7,14.1,8.9,18.5,15.6c4.4,6.7,6.6,14.3,6.6,22.9h-29.3c0-6.5-2.1-11.6-6.2-15.2s-9.9-5.4-17.3-5.4
		c-7.2,0-12.7,1.5-16.7,4.5c-4,3-6,7-6,12c0,4.6,2.3,8.5,7,11.6c4.7,3.1,11.5,6.1,20.6,8.8c16.7,5,28.8,11.2,36.4,18.7
		s11.4,16.7,11.4,27.7c0,12.3-4.7,22-14,29c-9.3,7-21.8,10.5-37.6,10.5c-10.9,0-20.9-2-29.9-6s-15.8-9.5-20.6-16.5
		c-4.7-7-7.1-15-7.1-24.2h29.4c0,15.7,9.4,23.5,28.1,23.5c7,0,12.4-1.4,16.3-4.2S1878.1,958.8,1878.1,953.7z"/>
	<path class="st1" d="M2001.1,953.7c0-5.5-2-9.8-5.9-12.7c-3.9-3-10.9-6.1-21.1-9.4c-10.2-3.3-18.2-6.5-24.1-9.7
		c-16.1-8.7-24.2-20.5-24.2-35.3c0-7.7,2.2-14.5,6.5-20.6c4.3-6,10.5-10.7,18.7-14.1c8.1-3.4,17.2-5.1,27.3-5.1
		c10.2,0,19.2,1.8,27.1,5.5c7.9,3.7,14.1,8.9,18.5,15.6c4.4,6.7,6.6,14.3,6.6,22.9h-29.3c0-6.5-2.1-11.6-6.2-15.2s-9.9-5.4-17.3-5.4
		c-7.2,0-12.7,1.5-16.7,4.5c-4,3-6,7-6,12c0,4.6,2.3,8.5,7,11.6c4.7,3.1,11.5,6.1,20.6,8.8c16.7,5,28.8,11.2,36.4,18.7
		s11.4,16.7,11.4,27.7c0,12.3-4.7,22-14,29c-9.3,7-21.8,10.5-37.6,10.5c-10.9,0-20.9-2-29.9-6s-15.8-9.5-20.6-16.5
		c-4.7-7-7.1-15-7.1-24.2h29.4c0,15.7,9.4,23.5,28.1,23.5c7,0,12.4-1.4,16.3-4.2S2001.1,958.8,2001.1,953.7z"/>
	<path class="st1" d="M743.4,1088.8l36.5,103.1l36.3-103.1h38.5V1231h-29.4v-38.9l2.9-67.1l-38.4,106h-20.1l-38.3-105.9l2.9,67v38.9
		h-29.3v-142.2H743.4z"/>
	<path class="st1" d="M911.5,1231h-29.3v-142.2h29.3V1231z"/>
	<path class="st1" d="M1054.3,1231H1025l-57-93.6v93.6h-29.3v-142.2H968l57.1,93.8v-93.8h29.2V1231z"/>
	<path class="st1" d="M1111,1231h-29.3v-142.2h29.3V1231z"/>
	<path class="st1" d="M1211.9,1193.7c0-5.5-2-9.8-5.9-12.7c-3.9-3-10.9-6.1-21.1-9.4c-10.2-3.3-18.2-6.5-24.1-9.7
		c-16.1-8.7-24.2-20.5-24.2-35.3c0-7.7,2.2-14.5,6.5-20.6c4.3-6,10.5-10.7,18.7-14.1c8.1-3.4,17.2-5.1,27.3-5.1
		c10.2,0,19.2,1.8,27.1,5.5c7.9,3.7,14.1,8.9,18.5,15.6c4.4,6.7,6.6,14.3,6.6,22.9H1212c0-6.5-2.1-11.6-6.2-15.2s-9.9-5.4-17.3-5.4
		c-7.2,0-12.7,1.5-16.7,4.5c-4,3-6,7-6,12c0,4.6,2.3,8.5,7,11.6c4.7,3.1,11.5,6.1,20.6,8.8c16.7,5,28.8,11.2,36.4,18.7
		s11.4,16.7,11.4,27.7c0,12.3-4.7,22-14,29c-9.3,7-21.8,10.5-37.6,10.5c-10.9,0-20.9-2-29.9-6s-15.8-9.5-20.6-16.5
		c-4.7-7-7.1-15-7.1-24.2h29.4c0,15.7,9.4,23.5,28.1,23.5c7,0,12.4-1.4,16.3-4.2S1211.9,1198.8,1211.9,1193.7z"/>
	<path class="st1" d="M1368.1,1112.5h-43.6V1231h-29.3v-118.5h-43v-23.7h115.8V1112.5z"/>
	<path class="st1" d="M1437.5,1178.9h-23.3v52.1h-29.3v-142.2h52.8c16.8,0,29.8,3.7,38.9,11.2c9.1,7.5,13.7,18.1,13.7,31.7
		c0,9.7-2.1,17.8-6.3,24.3c-4.2,6.5-10.6,11.6-19.1,15.5l30.8,58.1v1.4h-31.4L1437.5,1178.9z M1414.1,1155.2h23.6
		c7.4,0,13.1-1.9,17.1-5.6c4-3.7,6.1-8.9,6.1-15.5c0-6.7-1.9-12-5.7-15.8c-3.8-3.8-9.7-5.8-17.5-5.8h-23.5V1155.2z"/>
	<path class="st1" d="M1543.6,1231h-29.3v-142.2h29.3V1231z"/>
	<path class="st1" d="M1656.3,1169.2h-56.2v38.3h66v23.5h-95.3v-142.2h95.1v23.7h-65.8v33.9h56.2V1169.2z"/>
	<path class="st1" d="M1757,1193.7c0-5.5-2-9.8-5.9-12.7c-3.9-3-10.9-6.1-21.1-9.4c-10.2-3.3-18.2-6.5-24.1-9.7
		c-16.1-8.7-24.2-20.5-24.2-35.3c0-7.7,2.2-14.5,6.5-20.6c4.3-6,10.5-10.7,18.7-14.1c8.1-3.4,17.2-5.1,27.3-5.1
		c10.2,0,19.2,1.8,27.1,5.5c7.9,3.7,14.1,8.9,18.5,15.6c4.4,6.7,6.6,14.3,6.6,22.9h-29.3c0-6.5-2.1-11.6-6.2-15.2s-9.9-5.4-17.3-5.4
		c-7.2,0-12.7,1.5-16.7,4.5c-4,3-6,7-6,12c0,4.6,2.3,8.5,7,11.6c4.7,3.1,11.5,6.1,20.6,8.8c16.7,5,28.8,11.2,36.4,18.7
		s11.4,16.7,11.4,27.7c0,12.3-4.7,22-14,29c-9.3,7-21.8,10.5-37.6,10.5c-10.9,0-20.9-2-29.9-6s-15.8-9.5-20.6-16.5
		c-4.7-7-7.1-15-7.1-24.2h29.4c0,15.7,9.4,23.5,28.1,23.5c7,0,12.4-1.4,16.3-4.2S1757,1198.8,1757,1193.7z"/>
</g>
</svg>
