<?xml version="1.0" encoding="utf-8"?>
<!-- Generator: Adobe Illustrator 19.2.0, SVG Export Plug-In . SVG Version: 6.00 Build 0)  -->
<svg version="1.1" id="Layer_1" xmlns="http://www.w3.org/2000/svg" xmlns:xlink="http://www.w3.org/1999/xlink" x="0px" y="0px"
	 viewBox="0 0 2486 1860" style="enable-background:new 0 0 2486 1860;" xml:space="preserve">
<style type="text/css">
	.st0{opacity:0.6;fill:#0D0F21;stroke:#000000;stroke-miterlimit:10;enable-background:new    ;}
	.st1{enable-background:new    ;}
	.st2{fill:#FFFFFF;}
</style>
<rect class="st0" width="2486" height="1860"/>
<g class="st1">
	<path class="st2" d="M688.3,734.4l38.3-187.3h42.9L712,795.9h-41.4l-47.3-181.7L575,795.9h-41.5L476,547.1h42.9l38.6,187l47.5-187
		h36.2L688.3,734.4z"/>
	<path class="st2" d="M999.6,678c0,24.4-4.2,45.8-12.6,64.2c-8.4,18.4-20.5,32.5-36.1,42.4c-15.7,9.9-33.7,14.8-54.1,14.8
		c-20.2,0-38.1-4.9-53.9-14.8c-15.8-9.9-28-23.9-36.6-42.1c-8.6-18.2-13-39.2-13.1-63.1v-14c0-24.3,4.3-45.7,12.9-64.3
		c8.6-18.6,20.7-32.8,36.4-42.6c15.7-9.9,33.6-14.8,53.9-14.8c20.3,0,38.3,4.9,53.9,14.6c15.7,9.7,27.8,23.8,36.3,42
		c8.5,18.3,12.9,39.6,13,63.8V678z M956.4,665c0-27.6-5.2-48.7-15.6-63.4c-10.4-14.7-25.2-22-44.3-22c-18.7,0-33.3,7.3-43.8,22
		c-10.5,14.6-15.9,35.3-16.1,62.1V678c0,27.3,5.3,48.5,16,63.4c10.7,14.9,25.4,22.4,44.3,22.4c19.1,0,33.9-7.3,44.2-21.9
		c10.3-14.6,15.5-35.9,15.5-63.9V665z"/>
	<path class="st2" d="M1134.1,700.2h-48.2v95.7h-43.2V547.1h87.5c28.7,0,50.9,6.4,66.5,19.3c15.6,12.9,23.4,31.5,23.4,55.9
		c0,16.6-4,30.6-12,41.8c-8,11.2-19.2,19.9-33.6,25.9l55.9,103.6v2.2H1184L1134.1,700.2z M1085.9,665.3h44.4c14.6,0,26-3.7,34.2-11
		c8.2-7.3,12.3-17.4,12.3-30.2c0-13.3-3.8-23.6-11.4-30.9c-7.6-7.3-18.9-11-33.9-11.3h-45.6V665.3z"/>
	<path class="st2" d="M1391.2,731.8c0-10.9-3.8-19.4-11.5-25.3c-7.7-5.9-21.6-11.9-41.6-17.9c-20.1-6-36-12.8-47.9-20.2
		c-22.7-14.2-34-32.8-34-55.7c0-20.1,8.2-36.6,24.5-49.6c16.3-13,37.6-19.5,63.7-19.5c17.3,0,32.8,3.2,46.3,9.6
		c13.6,6.4,24.2,15.5,32,27.3c7.7,11.8,11.6,24.9,11.6,39.2h-43.1c0-12.9-4.1-23-12.2-30.3c-8.1-7.3-19.8-10.9-34.9-10.9
		c-14.1,0-25.1,3-32.9,9c-7.8,6-11.7,14.4-11.7,25.2c0,9.1,4.2,16.7,12.6,22.7c8.4,6.1,22.3,12,41.7,17.7
		c19.4,5.7,34.9,12.3,46.7,19.6c11.7,7.3,20.3,15.8,25.8,25.3c5.5,9.5,8.2,20.7,8.2,33.4c0,20.7-7.9,37.2-23.8,49.5
		c-15.9,12.2-37.5,18.4-64.7,18.4c-18,0-34.6-3.3-49.6-10c-15.1-6.7-26.8-15.9-35.2-27.6c-8.4-11.7-12.6-25.4-12.6-41h43.2
		c0,14.1,4.7,25.1,14,32.8c9.3,7.7,22.7,11.6,40.2,11.6c15,0,26.3-3,33.9-9.1C1387.4,749.9,1391.2,741.8,1391.2,731.8z"/>
	<path class="st2" d="M1669.9,795.9h-43.1V685.5h-111.3v110.4h-43.2V547.1h43.2v103.6h111.3V547.1h43.1V795.9z"/>
	<path class="st2" d="M1766.6,795.9h-43.1V547.1h43.1V795.9z"/>
	<path class="st2" d="M1863,703.6v92.3h-43.2V547.1h95.2c27.8,0,49.9,7.2,66.2,21.7c16.3,14.5,24.5,33.6,24.5,57.5
		c0,24.4-8,43.4-24,57c-16,13.6-38.4,20.4-67.2,20.4H1863z M1863,668.8h52c15.4,0,27.1-3.6,35.2-10.9c8.1-7.2,12.1-17.7,12.1-31.4
		c0-13.4-4.1-24.2-12.3-32.2c-8.2-8-19.5-12.2-33.8-12.4H1863V668.8z"/>
</g>
<g class="st1">
	<path class="st2" d="M792,967.1l71.8,190.7l71.6-190.7h55.9v248.8h-43.1v-82l4.3-109.7l-73.5,191.7H848l-73.3-191.6l4.3,109.5v82
		h-43.1V967.1H792z"/>
	<path class="st2" d="M1187.8,1104.8h-102.2v76.2H1205v34.9h-162.7V967.1h161.5v34.9h-118.3v68.7h102.2V1104.8z"/>
	<path class="st2" d="M1240.2,1215.9V967.1h73.5c22,0,41.5,4.9,58.5,14.7c17,9.8,30.2,23.7,39.6,41.7c9.3,18,14,38.6,14,61.9v12.5
		c0,23.6-4.7,44.3-14.1,62.2c-9.4,17.9-22.8,31.7-40.2,41.4c-17.4,9.7-37.3,14.5-59.7,14.5H1240.2z M1283.5,1001.9V1181h28.2
		c22.7,0,40.1-7.1,52.2-21.2c12.1-14.2,18.3-34.5,18.5-61V1085c0-26.9-5.9-47.5-17.6-61.7c-11.7-14.2-28.8-21.3-51.1-21.3H1283.5z"
		/>
	<path class="st2" d="M1514.5,1215.9h-43.1V967.1h43.1V1215.9z"/>
	<path class="st2" d="M1710,1158h-96.4l-20.2,57.9h-44.9l94-248.8h38.8l94.2,248.8h-45.1L1710,1158z M1625.8,1123.1h72.1
		l-36.1-103.2L1625.8,1123.1z"/>
</g>
</svg>
